<svg xmlns="http://www.w3.org/2000/svg" viewBox="0 0 314.68 314.67"><defs><style>.cls-1,.cls-2{fill:#fff;}.cls-2{stroke:#000;stroke-miterlimit:10;stroke-width:6.23px;}</style></defs><title>Recurso 28</title><g id="Capa_2" data-name="Capa 2"><g id="Capa_2-2" data-name="Capa 2"><path d="M140.44,24.29a6.26,6.26,0,0,1,3.21,3.65c7.18,16.81,14.41,33.6,21.55,50.43a2.68,2.68,0,0,0,3,1.95c3.47-.14,6.95-.06,10.42,0,2.93,0,4.74,1.57,4.72,4s-1.84,3.93-4.79,3.94c-6.28,0-12.56,0-19.13,0v2.87c0,4.13,0,8.26,0,12.39a1.9,1.9,0,0,0,1.21,2,11.39,11.39,0,0,1,6.74,10.6q.13,12,0,24.06a11.43,11.43,0,0,1-6.68,10.65,2,2,0,0,0-1.3,2,54.82,54.82,0,0,1-6,24.5c-7.79,14.89-19.76,24.73-36.07,28.94a55.84,55.84,0,0,1-69.76-53.26,2.27,2.27,0,0,0-1.47-2.29,11.29,11.29,0,0,1-6.52-10.38q-.15-12.12,0-24.24c0-4.86,2.46-8.35,6.71-10.66.49-.27,1.15-.84,1.16-1.28.08-5.25.05-10.51.05-16H44.13c-5.45,0-10.89,0-16.34,0a4,4,0,0,1-4.25-3.92c0-2.27,1.66-3.88,4.18-4,.42,0,.84,0,1.26,0,3.23,0,6.47-.09,9.69,0a2.67,2.67,0,0,0,3-1.95c7.14-16.83,14.38-33.62,21.55-50.44a6.28,6.28,0,0,1,3.21-3.64h2.16L71.29,26c10.2,6.8,20.42,13.58,30.59,20.43a2.35,2.35,0,0,0,3.14,0c11.06-7.43,22.17-14.79,33.27-22.18Zm-84.78,128a46.81,46.81,0,0,0,24.7,41.85c17,9,34,8.31,49.93-2.34,13.85-9.23,20.62-22.72,21.13-39.51ZM69.22,34.34C62.65,49.67,56.13,64.87,49.56,80.21H157.34l-19.68-45.9c-.77.5-1.33.85-1.87,1.21L107,54.73c-3.08,2.05-3.93,2.06-7,0L71,35.47C70.49,35.11,69.93,34.78,69.22,34.34Zm82.22,54H55.59v15.81h95.85V88.31Zm-72.29,24a27.9,27.9,0,0,1,9.91,4.24c7.65,5.38,8.5,15.19,1.86,21.7-3.51,3.44-7.85,5.06-12.59,5.91H128.8c-1.61-.37-3-.62-4.35-1a18.63,18.63,0,0,1-11.39-8.69c-3.38-5.93-1.21-13.72,4.9-18a28.85,28.85,0,0,1,9.81-4.15Zm-7.41-.06c-6.46,0-12.92,0-19.37,0-3.38,0-4.91,1.53-4.91,4.95q0,11,0,22.07c0,3.37,1.57,4.92,4.95,4.93,6,0,12,0,18,0h2.13a26.77,26.77,0,0,1-10.72-4.4c-7.61-5.47-8.37-15.17-1.69-21.71C63.37,114.9,67.42,113.32,71.74,112.25Zm63.34,0a28.83,28.83,0,0,1,9.91,4.25c7.72,5.4,8.56,15.3,1.81,21.81-3.48,3.37-7.76,5-12.45,5.79,7,.08,14.08.15,21.11,0a3.81,3.81,0,0,0,3.93-4.07q.13-11.84,0-23.68a3.79,3.79,0,0,0-3.87-4.11C148.7,112.22,141.89,112.27,135.08,112.27Zm-59.4,8a15.19,15.19,0,0,0-9.54,3.09c-3.47,2.85-3.49,6.92,0,9.78,5,4.14,13.86,4.11,18.82-.07,3.26-2.74,3.29-6.79,0-9.56A14.76,14.76,0,0,0,75.68,120.22Zm55.74,0c-3.52.15-6.79.94-9.51,3.26-3.18,2.73-3.19,6.72-.06,9.46,5,4.31,14.14,4.33,19.11,0,3.24-2.8,3.21-6.8-.09-9.56C138.13,121.1,134.86,120.35,131.42,120.21Z"/><path class="cls-1" d="M138.29,24.29C127.19,31.68,116.08,39,105,46.47a2.35,2.35,0,0,1-3.14,0C91.71,39.62,81.49,32.84,71.29,26l-2.68-1.75Z"/><path class="cls-1" d="M55.66,152.28h95.76c-.51,16.79-7.28,30.28-21.13,39.51-16,10.65-33,11.37-49.93,2.34A46.81,46.81,0,0,1,55.66,152.28Z"/><path class="cls-1" d="M69.22,34.34c.71.44,1.27.77,1.8,1.13l29,19.3c3,2,3.89,2,7,0l28.82-19.21c.54-.36,1.1-.71,1.87-1.21l19.68,45.9H49.56C56.13,64.87,62.65,49.67,69.22,34.34Z"/><path class="cls-1" d="M151.44,88.31v15.81H55.59V88.31Z"/><path class="cls-1" d="M79.15,112.31h48.62a28.85,28.85,0,0,0-9.81,4.15c-6.11,4.26-8.28,12-4.9,18a18.63,18.63,0,0,0,11.39,8.69c1.34.41,2.74.66,4.35,1H78.33c4.74-.85,9.08-2.47,12.59-5.91,6.64-6.51,5.79-16.32-1.86-21.7A27.9,27.9,0,0,0,79.15,112.31Z"/><path class="cls-1" d="M71.74,112.25c-4.32,1.07-8.37,2.65-11.66,5.86-6.68,6.54-5.92,16.24,1.69,21.71a26.77,26.77,0,0,0,10.72,4.4H70.36c-6,0-12,0-18,0-3.38,0-4.94-1.56-4.95-4.93q0-11,0-22.07c0-3.42,1.53-4.94,4.91-4.95C58.82,112.24,65.28,112.25,71.74,112.25Z"/><path class="cls-1" d="M135.08,112.27c6.81,0,13.62,0,20.44,0a3.79,3.79,0,0,1,3.87,4.11q.13,11.84,0,23.68a3.81,3.81,0,0,1-3.93,4.07c-7,.11-14.07,0-21.11,0,4.69-.8,9-2.42,12.45-5.79,6.75-6.51,5.91-16.41-1.81-21.81A28.83,28.83,0,0,0,135.08,112.27Z"/><path class="cls-1" d="M75.68,120.22A14.76,14.76,0,0,1,85,123.46c3.25,2.77,3.22,6.82,0,9.56-5,4.18-13.84,4.21-18.82.07-3.45-2.86-3.43-6.93,0-9.78A15.19,15.19,0,0,1,75.68,120.22Z"/><path class="cls-1" d="M131.42,120.21c3.44.14,6.71.89,9.45,3.2,3.3,2.76,3.33,6.76.09,9.56-5,4.29-14.16,4.27-19.11,0-3.13-2.74-3.12-6.73.06-9.46C124.63,121.15,127.9,120.36,131.42,120.21Z"/><path class="cls-2" d="M117.58,3.12c4.72.78,9.48,1.42,14.17,2.38,44.45,9.06,78.69,46.73,83.5,91.89q4.33,40.58-19.1,74.06c-.39.56-.75,1.15-1.29,2,2.86.23,5.67-.08,8.06.77,4.08,1.46,8.53,2.93,11.73,5.66,30.09,25.68,59.89,51.69,89.9,77.46,7.17,6.16,7.91,13.88,6.32,22.2-3.9,20.42-18.26,31.28-38.28,32-6.1.23-11.16-2.08-15.31-6.91q-38.67-45-77.55-89.82c-4.85-5.61-6.66-12.22-6-20.05-1.2.77-2,1.25-2.8,1.8C107.85,241,19.8,205.64,5.08,130c-.84-4.3-1.32-8.68-2-13V101.93c.56-3.65,1.08-7.31,1.7-11A105.91,105.91,0,0,1,85.38,6c5.45-1.23,11-1.91,16.54-2.85Zm82.6,105.73a91.6,91.6,0,1,0-91.64,91.34A91.48,91.48,0,0,0,200.18,108.85Z"/></g></g></svg>