<svg xmlns="http://www.w3.org/2000/svg" viewBox="0 0 289.2 278.03"><defs><style>.cls-1,.cls-2,.cls-3{fill:#fff;stroke:#000;stroke-miterlimit:10;}.cls-1{stroke-width:4.8px;}.cls-2{stroke-width:6.4px;}.cls-3{stroke-width:1.6px;}</style></defs><title>EXTORSION</title><g id="Capa_2" data-name="Capa 2"><g id="Capa_2-2" data-name="Capa 2"><path class="cls-1" d="M109,69.29,45,71.17A21.19,21.19,0,0,0,27.27,92.25C24.22,124.78,16.69,139.3,10,146.45c-1.77,1.88-8,8.08-7.53,15.81,0,.55.6,7.53,6,10.54,4.63,2.56,9.76.53,12.72-.64a25.34,25.34,0,0,0,12.5-11.41,93.71,93.71,0,0,0,10.92-21.83c5.34-15.55,4.86-27.86,5.27-27.85.67,0,1.09,33.72.75,144.53a19.67,19.67,0,0,0,5.27,12.8,19.91,19.91,0,0,0,14.3,6,19.27,19.27,0,0,0,16.56-21.07q.2-34.26.38-68.51c.3-.32,3.83-3.88,8.66-3a9.46,9.46,0,0,1,5.27,3q1.5,35.57,3,71.14c-.12,1-1,9.75,5.27,15.43a17.33,17.33,0,0,0,10.53,4.14c1.64.13,7.91.62,13.18-3.76,7-5.78,6.11-15,6-15.81q-1.32-75.84-2.63-151.69a11,11,0,0,1,12.79-10.54,164,164,0,0,0,32.37,7.15c15,1.74,21.18.63,26.35-2.25a29,29,0,0,0,9-7.94,6.94,6.94,0,0,0,.8-8.25c-2-3.1-5.85-3-6-3a118.56,118.56,0,0,1-32.75,0c-13-1.83-18.77-4.89-32-7.53A153.06,153.06,0,0,0,109,69.29Z"/><circle class="cls-2" cx="90.32" cy="36.13" r="32.93"/><path class="cls-3" d="M201.81,109.19c9-9.67,13.8-13.07,15.43-20.33.65-2.85,1.21-5.35,0-7.9-2.82-6-11.36-3.85-15.43-10.17-2.31-3.58-2.65-9.06,0-12.42,3.41-4.33,10.3-3.28,12-3a17.37,17.37,0,0,1,8.29,3.76c2.57,2.12,2.8,3.58,4.51,5.27,2,2,5.8,4,13.55,3.39,6-1.18,9.53-3.59,11.67-5.64,2.51-2.41,3.12-4.34,6-6.78a22.12,22.12,0,0,1,9.41-4.52,14.85,14.85,0,0,1,11.3,0c1.1.51,5.76,2.61,6.39,6.78.48,3.11-1.55,5.63-3.38,7.9a24.29,24.29,0,0,1-10.92,7.53A27.58,27.58,0,0,0,259.78,84a15.81,15.81,0,0,0-2.26,6.4c-.41,4.55,1.8,8.4,7.9,16.18,7.15,9.09,7.92,8.67,12.05,14.3s7.88,10.77,9.78,18.45a40.63,40.63,0,0,1,0,19.19,41.79,41.79,0,0,1-15.81,23.34c-5.85,4.29-11.21,5.8-17.31,7.53A76.2,76.2,0,0,1,228.54,192c-6.95-.45-16.43-1.06-26.73-6.77-4.42-2.45-11.14-6.29-16.18-14.31A39.43,39.43,0,0,1,180,146.45c1.13-11.48,7.22-19.55,12.8-26.91A126.64,126.64,0,0,1,201.81,109.19Z"/><path class="cls-3" d="M226.8,94.13h27.3a9.57,9.57,0,0,1,4.8-.42,4.63,4.63,0,0,1,3,1.27c1.06,1.18,1.35,3.25.42,4.37-.55.67-1.36.79-3,1a18.49,18.49,0,0,1-4.66,0l-16.37-.42-15.39.42-7.05-.14-4.93-.54a3.84,3.84,0,0,1-1.8-2.43,3.76,3.76,0,0,1,.37-2.54,3.85,3.85,0,0,1,2.26-1.57,4,4,0,0,1,3.43,1Z"/><path d="M236.94,156.88c0,1,0,1.85,0,2.74a2.14,2.14,0,0,1-1.23,2.2,3,3,0,0,1-3-.17,2.32,2.32,0,0,1-.74-1.49,23.09,23.09,0,0,1,0-2.89,19.17,19.17,0,0,1-3.06-.5,25.2,25.2,0,0,1-4.17-1.71,3,3,0,0,1,2.19-5.61,25.53,25.53,0,0,1,2.61,1,10.49,10.49,0,0,0,5.53.82,4.47,4.47,0,0,0,3.53-2.69,2.25,2.25,0,0,0-.78-3,17.66,17.66,0,0,0-3.45-1.5c-1.81-.63-3.72-1-5.46-1.74-5.28-2.33-6.57-8.09-2.94-12.6a10.36,10.36,0,0,1,5.47-3.63c.56-.16.76-.37.73-.94a19.1,19.1,0,0,1,0-2.14,2,2,0,0,1,2.08-2c1.59-.07,2.46.5,2.66,1.82a10.48,10.48,0,0,1,.07,1.48c0,.46,0,.93,0,1.46.95.21,1.89.36,2.78.64a20,20,0,0,1,2.93,1.15,2.74,2.74,0,0,1,1.21,3.51,2.54,2.54,0,0,1-3.31,1.74c-1.42-.4-2.81-.95-4.25-1.28a5.43,5.43,0,0,0-3.9.35,6.45,6.45,0,0,0-1.91,1.56,2.35,2.35,0,0,0,1.13,3.77c1.45.51,3,.84,4.45,1.28,1.12.33,2.26.64,3.34,1.08a8.72,8.72,0,0,1,3.77,13.63A10.09,10.09,0,0,1,236.94,156.88Z"/></g></g></svg>