<svg xmlns="http://www.w3.org/2000/svg" viewBox="0 0 109.79 109.89"><defs><style>.cls-1{fill:#fff;}</style></defs><title>Recurso 57</title><g id="Capa_2" data-name="Capa 2"><g id="Capa_6" data-name="Capa 6"><path class="cls-1" d="M8.35,22.66a19.41,19.41,0,0,0-5,7c-1.61,4-1.18,7-1,15,0,0,0,2.19,0,12,0,8.94-.69,14.84-1,19a174.45,174.45,0,0,0,1,33l11,1,6-24q2.5,12,5,24l10-1q-1-16.5-2-33,1-7,2-14a7.38,7.38,0,0,0,3-4c.25-.84.93-3.76-1-6a6.12,6.12,0,0,0-4-2,30.3,30.3,0,0,0,0-16,28.91,28.91,0,0,0-3-7c1.33.68.52,1.55,1,1s.38-.56,0-1c-1.16-1.36-3.5.34-8,1C19.33,28.11,14.71,27.61,8.35,22.66Z"/><path d="M0,33.24c.13-.51.27-1,.4-1.53a14.15,14.15,0,0,1,7.33-9.3c.69-.37,1.17-.42,1.73.26a20.44,20.44,0,0,0,1.95,1.82c-.3.14-.56.27-.83.38A10.62,10.62,0,0,0,3.45,35.4c.17,7.6.47,15.21.73,22.82A2.57,2.57,0,0,0,7,60.9c8.61,0,17.22,0,25.84,0a3.81,3.81,0,0,0,2-.48c.94-.61.91-5.24,0-5.93a2.5,2.5,0,0,0-1.38-.39Q24.82,54,16.19,54c-2.37,0-3.47-1-3.78-3.3-.24-1.77-.5-3.53-.76-5.3-.17-1.22.37-2.12,1.38-2.28s1.82.44,2,1.69c.3,1.9.57,3.8.86,5.74h15V49.33c0-4.61,0-9.22,0-13.83a10.67,10.67,0,0,0-4.16-9,1.18,1.18,0,0,1-.19-.25,28,28,0,0,1,2.62-1.45,1.24,1.24,0,0,1,1.11.3,13.37,13.37,0,0,1,4,9.4c0,1.89,0,3.78,0,5.72H44.51c.26-.86.1-1.41-.81-1.75a7,7,0,0,1-1.79-1.15,1.49,1.49,0,0,1-.34-2.18,1.46,1.46,0,0,1,2.14-.56c2,1.52,4.24,1.44,6.54,1.43C56.5,36,62.76,36,69,36h1.27c.18-1.39-.42-3.45,1.87-3.36,2,.08,1.5,2,1.66,3.36h1.28c1.33,0,2.12.69,2.09,1.76s-.79,1.67-2.07,1.67H61.8v1.72c1,0,2.05,0,3.07,0,1.26,0,2,.68,2,1.72s-.78,1.69-2,1.71l-2.89,0-.14,0C61.16,47.22,59,46,57.69,46.32c-.33.82-.42,1.79-.94,2.14s-1.55.27-2.62.4c-.05.71-.16,1.75-.15,2.8s.13,1.92.21,2.88a1.73,1.73,0,0,1-1.78,2.05c-2.14,0-4.29,0-6.43,0a1.73,1.73,0,0,1-1.77-1.42c-.1-.34-.17-.69-.26-1.09H38.83c0,1.48,0,2.93,0,4.38a5,5,0,0,1-4.9,5q-14,.06-28.08,0c-2.32,0-5-3-5.06-5.6-.13-3-.23-6.07-.32-9.1S.27,42.46.17,39.32c0-.46-.11-.91-.17-1.37ZM44.82,43.82H34.4v6.73h9.34Zm13.41-1V39.53H48.11v3.33ZM51,46.32c-.6,0-1.27,0-1.94,0-.25,0-.63.12-.72.29a9.69,9.69,0,0,0-1,6.49h3Z"/><path d="M0,64.11c1,.68,2,1.33,3,2.06a1.34,1.34,0,0,1,.43.94c0,1.75.06,3.51,0,5.26,0,1,.29,1.41,1.34,1.41q12.39,0,24.76,0c1,0,1.4-.38,1.37-1.39-.05-1.78,0-3.57,0-5.44h3.55c-.13,2.51-.28,5-.39,7.52a23.07,23.07,0,0,0,.09,2.76q1.34,14.94,2.69,29.88a6,6,0,0,1,0,.74,1.74,1.74,0,0,1-1.59,1.93,1.72,1.72,0,0,1-1.83-1.69c-.23-2.35-.43-4.69-.65-7q-1.06-11.79-2.15-23.58a1.21,1.21,0,0,0-.1-.23H20.49c-1,2.49-.06,4.84.4,7.19C22.38,92,24,99.6,25.44,107.2a2.94,2.94,0,0,1-.35,2,2,2,0,0,1-1.59.53c-.84-.08-1.21-.8-1.37-1.58-.58-2.94-1.17-5.88-1.75-8.82-.52-2.63-1-5.25-1.57-7.88a1.26,1.26,0,0,0-.34-.68L16.73,103c-.24,1.67-.45,3.33-.7,5-.18,1.22-1,1.92-2,1.78s-1.58-1-1.41-2.24c.81-5.91,1.66-11.81,2.49-17.71L16.9,77.24H3.43v29.41c0,.25,0,.5,0,.75.06,1-.1,1.88-1.17,2.28s-1.66-.29-2.26-1Z"/><path d="M22.09,0a14.09,14.09,0,0,1,6,2.64A12,12,0,1,1,18.38.21c.24,0,.47-.14.7-.21Zm7.07,12a8.58,8.58,0,1,0-8.6,8.57A8.59,8.59,0,0,0,29.16,12Z"/><path d="M103.27,23.91c3.45,2.07,5.52,5.55,6.28,9.87a19,19,0,0,1,.23,3.1q0,35.22,0,70.43a8.19,8.19,0,0,1,0,.86,1.71,1.71,0,0,1-1.74,1.56,1.66,1.66,0,0,1-1.65-1.53,7.65,7.65,0,0,1,0-1.07q0-14.26,0-28.52V77.25h-8.7c-.76,2.13-.51,4.32-.26,6.52q1.35,11.92,2.67,23.85a1.79,1.79,0,0,1-1.47,2.13,1.72,1.72,0,0,1-1.93-1.69c-.5-4.22-1-8.44-1.46-12.66a6.12,6.12,0,0,0-.37-1.66q-1.1,6.7-2.2,13.41c0,.35-.11.71-.18,1.06a1.78,1.78,0,0,1-2.07,1.54,1.76,1.76,0,0,1-1.32-2.13c.43-2.68.88-5.36,1.31-8q1.77-10.73,3.51-21.46a7.64,7.64,0,0,0,.06-.89H85.46c-.22,2.84-.43,5.67-.67,8.83-1.12-1.62-2.09-3-3-4.36a1.88,1.88,0,0,1-.07-1c.1-1.39.26-2.78.32-4.17a8.69,8.69,0,0,0-.22-1.66,13.79,13.79,0,0,1-.34-2.09c0-12.15,0-24.3,0-36.45a44.13,44.13,0,0,1,.67-4.65,2.65,2.65,0,0,0-.24-1.55c-.75-1.29-1.62-2.52-2.44-3.77-1.74-2.64-1.4-5,1.17-6.77a2,2,0,0,0,1-2.49A10.24,10.24,0,0,1,89.9,5.17a10.35,10.35,0,0,1,3.89,20.34c-.3,0-.6.12-1.05.21l.7,1.06L104.22,43a8.62,8.62,0,0,1,.61,1,1.6,1.6,0,0,1-.54,2.09,1.63,1.63,0,0,1-2.23-.23,6,6,0,0,1-.62-.87L86.15,22c-.8-1.2-1.21-1.27-2.42-.42-2.23,1.58-2.19,1.55-.71,3.86C86.69,31.19,90.33,37,94,42.71A1.82,1.82,0,0,1,94.08,45c-.78,1-2.15.85-2.91-.37-1.8-2.88-3.58-5.77-5.37-8.65-.19-.29-.39-.57-.78-1.14,0,.66-.1,1-.1,1.38q0,18.23,0,36.45c0,.78.18,1.13,1.09,1.12q9.65-.06,19.29,0c.9,0,1.09-.32,1.09-1.12,0-12.22,0-24.44,0-36.66a10.89,10.89,0,0,0-6-9.84Zm-4.64-8.38a6.77,6.77,0,0,0-3.72-6.18,6.53,6.53,0,0,0-7.18.58A6.64,6.64,0,0,0,85,16.5a1.5,1.5,0,0,0,1.11,1.33,9,9,0,0,1,2.55,1.81c.53.5.79,1.28,1.29,1.83a2.42,2.42,0,0,0,1.37.78A6.82,6.82,0,0,0,98.63,15.53Z"/><path d="M68.61,80.44c-.62-1.13-1.25-2.12-1.71-3.18a5.52,5.52,0,0,1-.64-2.57,2.14,2.14,0,0,1,2.93-1.52,10.25,10.25,0,0,1,1.06.5c2-1.35,2.49-1.38,4-.29a16.54,16.54,0,0,1,1.38-.92A2.6,2.6,0,0,1,79.36,76c-.65,1.42-1.25,2.86-1.87,4.29,0,0,0,.07,0,.18.27.1.56.17.83.3.77.37,1.3,1.09,1,1.81-.49,1,0,1.58.53,2.26,2,2.93,4.25,5.8,5.15,9.32a20.48,20.48,0,0,1,.7,6.22c-.27,4.16-2.74,6.91-6.55,8.33a17.14,17.14,0,0,1-12.77-.16c-4.62-1.88-6.84-6.1-6.21-11.17a22.59,22.59,0,0,1,4-9.72c.79-1.19,1.63-2.35,2.42-3.54a1.21,1.21,0,0,0,.26-.83C66.33,81.53,66.6,81,68.61,80.44Zm4.59,3.61a8.17,8.17,0,0,1-1,0,2,2,0,0,0-2.25,1.15c-.75,1.26-1.65,2.42-2.47,3.63a22.69,22.69,0,0,0-3.67,7.56c-1.17,5,.83,8.5,5.7,9.62a15.08,15.08,0,0,0,7.43-.13c4.09-1.13,6.12-4.22,5.25-8.37a23.66,23.66,0,0,0-2.19-6c-1-2-2.53-3.81-3.71-5.76C75.49,84.46,74.59,83.6,73.2,84.05Zm-2.1-6.59,1,3.12h1.82c.3-1.13.59-2.23.9-3.44C73.49,77.48,72.26,76,71.1,77.46Z"/><path class="cls-1" d="M44.82,43.82l-1.08,6.73H34.4V43.82Z"/><path class="cls-1" d="M58.23,42.86H48.11V39.53H58.23Z"/><path class="cls-1" d="M51,46.32l-.64,6.79h-3a9.69,9.69,0,0,1,1-6.49c.09-.17.47-.28.72-.29C49.71,46.29,50.38,46.32,51,46.32Z"/><path class="cls-1" d="M29.16,12a8.58,8.58,0,1,1-8.49-8.58A8.58,8.58,0,0,1,29.16,12Z"/><path class="cls-1" d="M98.63,15.53a6.82,6.82,0,0,1-7.32,6.72,2.42,2.42,0,0,1-1.37-.78c-.5-.55-.76-1.33-1.29-1.83a9,9,0,0,0-2.55-1.81A1.5,1.5,0,0,1,85,16.5a6.64,6.64,0,0,1,2.74-6.57,6.53,6.53,0,0,1,7.18-.58A6.77,6.77,0,0,1,98.63,15.53Z"/><path class="cls-1" d="M73.2,84.05c1.39-.45,2.29.41,3.08,1.73,1.18,2,2.67,3.74,3.71,5.76a23.66,23.66,0,0,1,2.19,6c.87,4.15-1.16,7.24-5.25,8.37a15.08,15.08,0,0,1-7.43.13c-4.87-1.12-6.87-4.58-5.7-9.62a22.69,22.69,0,0,1,3.67-7.56c.82-1.21,1.72-2.37,2.47-3.63a2,2,0,0,1,2.25-1.15A8.17,8.17,0,0,0,73.2,84.05Z"/><path class="cls-1" d="M71.1,77.46c1.16-1.42,2.39,0,3.67-.32-.31,1.21-.6,2.31-.9,3.44H72.05Z"/></g></g></svg>