<svg xmlns="http://www.w3.org/2000/svg" viewBox="0 0 95.53 114.86"><defs><style>.cls-1{fill:#fff;}</style></defs><title>Recurso 56</title><g id="Capa_2" data-name="Capa 2"><g id="Capa_6" data-name="Capa 6"><path class="cls-1" d="M15.49,12.52v38a14.13,14.13,0,0,0,3,4c1.24,1.14,3.56,2.83,10,4,4.64.84,6.2.47,13,1,5,.4,7.55.86,9,1,5.25.5,13.41-1.7,26-14l-3-28h0c-2.62.27-6.41.64-11,1-23.67,1.9-29.33.69-32,0A46.87,46.87,0,0,1,15.49,12.52Z"/><path d="M51.8,114.86c-10.44-1.86-19.14-7.72-28.4-12.31-1.29-.64-2.56-1.33-4-2.1,0,1,0,1.72,0,2.48,0,1.18-.56,1.78-1.69,1.79q-8,0-15.92,0c-1.21,0-1.73-.64-1.74-2V64c0-1.72.49-2.22,2.17-2.23h15c1.66,0,2.15.5,2.17,2.12,0,1,0,1.94.05,2.91,0,.07.06.13.16.31h1.14c5,0,9.94,0,14.91,0a4,4,0,0,1,2.22.77c6.81,5.18,13.52,10.48,20.36,15.61,3,2.29,5.12,5,5,9.11l4.44-2.13c4.87-2.36,9.71-4.77,14.61-7.06a9.25,9.25,0,0,1,13.24,8.83,8.43,8.43,0,0,1-4.66,7.57q-13.66,6.69-27.49,13c-2.27,1-4.86,1.37-7.29,2ZM34.32,84.64l4.56,3.52c3.73,2.87,7.43,5.78,11.19,8.61a6.13,6.13,0,0,0,9.68-2.9A6,6,0,0,0,57.52,87Q47,78.84,36.4,70.72a2.65,2.65,0,0,0-1.53-.48c-4.78,0-9.56,0-14.35,0-.36,0-.71,0-1,.06a1.46,1.46,0,0,0-.11.31q0,12.84,0,25.67a1.25,1.25,0,0,0,.58.92c7.66,3.94,15.3,7.94,23,11.74a24.09,24.09,0,0,0,11.31,2.79,26.19,26.19,0,0,0,10.54-2.77c8-3.75,15.88-7.62,23.79-11.48A6.16,6.16,0,1,0,83.27,86.4q-10.33,5-20.65,10a3,3,0,0,0-1,.79c-3.54,4.63-9.08,5.39-13.71,1.84s-9-6.93-13.49-10.4l-2-1.52ZM3.19,101.52h13V65H3.19Z"/><path d="M41.43,48.87v3.06a62.11,62.11,0,0,1-12.82-1.45,31.3,31.3,0,0,1-11.79-4.69c-.41,4.53-.53,5.57,3.34,7.82A33,33,0,0,0,32.6,57.44c3.36.44,6.76.6,10.14.88l1.06.06v2.9c-1.67,0-3.3.09-4.91,0-6-.38-12-1.22-17.57-3.63A27.5,27.5,0,0,1,15.58,54a5.84,5.84,0,0,1-2.07-4.88q0-18.39,0-36.77a6.83,6.83,0,0,1,2.34-5.25,20.78,20.78,0,0,1,8.9-4.53,70.8,70.8,0,0,1,38.81.2,31.29,31.29,0,0,1,7.15,3.36A7,7,0,0,1,74.3,13c-.15,2.45,0,4.91,0,7.43H71.18V17.71c-.17-.06-.27-.12-.3-.1C66.3,20.69,61.1,22,55.76,22.81a74.81,74.81,0,0,1-27.62-.75,30.73,30.73,0,0,1-11.25-4.5,5.78,5.78,0,0,0,2.09,7A27.68,27.68,0,0,0,29,28.5,66,66,0,0,0,45.61,30c1.1,0,1.63.17,1.47,1.36a15.63,15.63,0,0,0,0,1.83c-10.56,0-20.89-.55-30.25-6.06-1,3.37-.09,5.67,2.93,7.43a35.15,35.15,0,0,0,13.06,4.09c3.13.44,6.3.66,9.53,1v3c-8.93-.41-17.7-1.28-25.64-6.18a16.3,16.3,0,0,0,.08,4,5.77,5.77,0,0,0,1.94,2.73A20.74,20.74,0,0,0,28,47.09c3.91.74,7.9,1.13,11.85,1.66C40.39,48.82,40.91,48.83,41.43,48.87ZM44.25,3.19a66.45,66.45,0,0,0-17.8,2.19c-3.06.88-6.08,1.89-8.48,4.11-1.73,1.6-1.81,3.29,0,4.77a20.31,20.31,0,0,0,4.76,2.85,46.42,46.42,0,0,0,14.81,3.2,69.21,69.21,0,0,0,23.77-1.88,20.81,20.81,0,0,0,8.24-3.86c2.1-1.78,2.18-3.66,0-5.31a21.91,21.91,0,0,0-5.26-2.89C57.75,3.86,50.88,3.29,44.25,3.19Z"/><path d="M69.51,22.39a26.05,26.05,0,1,1-26.06,26A26.06,26.06,0,0,1,69.51,22.39ZM46.59,48.29a22.9,22.9,0,1,0,23-22.76A22.93,22.93,0,0,0,46.59,48.29Z"/><path class="cls-1" d="M34.32,84.64l-1.91,2.49,2,1.52c4.49,3.47,9,6.95,13.49,10.4s10.17,2.79,13.71-1.84a3,3,0,0,1,1-.79q10.32-5,20.65-10a6.16,6.16,0,1,1,5.38,11.06c-7.91,3.86-15.82,7.73-23.79,11.48a26.19,26.19,0,0,1-10.54,2.77A24.09,24.09,0,0,1,43,108.92c-7.74-3.8-15.38-7.8-23-11.74a1.25,1.25,0,0,1-.58-.92q0-12.84,0-25.67a1.46,1.46,0,0,1,.11-.31c.32,0,.67-.06,1-.06,4.79,0,9.57,0,14.35,0a2.65,2.65,0,0,1,1.53.48Q47,78.82,57.52,87a6,6,0,0,1,2.23,6.87,6.13,6.13,0,0,1-9.68,2.9c-3.76-2.83-7.46-5.74-11.19-8.61Z"/><path class="cls-1" d="M3.19,101.52V65h13v36.57Z"/><path class="cls-1" d="M44.25,3.19c6.63.1,13.5.67,20,3.18a21.91,21.91,0,0,1,5.26,2.89c2.19,1.65,2.11,3.53,0,5.31a20.81,20.81,0,0,1-8.24,3.86,69.21,69.21,0,0,1-23.77,1.88,46.42,46.42,0,0,1-14.81-3.2A20.31,20.31,0,0,1,18,14.26c-1.82-1.48-1.74-3.17,0-4.77,2.4-2.22,5.42-3.23,8.48-4.11A66.45,66.45,0,0,1,44.25,3.19Z"/><path class="cls-1" d="M46.59,48.29A22.9,22.9,0,1,1,69.32,71.34,22.88,22.88,0,0,1,46.59,48.29Zm42.8.14A19.91,19.91,0,1,0,69.46,68.3,19.94,19.94,0,0,0,89.39,48.43Z"/><path d="M89.39,48.43A19.91,19.91,0,1,1,69.6,28.53,19.92,19.92,0,0,1,89.39,48.43Zm-3.14,0A16.77,16.77,0,1,0,69.52,65.16,16.79,16.79,0,0,0,86.25,48.38Z"/><path class="cls-1" d="M86.25,48.38A16.77,16.77,0,1,1,69.32,31.67,16.77,16.77,0,0,1,86.25,48.38ZM71,58.73l.55-.15a5.92,5.92,0,0,0-1.21-11.71,15.41,15.41,0,0,1-2.44-.25A2.26,2.26,0,0,1,65.83,44a2.69,2.69,0,0,1,2.55-2.63c.93-.06,1.87,0,2.8,0a1.88,1.88,0,0,1,1.95,2c0,.47,0,.94,0,1.45h3c.61-3.71-1.09-6-5.11-6.73v-4H67.93v4l-1,.29a5.89,5.89,0,0,0-4.29,5.87,5.25,5.25,0,0,0,4.54,5.41,33.08,33.08,0,0,0,3.45.38,2.7,2.7,0,0,1,2.45,2.61,2.67,2.67,0,0,1-2.19,2.83,10.9,10.9,0,0,1-1.9.11c-2.74,0-3.12-.35-3.24-3a1.91,1.91,0,0,0-.09-.44h-3a6.77,6.77,0,0,0,.65,4.05A5.53,5.53,0,0,0,68,58.8v4H71Z"/><path d="M71,58.73v4H68v-4a5.53,5.53,0,0,1-4.62-2.63,6.77,6.77,0,0,1-.65-4.05h3a1.91,1.91,0,0,1,.09.44c.12,2.68.5,3,3.24,3a10.9,10.9,0,0,0,1.9-.11,2.67,2.67,0,0,0,2.19-2.83A2.7,2.7,0,0,0,70.67,50a33.08,33.08,0,0,1-3.45-.38,5.25,5.25,0,0,1-4.54-5.41A5.89,5.89,0,0,1,67,38.38l1-.29v-4H71v4c4,.76,5.72,3,5.11,6.73h-3c0-.51,0-1,0-1.45a1.88,1.88,0,0,0-1.95-2c-.93,0-1.87,0-2.8,0A2.69,2.69,0,0,0,65.83,44a2.26,2.26,0,0,0,2.11,2.67,15.41,15.41,0,0,0,2.44.25,5.92,5.92,0,0,1,1.21,11.71Z"/></g></g></svg>