<svg xmlns="http://www.w3.org/2000/svg" viewBox="0 0 128.44 142.91"><defs><style>.cls-1{fill:#fff;}</style></defs><title>Recurso 53</title><g id="Capa_2" data-name="Capa 2"><g id="Capa_6" data-name="Capa 6"><path class="cls-1" d="M64.4,1a60.71,60.71,0,0,0-31,8C18,17.87,11.31,31.05,8.4,37a60.93,60.93,0,0,0-7,27,60.37,60.37,0,0,0,9,32c5.45,9.18,9,15.1,16,18,3.06,1.27,6.73,1.93,8,5,1.37,3.33-1.43,6.16,0,11a12.69,12.69,0,0,0,3,5c1.67,1.91,6.8,6.56,33,6,13.14-.27,17.74-1.57,20-5a16.48,16.48,0,0,0,2-6c1.43-7.09-1-9.92,1-13,1.68-2.61,4-1.49,9-4,4.74-2.38,7.27-5.73,12-12a60.73,60.73,0,0,0,8-13c4.07-9.39,4.07-17.67,4-24-.09-8.89-.24-22.38-9-35-4.69-6.75-9.84-10.37-15-14C95.8,10.33,83,1.31,64.4,1Z"/><path d="M66.42,66.65c0,1.49,0,2.91,0,4.33,0,1.81-.79,2.68-2.26,2.67S62,72.76,62,70.93c0-1.38,0-2.75,0-4.26H35.38c.17,2.74.33,5.43.51,8.13,0,.54.13,1.08.14,1.62a2.4,2.4,0,0,1-2.1,2.6,2.32,2.32,0,0,1-2.33-2.23c-.26-2.85-.43-5.71-.62-8.57,0-.48,0-1,0-1.68H25.14c-.69,0-1.39,0-2.07,0a2.21,2.21,0,0,1,0-4.41c2-.08,4.05,0,6.07,0h1.34q1.23-11.49,2.42-22.47l-19.44-7A59.58,59.58,0,0,0,4.39,62.06H9.44c1,0,2,0,3,0,1.82,0,2.65.77,2.64,2.27s-.8,2.16-2.56,2.19c-2.17,0-4.34,0-6.52,0H4.2a58.71,58.71,0,0,0,9.22,29.94c3.19-1.39,6.29-2.76,9.39-4.09a20.37,20.37,0,0,1,2.24-.76c1.58-.47,2.75,0,3.2,1.24s-.16,2.42-1.78,3.07c-2.37,1-4.75,1.92-7.12,2.91-.94.39-1.85.89-2.88,1.39a57.94,57.94,0,0,0,9.72,10.23c.53.44,1.1.84,1.6,1.32a2.07,2.07,0,0,1,.28,2.82,1.94,1.94,0,0,1-2.7.76,5,5,0,0,1-1.11-.72C7.1,100.47-1,82.26.11,60A59.44,59.44,0,0,1,10.45,28.94c11.34-16.58,27-26.27,47-28.54A63.56,63.56,0,0,1,94.82,7.75c1.68.88,2.2,2.18,1.46,3.46s-1.94,1.34-3.47.68c-4.16-1.78-8.36-3.46-12.55-5.16A8.3,8.3,0,0,0,79,6.47c8,8,11.89,17.86,14.92,28.34a70.62,70.62,0,0,0,18.25-6.55c-2.57-2.68-5-5.24-7.45-7.78-.58-.6-1.24-1.14-1.85-1.7-1.49-1.38-1.68-2.48-.64-3.68s2.29-1.2,3.71.28c3.49,3.62,7.27,7.06,10.18,11.11C127.51,42.35,130.88,60,126.73,79.07c-.35,1.63-1.45,2.45-2.79,2.15-1.13-.25-1.66-1.4-1.43-3,.55-3.8,1.09-7.59,1.66-11.56H97.5c-.14,2.71-.28,5.4-.43,8.09a9,9,0,0,1-.13,1.47,2.31,2.31,0,0,1-2.49,1.86,2.28,2.28,0,0,1-1.89-2.44c.13-3,.3-5.91.46-9ZM61.94,38.47V28.88c0-2.64.59-3.61,2.21-3.63s2.27,1,2.27,3.56v9.4a123.59,123.59,0,0,0,23-2.29,74,74,0,0,0-6.52-16.7c-2.54-4.57-5.54-8.77-9.93-11.79a14.6,14.6,0,0,0-6.5-2.65V6.5c0,3.7,0,7.41,0,11.11,0,1.81-1.19,2.81-2.71,2.45S62,18.75,62,17.5c0-3.71,0-7.41,0-11.12,0-.51,0-1-.08-1.64a19.62,19.62,0,0,0-10.47,6.37C46.92,15.94,44,21.67,41.67,27.75c-1,2.65-1.83,5.37-2.89,8.51Zm52.91-5.92L95.32,39.6c.79,7.32,1.59,14.83,2.4,22.34H124A58.8,58.8,0,0,0,114.85,32.55ZM66.48,62H92.94a93.27,93.27,0,0,0-2.36-21.37L66.48,43ZM37.8,40.58a127.08,127.08,0,0,0-2.38,21.35H61.83V43Zm-3.67-5.9c2-5.08,3.86-10.07,6-14.91A48.16,48.16,0,0,1,49.07,6.59a59.23,59.23,0,0,0-32.58,21.7C20.23,30.66,29.66,34,34.13,34.68Z"/><path d="M32.74,110.87c0-6.72.07-13.44,0-20.15-.05-2.71.92-4.88,3.19-6.08A36,36,0,0,1,44.56,81a84.33,84.33,0,0,1,41.31.55,27.23,27.23,0,0,1,6.31,2.83,6.75,6.75,0,0,1,3.48,6.39c-.08,13.29-.1,26.57,0,39.86a7.42,7.42,0,0,1-3.9,6.93,33.19,33.19,0,0,1-12.29,4,88.38,88.38,0,0,1-33.26-.6,44.64,44.64,0,0,1-9.28-3.31c-2.93-1.37-4.36-3.8-4.26-7.3C32.89,123.91,32.74,117.39,32.74,110.87Zm4.46-.78a40.21,40.21,0,0,1-.05,5.47c-.33,2.52.92,3.77,3,4.61a17.72,17.72,0,0,0,2.75,1.06q5.7,1.26,11.42,2.36c1.67.31,2.59,1.08,2.5,2.36a2.27,2.27,0,0,1-2.82,2.1,74.28,74.28,0,0,1-8.16-1.37c-2.89-.71-5.7-1.75-8.62-2.67,0,2.31,0,4.68,0,7a2.32,2.32,0,0,0,1.32,2.42,36.5,36.5,0,0,0,6,2.53,79.81,79.81,0,0,0,36.37.73,46.52,46.52,0,0,0,8.45-3,3.12,3.12,0,0,0,1.78-2c.22-2.58.09-5.18.09-7.9a5,5,0,0,0-.69.21c-8.33,3.84-17.25,4.31-26.2,4.5a2.16,2.16,0,0,1-2.15-3c.42-1.19,1.41-1.31,2.51-1.4,5.1-.43,10.25-.66,15.29-1.49,3.21-.53,6.29-1.91,9.36-3.08a3.05,3.05,0,0,0,1.8-1.93c.22-2.57.08-5.17.08-7.51A83,83,0,0,1,37.2,110.09ZM62.48,83.28a65.14,65.14,0,0,0-18.11,2.43,32,32,0,0,0-6.29,2.84c-1.26.71-1.2,1.58,0,2.43a17.33,17.33,0,0,0,3.36,1.82,49.22,49.22,0,0,0,15,3.09c8.7.65,17.38.5,25.89-1.66a36.33,36.33,0,0,0,7.4-2.9c1.94-1,1.89-2.1,0-3.22A23.06,23.06,0,0,0,85,86C77.85,83.7,70.43,83.25,62.48,83.28Zm28.69,13a83.69,83.69,0,0,1-54-.07c0,2.09,0,4.39,0,6.69a2.33,2.33,0,0,0,1.33,2.42,34.41,34.41,0,0,0,5.81,2.48,80.06,80.06,0,0,0,36.78.72,45.67,45.67,0,0,0,8.43-3,3,3,0,0,0,1.56-2.06C91.29,101,91.17,98.55,91.17,96.32Z"/><path d="M111.8,99.82c-3.4-1.36-6.62-2.57-9.76-4a3.46,3.46,0,0,1-1.69-2,2.15,2.15,0,0,1,.85-1.94,3.59,3.59,0,0,1,2.6-.14c3.62,1.38,7.19,2.92,11,4.52,1.24-2.32,2.54-4.73,3.82-7.15.32-.61.55-1.27.87-1.88a2.12,2.12,0,0,1,2.85-1.09,2,2,0,0,1,1.17,2.69,24.69,24.69,0,0,1-1.15,2.88,65.48,65.48,0,0,1-18.57,23.1c-1.29,1-2.6,1-3.41,0s-.56-2.46.7-3.49A49.53,49.53,0,0,0,111.8,99.82Z"/><path d="M72.6,87.21l1.53-.08c.53,0,1,0,1.15.33a.65.65,0,0,1-.28.93,2.17,2.17,0,0,1-.87.27c-.53.06-1.06.06-1.55.08a11.86,11.86,0,0,1-.77,1.4,5.27,5.27,0,0,1-1,1,2.59,2.59,0,0,1-1.61.49c-1.19,0-1.73-.47-1.27-1.14.35-.52.83-1,1.15-1.54s.46-1.17-.21-1.6a3.13,3.13,0,0,0-1.22-.41,1.81,1.81,0,0,0-1.38.37,7,7,0,0,0-1,1.11c-.44.56-.73,1.16-1.24,1.7a6.89,6.89,0,0,1-7.21,1.27,2.78,2.78,0,0,1-1.7-1.57c-.06-.2-.22-.24-.57-.21s-.79.05-1.18.05c-.64,0-1-.21-.95-.57s.37-.78,1.07-.87,1.14-.09,1.74-.14a9.68,9.68,0,0,1,.5-.87,6,6,0,0,1,.75-.88,2.5,2.5,0,0,1,2.08-.51c.84.16,1.1.5.75,1a11.18,11.18,0,0,0-.9,1.29,1.35,1.35,0,0,0-.12,1,1.52,1.52,0,0,0,.79.72,2,2,0,0,0,2.23-.43c.36-.47.62-.94.95-1.41a11,11,0,0,1,1-1.25A6.77,6.77,0,0,1,68.57,85c2.19.09,3.43.75,3.92,1.88,0,.06,0,.11.05.16Z"/></g></g></svg>