<svg xmlns="http://www.w3.org/2000/svg" viewBox="0 0 123.63 111.7"><defs><style>.cls-1{fill:#fff;}</style></defs><title>Recurso 55</title><g id="Capa_2" data-name="Capa 2"><g id="Capa_6" data-name="Capa 6"><path d="M123.63,23v2.42a18.08,18.08,0,0,1-2.43,6.36,14.47,14.47,0,0,1-19.92,4.09,45,45,0,0,1-4.15-3.57A14.09,14.09,0,0,1,85.4,38.2a14.32,14.32,0,0,1-11.82-6.11,14.51,14.51,0,0,1-23.63,0,14.38,14.38,0,0,1-2.06,2.17,3.24,3.24,0,0,0-1.44,3.16c.12,2.31,0,4.63,0,7H97c2.31,0,3.34,1,3.35,3.29q0,7.06,0,14.14c0,2.36-1,3.35-3.41,3.35H82.41V75.44H96.84c2.59,0,3.54,1,3.54,3.6,0,3.5,0,7,0,10.51v1.36h1.47c4.47,0,8.94,0,13.41,0,1.93,0,3,1,3,2.84q0,7.55,0,15.1a2.65,2.65,0,0,1-2.8,2.83c-.28,0-.56,0-.84,0H8.8c-.29,0-.57,0-.85,0a2.68,2.68,0,0,1-2.75-2.76c0-.4,0-.8,0-1.2q0-35.83,0-71.67a2.28,2.28,0,0,0-.79-1.86,13.52,13.52,0,0,1-3.86-6,9.46,9.46,0,0,1,.55-7.65c3.24-5.94,6.21-12,9.19-18.09a3.92,3.92,0,0,1,4-2.43Q61.65.12,109,.15c.36,0,.73,0,1.09,0a2.7,2.7,0,0,1,2.69,1.67l.66,1.29ZM7,21h109.6L116,19.82c-2.24-4.41-4.51-8.8-6.71-13.24a1.74,1.74,0,0,0-1.83-1.14q-45.79,0-91.59-.12a1.57,1.57,0,0,0-1.62,1c-2.23,4.51-4.52,9-6.79,13.47C7.3,20.19,7.15,20.55,7,21ZM28.56,59.91H59v-10H28.56ZM95,49.91H64.51v10H95ZM10.56,75.4H41v-10H10.56ZM59,80.85H28.56v10H59Zm5.42,10H95v-10H64.46ZM10.56,106.3H41.05v-10H10.56Zm102.37,0v-10H82.49v10ZM77,75.39v-10H46.58v10Zm0,20.93H46.62v10H76.93ZM41.11,37.93C35,38.9,30,37,26.22,32.11c-4.06,5.23-9.29,7-15.62,5.65v6.65H41.11Zm-30.55,22H23v-10H10.56Zm12.5,20.94H10.59v10H23.06ZM5.75,26.43c.58,3.52,5,6.67,9,6.45s8-3.44,8.23-6.45Zm41,0H29.42c.68,3.48,4.71,6.46,8.65,6.45S46.09,29.86,46.7,26.44Zm6.43,0c.47,3.37,4.73,6.53,8.69,6.48s8.19-3.24,8.53-6.48Zm23.68,0c.59,3.53,5,6.67,9,6.45s8.06-3.44,8.23-6.45Zm23.66,0c.78,3.61,4.86,6.57,8.81,6.47s8-3.13,8.48-6.47Z"/><path class="cls-1" d="M7,21c.2-.44.35-.8.52-1.15,2.27-4.49,4.56-9,6.79-13.47a1.57,1.57,0,0,1,1.62-1q45.79.1,91.59.12a1.74,1.74,0,0,1,1.83,1.14c2.2,4.44,4.47,8.83,6.71,13.24l.54,1.17Z"/><path class="cls-1" d="M28.56,59.91v-10H59v10Z"/><path class="cls-1" d="M95,49.91v10H64.51v-10Z"/><path class="cls-1" d="M10.56,75.4v-10H41v10Z"/><path class="cls-1" d="M59,80.85v10H28.56v-10Z"/><path class="cls-1" d="M64.46,90.85v-10H95v10Z"/><path class="cls-1" d="M10.56,106.3v-10H41.05v10Z"/><path class="cls-1" d="M112.93,106.33H82.49v-10h30.44Z"/><path class="cls-1" d="M77,75.39H46.58v-10H77Z"/><path class="cls-1" d="M76.93,96.32v10H46.62v-10Z"/><path class="cls-1" d="M41.11,37.93v6.48H10.6V37.76c6.33,1.32,11.56-.42,15.62-5.65C30,37,35,38.9,41.11,37.93Z"/><path class="cls-1" d="M10.56,59.89v-10H23v10Z"/><path class="cls-1" d="M23.06,80.83v10H10.59v-10Z"/><path class="cls-1" d="M5.75,26.43H23c-.18,3-4.3,6.24-8.23,6.45S6.33,30,5.75,26.43Z"/><path class="cls-1" d="M46.7,26.44c-.61,3.42-4.68,6.45-8.63,6.45s-8-3-8.65-6.45Z"/><path class="cls-1" d="M53.13,26.41H70.35c-.34,3.24-4.57,6.43-8.53,6.48S53.6,29.78,53.13,26.41Z"/><path class="cls-1" d="M76.81,26.43H94c-.17,3-4.29,6.23-8.23,6.45S77.4,30,76.81,26.43Z"/><path class="cls-1" d="M100.47,26.42h17.29c-.53,3.34-4.55,6.37-8.48,6.47S101.25,30,100.47,26.42Z"/></g></g></svg>