<svg xmlns="http://www.w3.org/2000/svg" viewBox="0 0 125.79 112.4"><defs><style>.cls-1{fill:#fff;}</style></defs><title>Recurso 54</title><g id="Capa_2" data-name="Capa 2"><g id="Capa_6" data-name="Capa 6"><path d="M125.79,81.45c-.05.06-.13.1-.16.16-1.27,3.35-3,4.57-6.67,4.57H77.36c1.24,3.3,2.36,6.48,4.56,9.16.85,1,1.53,2.22,2.39,3.26a2.22,2.22,0,0,0,1.37.66c1.1.1,2.22,0,3.33,0a6.48,6.48,0,0,1,6.26,6.15c.08,1.74,0,3.49,0,5.24,0,1.14-.54,1.62-1.7,1.69H33c-2.14,0-2.46-.33-2.46-2.48,0-1.35,0-2.7,0-4a6.53,6.53,0,0,1,6.25-6.55,2.57,2.57,0,0,1,.83,0c3,.73,4.63-1.13,6.07-3.29a38.89,38.89,0,0,0,4.75-9.83H46.9c-13.3,0-26.6,0-39.9,0a9.35,9.35,0,0,1-4.2-1C.75,84.08,0,82.08,0,79.76q0-24.3,0-48.58V6.77C0,2.39,2.38,0,6.79,0H42.52q38.16,0,76.34,0c2.49,0,4.63.62,6,2.86a17.48,17.48,0,0,1,.91,1.9ZM62.88,2.87q-28,0-56,0A3.77,3.77,0,0,0,2.82,6.91q.14,36.2,0,72.39c0,2.83,1.9,4,4.11,4q56,0,111.94,0c3,0,4.07-1.09,4.07-4.1q0-36.15,0-72.28c0-.4,0-.8,0-1.19a2.88,2.88,0,0,0-2.42-2.7,10.26,10.26,0,0,0-2-.18ZM92.43,109.48c0-1.32,0-2.51,0-3.7-.08-2.3-1.69-3.62-4.39-3.62H37.77a7.73,7.73,0,0,0-.83,0,3.61,3.61,0,0,0-3.49,3,40.43,40.43,0,0,0,0,4.27ZM80.89,99.24a44.62,44.62,0,0,1-6.37-12.52,1.13,1.13,0,0,0-.89-.51q-10.6,0-21.19,0a1.25,1.25,0,0,0-.94.61c-.66,1.33-1.16,2.74-1.82,4.07-.94,1.92-2,3.81-3,5.68-.48.88-1.09,1.7-1.72,2.67Z"/><path class="cls-1" d="M62.88,2.87H118.5a10.26,10.26,0,0,1,2,.18,2.88,2.88,0,0,1,2.42,2.7c0,.39,0,.79,0,1.19q0,36.14,0,72.28c0,3-1.06,4.1-4.07,4.1q-56,0-111.94,0c-2.21,0-4.12-1.21-4.11-4Q3,43.11,2.82,6.91A3.77,3.77,0,0,1,6.91,2.85Q34.9,2.89,62.88,2.87Zm0,73.39h53.22c2,0,2.35-.3,2.35-2.33V9.52c0-2-.36-2.36-2.33-2.36H9.74c-2,0-2.35.36-2.35,2.35V73.8c0,2.22.24,2.46,2.46,2.46Zm1.49,3.57c-.08-.87-.52-1.43-1.41-1.44a1.4,1.4,0,0,0-.09,2.8C63.72,81.24,64.19,80.68,64.33,79.83Z"/><path class="cls-1" d="M92.43,109.48h-59a40.43,40.43,0,0,1,0-4.27,3.61,3.61,0,0,1,3.49-3,7.73,7.73,0,0,1,.83,0H88c2.7,0,4.31,1.32,4.39,3.62C92.47,107,92.43,108.16,92.43,109.48Z"/><path class="cls-1" d="M80.89,99.24H45c.63-1,1.24-1.79,1.72-2.67,1-1.87,2.05-3.76,3-5.68.66-1.33,1.16-2.74,1.82-4.07a1.25,1.25,0,0,1,.94-.61q10.59,0,21.19,0a1.13,1.13,0,0,1,.89.51A44.62,44.62,0,0,0,80.89,99.24Z"/><path d="M62.84,76.26h-53c-2.22,0-2.46-.24-2.46-2.46V9.51c0-2,.36-2.35,2.35-2.35H116.08c2,0,2.33.36,2.33,2.36V73.93c0,2-.3,2.33-2.35,2.33Zm-52.53-3H115.45V10.08H10.31Z"/><path d="M64.33,79.83c-.14.85-.61,1.41-1.5,1.36a1.4,1.4,0,0,1,.09-2.8C63.81,78.4,64.25,79,64.33,79.83Z"/><path class="cls-1" d="M10.31,73.3V10.08H115.45V73.3ZM63,66.94c13.95,0,25.75-10.65,25.9-24.94C89,27.55,77.3,16.55,63,16.49s-25.91,10.76-26.1,24.9C36.74,55.88,48.76,67,63,66.94Z"/><path d="M63,66.94c-14.2,0-26.22-11.06-26-25.55.19-14.14,11.94-25,26.1-24.9S89,27.55,88.86,42C88.71,56.29,76.91,66.93,63,66.94Zm.7-2.84c7.38-.07,13.9-3.49,18.57-10,5.68-8,4.57-19.27-.91-25.8s-12.57-9.59-21.11-8.71a21.88,21.88,0,0,0-18,12.23,20.45,20.45,0,0,0,1.2,21.84A22,22,0,0,0,51.19,61,24.87,24.87,0,0,0,63.66,64.1Z"/><path class="cls-1" d="M63.66,64.1A24.87,24.87,0,0,1,51.19,61a22,22,0,0,1-7.74-7.37,20.45,20.45,0,0,1-1.2-21.84,21.88,21.88,0,0,1,18-12.23c8.54-.88,15.52,2.07,21.11,8.71s6.59,17.84.91,25.8C77.56,60.61,71,64,63.66,64.1ZM62.82,61A19.67,19.67,0,0,0,82.88,41.88c.1-10.12-8.35-19.32-19.75-19.45-11-.13-19.92,8.42-20,19C43,52.66,52,60.92,62.82,61Z"/><path d="M62.82,61C52,60.92,43,52.66,43.13,41.45c.08-10.6,9-19.15,20-19,11.4.13,19.85,9.33,19.75,19.45A19.67,19.67,0,0,1,62.82,61Zm0-2.85a16.56,16.56,0,0,0,17-16.27c0-9.56-7.61-16.46-16.79-16.57A16.67,16.67,0,0,0,46,41.64C45.9,51,53.82,58.16,62.85,58.14Z"/><path class="cls-1" d="M62.85,58.14c-9,0-17-7.17-16.87-16.5A16.67,16.67,0,0,1,63,25.3c9.18.11,16.83,7,16.79,16.57A16.56,16.56,0,0,1,62.85,58.14Zm1.48-25.5c1.48,1,2.67,1.81,2.73,3.56a1.43,1.43,0,0,0,1.55,1.58c.88,0,1.36-.77,1.27-1.92a6.38,6.38,0,0,0-3-5.13,17.71,17.71,0,0,0-2.53-1.11c0-.58,0-1.17,0-1.77a1.42,1.42,0,1,0-2.84,0c0,.62,0,1.25,0,1.86-.44.15-.78.26-1.11.39A6.57,6.57,0,0,0,56,37.49c.41,2.72,2.18,4.27,4.6,5.27.34.13.84.47.85.73.07,2.36,0,4.72,0,7.13-1.63-.68-2.14-1.43-2.49-3.42a1.67,1.67,0,0,0-1.89-1.49c-1,.17-1.23.87-1.18,1.76a6.23,6.23,0,0,0,4.23,5.76c1.07.43,1.45.91,1.36,2s.52,1.82,1.39,1.83a1.46,1.46,0,0,0,1.41-1.81c-.13-1.22.36-1.7,1.46-2.07a6,6,0,0,0,4.09-5.35A6.4,6.4,0,0,0,67,41.5a15.24,15.24,0,0,0-2.62-1.15V32.64Z"/><path d="M64.33,32.64v7.71A15.24,15.24,0,0,1,67,41.5a6.4,6.4,0,0,1,2.9,6.36,6,6,0,0,1-4.09,5.35c-1.1.37-1.59.85-1.46,2.07a1.46,1.46,0,0,1-1.41,1.81c-.87,0-1.48-.69-1.39-1.83s-.29-1.6-1.36-2a6.23,6.23,0,0,1-4.23-5.76c0-.89.2-1.59,1.18-1.76A1.67,1.67,0,0,1,59,47.2c.35,2,.86,2.74,2.49,3.42,0-2.41,0-4.77,0-7.13,0-.26-.51-.6-.85-.73-2.42-1-4.19-2.55-4.6-5.27a6.57,6.57,0,0,1,4.39-7.42c.33-.13.67-.24,1.11-.39,0-.61,0-1.24,0-1.86a1.42,1.42,0,1,1,2.84,0c0,.6,0,1.19,0,1.77a17.71,17.71,0,0,1,2.53,1.11,6.38,6.38,0,0,1,3,5.13c.09,1.15-.39,1.9-1.27,1.92a1.43,1.43,0,0,1-1.55-1.58C67,34.45,65.81,33.63,64.33,32.64Zm0,18c1.93-.79,2.78-2,2.66-3.78a3.39,3.39,0,0,0-2.66-3.17ZM61.44,32.85A3.64,3.64,0,0,0,59,36.74a3.28,3.28,0,0,0,2.42,3.07Z"/><path class="cls-1" d="M64.37,50.6v-7A3.39,3.39,0,0,1,67,46.82C67.15,48.57,66.3,49.81,64.37,50.6Z"/><path class="cls-1" d="M61.44,32.85v7A3.28,3.28,0,0,1,59,36.74,3.64,3.64,0,0,1,61.44,32.85Z"/></g></g></svg>