<svg xmlns="http://www.w3.org/2000/svg" viewBox="0 0 383.21 399.22"><defs><style>.cls-1,.cls-2,.cls-3,.cls-4,.cls-5{fill:#fff;}.cls-2,.cls-3,.cls-4,.cls-5{stroke:#000;stroke-miterlimit:10;}.cls-2{stroke-width:6px;}.cls-3{stroke-width:3.01px;}.cls-4{stroke-width:1.77px;}.cls-5{stroke-width:0.88px;}</style></defs><title>Recurso 27</title><g id="Capa_2" data-name="Capa 2"><g id="Capa_1-2" data-name="Capa 1"><path d="M151.94,212.34h-4.66c-25.69,0-51.39.08-77.08,0-32.42-.12-59.13-19.89-67.62-50-1-3.69-1.73-7.46-2.58-11.2V136.93c1.51-5.88,2.32-12.05,4.64-17.6,11.28-27,31.63-41.77,61-43.91,1-.07,2-.16,3.11-.26C70.15,47,82.39,25.35,108,13.16s50.16-8.21,72.13,8c9.21-4.86,17.77-10.34,27-14.1,55.64-22.56,120.14,11.4,133.42,70,.55,2.42,1.42,4.07,3.92,5.27,27.37,13.23,42.37,42,37.88,72.29-4.34,29.23-28.13,52.67-58,57a91.11,91.11,0,0,1-12.69.74c-25.2.07-50.39,0-75.59,0h-4.8m-39.62-10.47q59.69,0,119.36,0c2.86,0,5.74-.13,8.59-.37,26.38-2.28,48.13-22.18,52.3-47.82,4.3-26.37-9.35-52.18-33.58-62.71-4.43-1.92-6.52-4.47-7.45-9.12-13.12-65.32-92.27-93.5-143.82-51.27-5.83,4.77-6.65,4.76-12.33-.07C149.24,8.77,110,13.57,90.47,40.81a57.8,57.8,0,0,0-10.9,38c.3,5.38-1.54,7.32-6.88,7.15-1.5,0-3-.16-4.49-.12-22.61.55-39.87,10.64-50.61,30.38S7.69,156,19.67,174.86c11.65,18.4,29.12,27,50.79,27Q131.06,201.93,191.68,201.87Z"/><path class="cls-1" d="M191.68,201.87q-60.62,0-121.22,0c-21.67,0-39.14-8.59-50.79-27-12-18.9-12.75-39-2.08-58.62s28-29.83,50.61-30.38c1.49,0,3,.07,4.49.12,5.34.17,7.18-1.77,6.88-7.15a57.8,57.8,0,0,1,10.9-38c19.51-27.24,58.77-32,84.28-10.32,5.68,4.83,6.5,4.84,12.33.07,51.55-42.23,130.7-14,143.82,51.27.93,4.65,3,7.2,7.45,9.12,24.23,10.53,37.88,36.34,33.58,62.71-4.17,25.64-25.92,45.54-52.3,47.82-2.85.24-5.73.37-8.59.37Q251.36,201.88,191.68,201.87Z"/><path class="cls-2" d="M217.87,69.87l45.32.13a2.45,2.45,0,0,0,.58.45c6.47,2.26,8.93,5.71,8.92,12.56,0,5.79-.09,11.58,0,17.37a20.14,20.14,0,0,0,10,17.79c3,1.86,6,3.65,9.09,5.36,6.81,3.78,13.72,4,20.64.31,5.41-2.86,10.76-5.82,16.17-8.68,6.62-3.48,13.11-1.61,16.73,4.91q9.58,17.25,19,34.59c3.56,6.55,1.67,12.85-4.86,16.42-5.66,3.1-11.39,6.07-17,9.2a18.57,18.57,0,0,0-9.59,12.91,45.58,45.58,0,0,0-.59,9.5,19.72,19.72,0,0,0,10.18,17.64c4.1,2.44,8.33,4.69,12.43,7.13,6.2,3.69,7.88,10.18,4.23,16.44q-9.91,17.07-20,34.06c-3.72,6.3-10.25,8-16.65,4.5-4.18-2.31-8.27-4.78-12.48-7-6.7-3.61-13.48-3.51-20.2,0-2.6,1.36-5.15,2.83-7.64,4.37a19.87,19.87,0,0,0-10,17.5c-.11,6.21,0,12.42-.09,18.63-.08,6.84-4.92,11.75-11.76,11.77q-20.4.06-40.78-.11c-6.95-.05-11.79-5.05-11.81-12,0-6,.06-12.08,0-18.12,0-7.95-3.54-14-10.29-18.13-2.92-1.8-5.9-3.52-8.9-5.2-6.73-3.76-13.55-3.94-20.4-.33-5.41,2.85-10.77,5.8-16.18,8.65-6.88,3.62-13.31,1.71-17.06-5.09q-9.39-17.07-18.7-34.19c-3.64-6.68-1.76-12.93,4.92-16.58,5.52-3,11.08-5.94,16.57-9A19,19,0,0,0,147.59,204a48.32,48.32,0,0,0,.51-9,19.61,19.61,0,0,0-10.18-17.62c-4.11-2.44-8.3-4.73-12.42-7.15-6.11-3.6-7.91-10.11-4.37-16.21q10-17.29,20.22-34.5c3.62-6.12,10.23-7.82,16.5-4.36,4,2.23,8,4.57,12,6.82,6.91,3.88,13.9,3.89,20.88.24,2.53-1.32,5-2.75,7.42-4.25a20.08,20.08,0,0,0,10.09-17.73c.08-6.21,0-12.42.08-18.63a11.41,11.41,0,0,1,7.74-11C216.7,70.44,217.28,70.14,217.87,69.87Z"/><path class="cls-3" d="M99.09,269.75l22.53-2.89a1,1,0,0,0,.32.18c3.36.71,4.8,2.26,5.25,5.66.37,2.88.7,5.76,1.11,8.63a10.08,10.08,0,0,0,6.12,8.19q2.42,1.11,4.87,2.08a10.28,10.28,0,0,0,10.28-1.19c2.5-1.78,5-3.6,7.47-5.37a5.85,5.85,0,0,1,8.63,1.35q5.88,8,11.69,15.95c2.2,3,1.67,6.28-1.34,8.48-2.61,1.9-5.26,3.75-7.86,5.67a9.35,9.35,0,0,0-3.93,7,22.44,22.44,0,0,0,.33,4.76,9.87,9.87,0,0,0,6.2,8.1c2.2.95,4.45,1.79,6.64,2.74a5.69,5.69,0,0,1,3.18,7.89q-3.83,9.12-7.71,18.22a5.83,5.83,0,0,1-8,3.32c-2.23-.87-4.42-1.83-6.66-2.69a10.25,10.25,0,0,0-10,1.31c-1.2.84-2.37,1.74-3.51,2.66a9.93,9.93,0,0,0-3.83,9.35c.34,3.09.8,6.17,1.16,9.26a5.72,5.72,0,0,1-5.08,6.62q-10.12,1.35-20.26,2.59a5.76,5.76,0,0,1-6.65-5.19c-.4-3-.76-6-1.16-9a10.15,10.15,0,0,0-6.3-8.34c-1.57-.7-3.16-1.36-4.76-2a10.11,10.11,0,0,0-10.15,1.16c-2.51,1.77-5,3.58-7.48,5.35-3.18,2.25-6.5,1.72-8.81-1.42q-5.77-7.86-11.51-15.77c-2.24-3.08-1.72-6.31,1.36-8.56,2.55-1.85,5.12-3.67,7.65-5.55a9.47,9.47,0,0,0,4-7.37,23.52,23.52,0,0,0-.33-4.5,9.85,9.85,0,0,0-6.21-8.1c-2.19-.94-4.43-1.81-6.63-2.74a5.66,5.66,0,0,1-3.23-7.77q3.86-9.25,7.8-18.46a5.84,5.84,0,0,1,7.92-3.24c2.15.85,4.28,1.75,6.42,2.61A10.42,10.42,0,0,0,89,297.52c1.17-.82,2.31-1.69,3.41-2.6a10,10,0,0,0,3.86-9.46c-.37-3.09-.8-6.17-1.18-9.26a5.75,5.75,0,0,1,3.14-5.95C98.55,270.1,98.82,269.92,99.09,269.75Z"/><path class="cls-4" d="M237.74,236.58V207.41c-9.91.42-18.25-2.83-24.5-10.67A26.51,26.51,0,0,1,207.36,179a27.28,27.28,0,0,1,9.38-20.15c5.93-5.33,13-7.42,21-7.12,0-3.2,0-6.23,0-9.25,0-4.28,2.81-7.31,6.69-7.27s6.56,3,6.58,7.22c0,3,0,6.06,0,9.07a69.28,69.28,0,0,1,8,.81c11.53,2.48,18.72,9.62,21.75,20.94a6.61,6.61,0,0,1-12.8,3.29c-1.53-5.71-5-9.56-10.73-11a42.32,42.32,0,0,0-6.12-.66V194.1c10.51-.45,19.21,3.23,25.42,12a27,27,0,0,1,4.92,17.2,28.22,28.22,0,0,1-30.42,26.34c0,3.64,0,7.27,0,10.9a12.77,12.77,0,0,1-.15,2.48,6.62,6.62,0,0,1-13.1-1.18c-.06-4,0-8.06,0-12.09-2.84-.28-5.59-.37-8.28-.85A27.55,27.55,0,0,1,207.87,227a6.62,6.62,0,1,1,13-2.61c1.16,5.12,4,8.89,8.95,10.69C232.2,236,234.91,236.08,237.74,236.58Zm0-71.4c-6.29-.8-12.1,1.91-15.06,7.14s-2.87,10.72.69,15.75,8.48,6.51,14.37,6Zm13.41,70.95c6.47.46,11.7-1.44,15-7a13.55,13.55,0,0,0-.33-15.19c-3.42-5.24-8.53-7-14.69-6.43Z"/><path class="cls-5" d="M115.5,347.86V333.47a13.86,13.86,0,0,1-12.09-5.27,13.05,13.05,0,0,1-2.9-8.75,13.44,13.44,0,0,1,4.62-9.94,14.07,14.07,0,0,1,10.4-3.52c0-1.58,0-3.07,0-4.57a3.29,3.29,0,1,1,6.55,0v4.48a35,35,0,0,1,3.94.4c5.69,1.22,9.24,4.74,10.73,10.33a3.26,3.26,0,0,1-6.32,1.63,7.06,7.06,0,0,0-5.29-5.45,20.84,20.84,0,0,0-3-.32V326.9c5.19-.23,9.48,1.59,12.54,5.9a13.3,13.3,0,0,1,2.43,8.49,13.92,13.92,0,0,1-15,13v5.38a6.16,6.16,0,0,1-.08,1.22,3.26,3.26,0,0,1-6.46-.58c0-2,0-4,0-6-1.4-.14-2.76-.18-4.09-.42a13.59,13.59,0,0,1-10.68-10.78,3.26,3.26,0,1,1,6.4-1.28,6.81,6.81,0,0,0,4.42,5.27A22.57,22.57,0,0,0,115.5,347.86Zm0-35.24a7.27,7.27,0,0,0-7.43,3.52,6.82,6.82,0,0,0,.33,7.78c1.72,2.43,4.19,3.21,7.1,2.94Zm6.62,35c3.19.23,5.77-.71,7.41-3.47a6.69,6.69,0,0,0-.16-7.49c-1.69-2.59-4.21-3.45-7.25-3.18Z"/></g></g></svg>