<svg id="Capa_1" data-name="Capa 1" xmlns="http://www.w3.org/2000/svg" viewBox="0 0 646.67 456.33"><defs><style>.cls-1{fill:#726f81;}.cls-2{fill:#967e5b;}.cls-3{fill:#684b28;}.cls-4{fill:#d6d1c9;}.cls-5{fill:#a19eaf;}.cls-6{fill:#3a3a3a;}.cls-7{fill:#606060;}.cls-8{fill:#c3af8e;}.cls-9{fill:#777;}.cls-10{fill:#dcdcdc;}.cls-11{fill:#7f5e32;}.cls-12{fill:#726f82;}.cls-13{fill:#71707f;}.cls-14{fill:#c0c2d9;}.cls-15{fill:#2e2d3b;}.cls-16{fill:#6f6e80;}.cls-17{fill:#353434;}.cls-18{fill:#777684;}.cls-19{fill:#fec6af;}.cls-20{fill:#747181;}.cls-21{fill:#68677a;}.cls-22{fill:#6c697d;}.cls-23{fill:#6b687c;}.cls-24{fill:#686779;}.cls-25{fill:#b0adc0;}.cls-26{fill:#d1d1d1;}.cls-27{fill:#6a697b;}.cls-28{fill:#fefefe;}.cls-29{fill:#0a1444;}.cls-30{fill:#091344;}.cls-31{fill:#f8faf5;}.cls-32{fill:#232231;}.cls-33{fill:#aba8c3;}.cls-34{fill:#fbbaa4;}.cls-35{fill:#4b495f;}.cls-36{fill:#7d7b92;}.cls-37{fill:#575663;}.cls-38{fill:#706f7e;}.cls-39{fill:#0c1545;}.cls-40{fill:#3a3c55;}.cls-41{fill:#8e8295;}.cls-42{fill:#565555;}.cls-43{fill:#32334e;}.cls-44{fill:#b6b6b7;}.cls-45{fill:#afaec2;}.cls-46{fill:#201f2d;}.cls-47{fill:#1f1f2e;}.cls-48{fill:#201f2e;}.cls-49{fill:#e7d4d8;}.cls-50{fill:#f5f7f1;}.cls-51{fill:#939092;}.cls-52{fill:#edeef1;}.cls-53{fill:#191919;}.cls-54{fill:#a3a2a2;}.cls-55{fill:#333232;}.cls-56{fill:#707070;}.cls-57{fill:#919191;}.cls-58{fill:#17367b;}.cls-59{fill:#1a397e;}.cls-60{fill:#01216e;}.cls-61{fill:#061c4e;}.cls-62{fill:#001647;}.cls-63{fill:#091444;}.cls-64{fill:#232330;}.cls-65{fill:#22212f;}.cls-66{fill:#595669;}.cls-67{fill:#18367c;}.cls-68{fill:#062773;}.cls-69{fill:#052772;}.cls-70{fill:#072672;}.cls-71{fill:#162b58;}.cls-72{fill:#031b4c;}.cls-73{fill:#051c4c;}.cls-74{fill:#172c59;}.cls-75{fill:#03226f;}.cls-76{fill:#242433;}.cls-77{fill:#1a387d;}.cls-78{fill:#19387d;}.cls-79{fill:#062772;}.cls-80{fill:#042671;}.cls-81{fill:#0e2352;}.cls-82{fill:#dddddc;}.cls-83{fill:#dbdbdb;}.cls-84{fill:#e7e6e4;}.cls-85{fill:#ddd;}.cls-86{fill:#e7e8ed;}.cls-87{fill:#dfe1ea;}.cls-88{fill:#d5d6d8;}.cls-89{fill:#b9bdd6;}.cls-90{fill:#122c6a;}.cls-91{fill:#d3d4d7;}.cls-92{fill:#102b6a;}.cls-93{fill:#e1e3eb;}.cls-94{fill:#bfc1d8;}.cls-95{fill:#6782c1;}.cls-96{fill:#1f1e2d;}.cls-97{fill:#5a5668;}.cls-98{fill:#aca6c0;}.cls-99{fill:#001547;}</style></defs><title>Escritorio</title><path class="cls-1" d="M1046.69,593.09c0,1.82,0,3.65,0,5.47-.73.5-1.56.24-2.34.24q-153.81,0-307.62,0c-.75,0-1.49,0-2.23,0A1.36,1.36,0,0,1,733,598a7.36,7.36,0,0,0-4.47-3.32c-.61-.21-1.72-.23-1.22-1.47a6.46,6.46,0,0,1,3.11-.31q35.39,0,70.76,0c1.24,0,2.48,0,3.72,0,.25,0,.56.1.62.33.5,2,2,2,3.6,1.93,3-.05,5.92-.11,8.88,0,1.66.07,2.85-.34,3.52-1.92a5.93,5.93,0,0,1,2.92-.31q20.83,0,41.67,0a4.43,4.43,0,0,0,2.54-.3,2.63,2.63,0,0,0,.23-.63,17.79,17.79,0,0,0,.07-2.42q0-63.63,0-127.25a7.67,7.67,0,0,0-.28-3.12c-.48-.63-1.17-.6-1.86-.6q-21.9,0-43.79,0a1.39,1.39,0,0,0-1,.23,4,4,0,0,0-.27.59c-.22,3.66,0,7.32-.1,11,0,2.4-.4,2.79-2.83,2.82-3.72,0-7.44,0-11.16,0a3.49,3.49,0,0,1-2.31-.53,4.46,4.46,0,0,1-.49-2.7q0-35.58,0-71.14a4.54,4.54,0,0,1,.47-2.71,3,3,0,0,1,2.09-.56q5.71,0,11.43,0a3,3,0,0,1,1.93.5,3.41,3.41,0,0,1,.15,1.65q0,22.08,0,44.16c0,.5.15,1,0,1.25,0-15.43,0-31.13,0-46.82a.41.41,0,0,1,.63-.09c.69,1,.48,2.15.48,3.25q0,20.22,0,40.42c0,.56,0,1.12,0,1.68-.11,1.47.47,2.24,2,2.1.31,0,.62,0,.94,0h41c3,0,3,0,3-3q0-20.38,0-40.79a7.4,7.4,0,0,1,.36-3.3,2.5,2.5,0,0,1,2.3-.95c4-.05,7.91,0,11.87,0,1.58,0,2.64.62,2.63,2.39.13,4.58.09,9.16,0,13.73,0,1.39.26,2.8-.33,4.14-.6.69-1.44.6-2.23.62-1.61,0-3.21-.06-4.82.05s-1.81.66-.88,2.09a7,7,0,0,0,2.42.15q18,0,36,0a5,5,0,0,1,2.74.34.46.46,0,0,1,.12.63c-.93.69-2,.5-3,.5q-17.58,0-35.14,0c-.62,0-1.24,0-1.86,0-1.36-.05-1.87.63-1.85,1.93,0,3.66-.08,7.31.09,11-.25,3.48-.25,3.44,3.21,3.5,1.76,0,3.56-.32,5.29.32.66,1.22.2,2.56.42,3.82-.2,4.5,0,9-.11,13.49a5.62,5.62,0,0,1-.4,3.06c-.22.1.09,0-.14.12-2.8,1.11-2.75,1.11-2.82,4.39,0,2,.29,4.07-.17,6.08a3.24,3.24,0,0,0-.91,2.53q0,16,0,32a2.87,2.87,0,0,0,.83,2.36c.56,2.21.08,4.45.26,6.67-.06.65-1.07.45-1.06,1.18-.09,11.32,0,22.63,0,33.95a4.08,4.08,0,0,0,.76,2.44,12.6,12.6,0,0,1,0,6.48,4.49,4.49,0,0,0-.73,2.83q0,17.15,0,34.3c0,2.3.19,2.44,2.86,2.44q34.39,0,68.78,0c10.19,0,20.39-.08,30.58.05,2.27-.06,4.54-.07,6.82,0,11.9-.1,23.79,0,35.69,0a17.34,17.34,0,0,1,2,0c1.68.19,2.73-.43,3.06-2.13a.64.64,0,0,1,.61-.29h0c3.62.45,7.26.06,10.88.21C1044.26,592.92,1045.51,592.58,1046.69,593.09Z" transform="translate(-400.02 -152.74)"/><path class="cls-2" d="M1037.35,411.16c-1.33,4.47-2.15,9.06-3.19,13.61-2.31,10.06-4.56,20.15-6.83,30.22a7,7,0,0,0,0,1.12c-.36.49.14,1.18-.38,1.64a3.58,3.58,0,0,1-2.32.5q-13.68,0-27.35,0c-1.25,0-2.54,0-3.05-1.52-.84-5.25-1.17-10.57-1.72-15.86-.84-8.12-1.74-16.24-2.46-24.37-.16-1.85-1-3.75,0-5.62a5.94,5.94,0,0,1,3.22-.43c2.51,0,5,0,7.52,0s5,0,7.46,0c3.28,0,6.55,0,9.83-.06a6.94,6.94,0,0,0,2.9.47c4.89,0,9.78,0,14.67,0C1036.19,410.88,1036.86,410.59,1037.35,411.16Z" transform="translate(-400.02 -152.74)"/><path class="cls-3" d="M437.29,396.17H422.37a1.19,1.19,0,0,1-.69.18c-5.09-.11-10.18-.07-15.27,0-1.37,0-1.85-.31-1.78-1.74.19-3.84-.16-7.68.19-11.52.68-3,2.78-4.38,5.63-4.89,5.24-.32,10.5-.05,15.75-.15a6.63,6.63,0,0,0,2.39-.16,22.61,22.61,0,0,1,5.39-.2q7.41-.12,14.81,0c8.13-.09,16.26,0,24.39,0,1.2,0,2.39,0,3.11-1.19,1.12-.21,1,.72,1,1.27.5,5.43,1.42,10.8,2.13,16.2.11.86.27,1.74-.5,2.43a4.17,4.17,0,0,1-2.17.38q-18.15,0-36.29,0a3.71,3.71,0,0,1-2.49-.56l-.18,0-.18,0C437.53,396.32,437.41,396.31,437.29,396.17Z" transform="translate(-400.02 -152.74)"/><path class="cls-4" d="M1008.31,410.94h-7.55a8.59,8.59,0,0,1-3.21-2.77c-5-5.82-8.46-12.39-9.51-20.09a1.44,1.44,0,0,1,.09-1.08c.53-1.14-.08-2.4.36-3.54l.06-1c.36-.61,0-1.33.3-1.94,1-6.69,3.86-12.6,7.61-18.07,2.76-4,1.7-4.49,5.94-.6A43.52,43.52,0,0,1,1014,378.12c.17.45.39.94,1,.9,2.59,7.7,1.75,15.23-1.15,22.67a45.75,45.75,0,0,1-3.83,7.63A3.3,3.3,0,0,1,1008.31,410.94Z" transform="translate(-400.02 -152.74)"/><path class="cls-5" d="M878.45,290.22a2.85,2.85,0,0,1,1-1.93c1.93-1.28,3.84-.58,5.71.08a25.71,25.71,0,0,1,7.23,4.17,2.06,2.06,0,0,1,.91,1.35,2.48,2.48,0,0,1-.76,1.45c-2.07,2.63-2.16,5.61-.26,8a6.88,6.88,0,0,0,8.26,1.81,18.71,18.71,0,0,1,2.26-1.28c.84.12,1.21.81,1.61,1.4a22.69,22.69,0,0,1,3.37,7.32,5.08,5.08,0,0,1-.13,3.42,3.23,3.23,0,0,1-2,1.79,10.69,10.69,0,0,1-5.14-.43c-1.83-.71-1.94-.66-2.45,1.18q-2.32,8.25-4.6,16.52c-3.36,12.29-6.84,24.54-10.17,36.84-.55,2-1.23,3.94-2.93,5.29-.65.51-1.3,1.28-2.28.56a.9.9,0,0,1,.13-.71c1.95-3.41,1.45-5.09-2.05-6.76a8.5,8.5,0,0,0-2.41-.13c-9.58,0-19.17,0-28.76,0-1,0-2,.28-2.78-.62-.38-1.62.69-2.82,1.25-4.16.74-1.71.67-1.87-1.22-1.87-10,0-19.93,0-29.89,0-4.33.12-8.66,0-13,0a3.39,3.39,0,0,1-1.8-.35c-.42-.25-.42-.56,0-.85a4.26,4.26,0,0,1,2-.35c4.45,0,8.89,0,13.34,0,10.67-.07,21.34-.05,32,0,11.62.15,23.23,0,34.85.07,1.48,0,1.85-.89,2.17-2.05q4.1-14.82,8.22-29.63,2-7.19,4-14.36a2.41,2.41,0,0,0-1-3,40.28,40.28,0,0,1-6.33-5.77,4.59,4.59,0,0,0-3.8-1.57,35.06,35.06,0,0,1-4.1,0c-.64-.05-1.5,0-1.57-.92a1.66,1.66,0,0,1,1.33-1.79,8.32,8.32,0,0,1,2.59-.16c1.42,0,1.46-.53.76-1.53-.57-.82-1.13-1.64-1.63-2.5a2.44,2.44,0,0,0-2.32-1.27,7.77,7.77,0,0,1-2-.14,1.48,1.48,0,0,1-.52-.29,3.38,3.38,0,0,1,1.57-3.76l0-.08c.85-.13,1.5-.4,1.33-1.49A2.45,2.45,0,0,1,878.45,290.22Z" transform="translate(-400.02 -152.74)"/><path class="cls-6" d="M909.23,276.59c1-1.53,2.88-1.4,4.33-2.07a9,9,0,0,1,3.72,0c1.06.57,2.26.75,3.33,1.35.83.47,3-1.91,3-3.19a4.73,4.73,0,0,1,0-2.61c.37-2.62,2.3-3.68,4.49-4.49a4.88,4.88,0,0,1,2.6,0c3,1,5.15,2.65,4.89,6.19-.06.77.58.86,1,1.14q18.1,12.11,36.2,24.2c1.6,1.07,2.77-.37,4.16-.55a12.21,12.21,0,0,1,4.09,0c3.22,1.21,5.68,3.05,6.39,6.73a7.94,7.94,0,0,1-6.42,9.25c-2.15.34-2.7,1.47-3.2,3.12q-4.71,15.36-9.45,30.72-5.45,17.64-10.92,35.26c-.11,1.31-1.11.9-1.83.89-1,0-2.07,0-2.2-1.42.25-2.63,1.31-5,2.07-7.52q6.91-22.33,13.84-44.66c1.55-5,3.07-10,4.64-14.95a2.32,2.32,0,0,0-.76-2.78,8.26,8.26,0,0,1-2.79-8.72,2.09,2.09,0,0,0-1-2.51l-34.11-22.73a1.94,1.94,0,0,0-2.24-.28,7.75,7.75,0,0,1-4.9.64c-2.72-.26-3.67.86-3,3.46a8.8,8.8,0,0,1-2.89,9.72c-1.36.29-1.29-.86-1.56-1.6a18.9,18.9,0,0,0-8.7-10.52C911.09,277.91,909.76,277.81,909.23,276.59Z" transform="translate(-400.02 -152.74)"/><path class="cls-7" d="M727.11,593.73c2.83.85,5.66,1.71,6.71,5a5.78,5.78,0,0,1,0,2.92l-.84,1.8a2.94,2.94,0,0,1-2.43.66q-25.72,0-51.46,0c-1.15,0-2.47.14-2.81-1.48-.29-3.87,0-7.75-.22-11.62.25-1.34-.2-2.81.68-4.05a13.6,13.6,0,0,1,4.93-.72q4.36-.26,8.73-.41c4.84-.17,9.67-.56,14.51-.54a14.82,14.82,0,0,1,3.82,1.58c.5.71-.13,1.12-.45,1.6-1.07,1.6-2.57,2.82-3.7,4.37a10.61,10.61,0,0,0,2.45-2.33c1-1.16,1.84-2.5,3.42-3a4.33,4.33,0,0,1,3,1.2c-.06,1.58-1.4,2.36-2.22,3.46a22.82,22.82,0,0,0-2.15,2.52,8.83,8.83,0,0,0,2.08-2c1.26-1.38,2.3-3,4.06-3.88,1,.66,2.28.79,3.29,1.46.35.92-.41,1.35-.89,1.84-1.6,1.63-2.89,3.53-4.51,5.15,2.16-1.53,3.54-3.83,5.51-5.53.46-.4.71-1,1.44-1.08,1.44.6,3,1,4.41,1.64a12.14,12.14,0,0,0,1.19.45C726.18,593,726.8,593.13,727.11,593.73Z" transform="translate(-400.02 -152.74)"/><path class="cls-8" d="M1008.31,410.94c4.8-6.93,7.69-14.53,7.77-23a22.82,22.82,0,0,0-1.06-6.75,3.15,3.15,0,0,1,0-2.14c6.08-5.71,13.59-8.36,21.53-10.09.78-.17,1.56-.31,2.35-.47.93,0,.31.94.7,1.28l.06.65c.41,1-.11,2.09.31,3.09l.06,1.76a7.73,7.73,0,0,1,0,3.35l-.06,1.74c-.41,1,.11,2.1-.32,3.11a67.81,67.81,0,0,1-2.51,9.37c-2.77,7-7.75,12-14.27,15.56-1.23.67-2.49,1.3-3.74,1.95-.34.29-.67.56-1.16.38C1014.75,411.33,1011.53,410.93,1008.31,410.94Z" transform="translate(-400.02 -152.74)"/><path class="cls-9" d="M953.81,380.8c.43,1.31,2.14,1.67,3.64.77.17.55.62.52,1,.52l8.64-.1q.33.28-.06.48c-2.93.07-5.86,0-7.77,0,2.39-.12,5.8.28,9.2-.24a1.25,1.25,0,0,1,1,0l4.37,1.6a.3.3,0,0,1,.06.51,2.76,2.76,0,0,0-.91,2.32,35.43,35.43,0,0,0,.76,5.89c.13.82.52,1.72-.44,2.36a8.27,8.27,0,0,1-3.13.29c-10.65,0-21.3.06-32,0-6.41.08-12.83,0-19.25,0a5.35,5.35,0,0,1-1.64-.2,1.46,1.46,0,0,1-.55-.36c-.52-.91-.14-1.82.05-2.71a12.63,12.63,0,0,1,13.37-10.12,30.68,30.68,0,0,0,11-.2c2.56-.5,5.14-.17,7.71-.24A13.15,13.15,0,0,0,953.81,380.8Z" transform="translate(-400.02 -152.74)"/><path class="cls-4" d="M909.23,276.59l2.88,1.58c1.85,2.64,2.13,5.68,1.87,8.72a19.18,19.18,0,0,1-7.23,13.77c-1.25,1-2.2,2.38-3.76,3a.78.78,0,0,1-1-.28c-2.64-3.46-6.09-6.16-8.87-9.5a24.13,24.13,0,0,0-10.24-5.7c-1.24-.3-2.32.24-3.48.11,3.64-3.15,7.14-6.45,11-9.38,2.45-1.88,5.38-2.52,8.26-3.28a31.17,31.17,0,0,1,6.69,0Z" transform="translate(-400.02 -152.74)"/><path class="cls-2" d="M973.6,394.64c-.45-2.94-1.26-5.83-1.17-8.86,0-1.15.28-1.78,1.53-1.64a4,4,0,0,1,2.24,0,61,61,0,0,1,11.48,2.7c.21.06.43.1.48.37.68,1.09.63,2.36.87,3.56,1.43,7,5,12.78,9.71,18,.66.74,1.35,1.45,2,2.16L990,411c-1.27.85-2.61.55-4,.21a11.89,11.89,0,0,1-1.78-1,21.66,21.66,0,0,1-8.4-8.91C974.89,399.19,973.51,397.17,973.6,394.64Z" transform="translate(-400.02 -152.74)"/><path class="cls-10" d="M814.67,225.72c1.68,0,3.35-.06,5,0,3.46.07,5.75,2.17,7,6.33a2.65,2.65,0,0,1,.16,1.45q0,29.47,0,58.94a2.55,2.55,0,0,1-.07.73c-2,1.06-4,.77-6.09.19-.82-1-.57-2.25-.57-3.41q0-27,0-54c0-.75,0-1.49,0-2.24a6.74,6.74,0,0,0-4.5-7C815.19,226.45,814.7,226.31,814.67,225.72Z" transform="translate(-400.02 -152.74)"/><path class="cls-6" d="M676.71,602.38c0,.52,0,1,.76,1H679l54,0a3.22,3.22,0,0,1-2.54,3.36c-8.95.14-17.89,0-26.84.06h-25a4.53,4.53,0,0,1-2.54-.38c-.4-.75-1.11-.39-1.67-.39C664.21,606,654,606,643.83,606a5.39,5.39,0,0,0-3.63,1.3c-4,3.16-10,2.25-11.62-3.42a3.17,3.17,0,0,1,.1-2.4,2.23,2.23,0,0,1,1.24-.38c4.28,0,8.56-.21,12.85.11a15.39,15.39,0,0,0,4.79.21c9,0,18.05,0,27.07.38A3,3,0,0,1,676.71,602.38Z" transform="translate(-400.02 -152.74)"/><path class="cls-11" d="M433.94,378.22l-5.31,0c-.17-.23-.12-.53-.25-.76l-.09-1.08c-.32-.61.07-1.33-.3-1.93l-.07-1.05c-.33-.61.06-1.34-.3-1.94l-.07-1.05c-.33-.61.06-1.33-.3-1.94l-.07-1c-.33-.62.05-1.34-.3-1.95l-.07-1c-.33-.62.05-1.35-.3-2l-.08-1c-.33-.61.06-1.34-.29-1.95l-.44-4c-.35-.62,0-1.35-.31-2l-.07-1c-.38-.72.1-1.56-.32-2.28l-.07-1.08c-.32-.6.08-1.31-.3-1.9l-.07-1.08c-.32-.6.08-1.32-.3-1.9l-.05-.7c-.39-.73.09-1.58-.32-2.31-.43-1.36-.13-2.07,1.48-1.76a1.14,1.14,0,0,0,1.28-.43,14.47,14.47,0,0,1,3.48,0c.68.17,1.47,0,2,.61.8,2.38.7,4.87.86,7.32.4,6,.68,12.09,1,18.14.2,3.82.56,7.65.53,11.48C434.53,377.19,434.6,377.84,433.94,378.22Z" transform="translate(-400.02 -152.74)"/><path class="cls-12" d="M572.33,601.5l-.09-2.49a1.89,1.89,0,0,0-1.26-.19c-11.34,0-22.68,0-34,0a1,1,0,0,1-.94-.74,32.59,32.59,0,0,0-1.62-3.5c-.29-.54-.53-1.16.29-1.54a7.22,7.22,0,0,1,2.22-.17q17.43,0,34.85,0a4.39,4.39,0,0,1,2.71.4,1.09,1.09,0,0,1,.08,1.38,10.69,10.69,0,0,0-1.43,6.05,1.53,1.53,0,0,1-.31.86Q572.5,601.89,572.33,601.5Z" transform="translate(-400.02 -152.74)"/><path class="cls-3" d="M534.19,593.43a12.07,12.07,0,0,1,2.38,5.28,1.15,1.15,0,0,1,.1.35c.11,2.63.11,2.63-2.46,2.74a1.15,1.15,0,0,0-.68.19c-.21.47.08,1.08-.39,1.48a3,3,0,0,0-2.86-1.32c-2.36.07-4.73.12-7.08,0-1.7-.1-3.13.15-4.09,1.69l-.18-1.84c-.5-.51-1.33.19-1.79-.47a9.89,9.89,0,0,1,2.57-8.49c.47-1.19,1.59-1.55,2.61-2a12.15,12.15,0,0,1,8.86,0,11.16,11.16,0,0,1,2.73,1.73A1,1,0,0,1,534.19,593.43Z" transform="translate(-400.02 -152.74)"/><path class="cls-3" d="M572.7,601.54c-.22-2.78,0-5.45,1.86-7.72a2.07,2.07,0,0,1,.57-.91l.35-.28c.22-.21.42-.45.66-.65s.56-.44.85-.63a12.53,12.53,0,0,1,10-.27,18.57,18.57,0,0,1,2.62,1.69,5.85,5.85,0,0,1,.61.61c1.22,1.68,2.33,3.39,2.11,5.61a1.59,1.59,0,0,0-.06.37c-.08,2.35-.08,2.35-2.5,2.44a1.05,1.05,0,0,0-.69.19c-.22.34,0,.84-.36,1.12a3.76,3.76,0,0,0-2.91-1c-2.23,0-4.47.06-6.71,0-1.74,0-3.44-.13-4.44,1.69l-.13-.73C574.64,601.74,573.43,601.92,572.7,601.54Z" transform="translate(-400.02 -152.74)"/><path class="cls-13" d="M814.67,225.72l.79.36c-.07.77-.71.76-1.23.87a9.63,9.63,0,0,1-1.86.09q-78.54,0-157.09,0c-1.08,0-2.4.49-3.14-.88a4.19,4.19,0,0,1,2.51-.39l18.72-.08c.37,0,.74.07,1.11.07Z" transform="translate(-400.02 -152.74)"/><path class="cls-14" d="M877,293.25a12.9,12.9,0,0,0-1.53,3.58,2.25,2.25,0,0,1-2,.67q-14.34,0-28.66,0a3.93,3.93,0,0,1-1.28-.19c-.93-.39-.85-1.12-.59-1.86a8.71,8.71,0,0,1,1-2.18.45.45,0,0,1,.57-.12l29.71.05C875.17,293.2,876.1,293.23,877,293.25Z" transform="translate(-400.02 -152.74)"/><path class="cls-6" d="M574.65,603.84c0-2.24,1.37-2.33,3.14-2.26,3.15.13,6.31.09,9.46,0,1.18,0,1.57.43,1.46,1.51-.28,2.9-2.34,5-5.57,5.77C579.17,609.79,575.15,607.21,574.65,603.84Z" transform="translate(-400.02 -152.74)"/><path class="cls-6" d="M519.11,603.83c-.07-2.14,1.2-2.32,2.94-2.25,3.08.13,6.18.12,9.26,0,1.51-.05,2,.48,1.83,1.89-.62,3.24-3.14,5.34-6.81,5.52S520.25,607.55,519.11,603.83Z" transform="translate(-400.02 -152.74)"/><path class="cls-15" d="M430.22,339.41c-1.2-.08-2.47.54-3.57-.38-.55-2.43-1.14-4.85-1.64-7.28-.47-2.26-.73-4.56-1.3-6.79-.17-.67.2-1.36-.25-1.94a3.41,3.41,0,0,1,0-2.23,3.3,3.3,0,0,1,.13-.71c.21-.5.34-1.27.72-1.43.78-.32.86.66,1.26,1.06,2.08,2.11,1.51,5.06,2.33,7.57a37,37,0,0,1,.85,4A13.56,13.56,0,0,1,430.22,339.41Z" transform="translate(-400.02 -152.74)"/><path class="cls-16" d="M421.63,592.68a.5.5,0,0,0,.34-.07c.13.08.17.16.15.26s-.07.14-.1.14c-.53.64-1.27.39-1.92.39-5.84,0-11.68.06-17.52,0-1.5,0-2,.46-1.85,1.91a12.82,12.82,0,0,1,0,1.86c0,.79.33,1.14,1.11,1.11.56,0,1.12,0,1.68,0q55.25,0,110.5,0c.78,0,1.62-.29,2.33.32-.57.4-1.21.21-1.81.21q-56.34,0-112.67,0c-.61,0-1.36.4-1.86-.36a24.71,24.71,0,0,0,0-5.23c.44-.67,1.12-.33,1.68-.33,6,0,12.08,0,18.13,0a3.4,3.4,0,0,0,1.81-.17Z" transform="translate(-400.02 -152.74)"/><path class="cls-2" d="M614.73,265.16c2.45,1.71,5.14,3,7.5,4.9a40.39,40.39,0,0,1,14.9,24.07,30.64,30.64,0,0,0,2.41,5.95c2.18,5,4.6,9.85,6.92,14.76a2.33,2.33,0,0,1,.91,1c3.19,6.67,6.16,13.45,9.39,20.11,1.24,2.3,2.17,4.74,3.36,7.07,3,5.89,8.33,8.75,14.87,7.91a23.8,23.8,0,0,1,3.16-.15c9.19,0,18.39,0,27.59,0,3,0,5.93-.56,8.92-.41,2.53.14,2.89.45,2.87,3,0,3.66,0,7.33,0,11a7.43,7.43,0,0,0,.29,2.39c.29,3.15.13,6.3.11,9.46a4.27,4.27,0,0,1-.3,2.12,2.36,2.36,0,0,1-2.17.78c-2,0-4,.07-5.93,0-6.81.11-13.62,0-20.43,0a46.3,46.3,0,0,0-6.86.34c-5.73-.11-11.49.38-17.18-.75a39.18,39.18,0,0,1-10.71-3.48c-1.52-.83-3.13-1.5-4.56-2.47-1-.71-1.25-.21-1.25.77q0,6.21,0,12.42a9.32,9.32,0,0,1-.16,2.58,1.22,1.22,0,0,1-.36.5c-1.21-.44-.87-1.51-.88-2.36,0-4.34-.1-8.69,0-13a5.16,5.16,0,0,0-2.22-4.61,25.09,25.09,0,0,1-4.83-4.88c-.65-.82-1.22-1.7-1.94-2.56-.25.46-.06,1-.23,1.38s-.18,1-.84.54a2.13,2.13,0,0,1-.41-1.6c.33-2.15-.72-3.77-1.8-5.49-5.17-8.23-9.14-17.08-13-26a2.8,2.8,0,0,1-.32-1.22c1,9.47,1.75,19.15,2.6,28.82q1.41,15.85,2.78,31.72t2.84,31.9c.39,4.27.73,8.54,1.14,12.8.18,1.77-.7,2.74-2.22,3.45a97.55,97.55,0,0,1-28.9,8.31,203.14,203.14,0,0,1-27.9,1.14c-2.42,0-3.07-.65-3.15-3.13-.25-8-.81-16-1.21-24-.52-10.29-1.05-20.57-1.49-30.86q-.37-8.57-.74-17.11c-.48-10.91-.85-21.83-1.17-32.75-.13-4.28-.3-8.56-.24-12.84.06-3.92-.49-7.82-.39-11.73.23-9.68.27-19.37,1.87-29a66.33,66.33,0,0,1,4.84-16.79c.23-.51.51-1,.74-1.5,1.27-2.76,3.18-3.95,6.43-3.87,10.38.22,20.76.08,31.13.07.79,0,1.63.19,2.32-.42.85-1.31.26-2.78.43-4.16.1-.82-.22-1.76.85-2.44,1.26,2.08.07,4.51,1.05,7a13,13,0,0,0,.29-4c0-1.92-.06-3.84.06-5.76.05-.61-.2-1.59,1-1.54C615.08,256.78,614.76,261,614.73,265.16Z" transform="translate(-400.02 -152.74)"/><path class="cls-17" d="M614.73,265.16c-.6-2.26-.15-4.55-.25-6.83-.08-1.92,0-3.85-.06-5.78a12.43,12.43,0,0,1-3.8-.1c-1.08-.22-1.58.26-1.62,1.36s.2,2-.46,2.83c-1.31-.19-.88-1.27-.94-2-.18-2.49-.14-2.5-2.6-2.73-.73-.07-1.45-.21-2.17-.31a5.26,5.26,0,0,1-2.25-.37c-.93-.75-.84-1.78-.75-2.81,1.08-9.93,2.88-19.76,4.51-29.62a9.16,9.16,0,0,0,.27-3c0-4,0-8.07,0-12.11,0-2.49-.91-3.25-3.33-3a7.91,7.91,0,0,0-7.13,5.44,8.36,8.36,0,0,0,2.11,8.94c.55.59,1.25,1,1.76,1.65a1.25,1.25,0,0,1-.09,1.4,49.69,49.69,0,0,1-8.41,11.69,1.18,1.18,0,0,1-.8.41c-7.76-2.49-13.66-7.65-18.7-13.71a74,74,0,0,1-15.3-30.16,8.39,8.39,0,0,0-.61-2.51,42.34,42.34,0,0,1,7.23-15.26c5.62-7.43,13.24-11.84,22.16-14.14,1.85-.48,3.73-.83,5.6-1.23.62-.32,1.34.07,1.94-.3l1.42-.07a48.69,48.69,0,0,1,8.19,0l2.14.07c.61.34,1.33,0,2,.28,10.88,1.57,19.37,8.13,28.23,13.79a16.06,16.06,0,0,1,6.83,10.23c.11.48.28.94.42,1.41.31.64,0,1.37.29,2a4.28,4.28,0,0,0,0,1.95c-.36.75.07,1.61-.31,2.36a28.91,28.91,0,0,1-4.13,9c-1-.24-.76-1.12-.87-1.8a32.15,32.15,0,0,0-9.36-17.73c.63,4.12.41,7.82-2.15,11-1.66,2.06-3.89,3.46-6,5-.75.55-1.57,1-2.29,1.6a6.05,6.05,0,0,0-2.45,3.43c-1.15,6.39-1.91,12.82.18,19.16a19.13,19.13,0,0,0,18.22,13.46c.82,0,1.79-.22,2.28.8a30.84,30.84,0,0,1-.15,4.9l-.06,2.84c-.41,1.64.08,3.34-.28,5-1.94,6.79-7.18,9.33-13.49,10.49-.9.36-1.88-.08-2.77.3-.68.13-1.53-.59-2,.42a112.66,112.66,0,0,1,0,11.91C614.83,264.94,614.78,265.05,614.73,265.16Z" transform="translate(-400.02 -152.74)"/><path class="cls-18" d="M656.13,335.76q-4.61-9.93-9.2-19.87a2.23,2.23,0,0,0,.2-.68,6.65,6.65,0,0,0,.13-1.66q0-40.33,0-80.67a7.25,7.25,0,0,0,0-.93,1.16,1.16,0,0,1,0-1,5.73,5.73,0,0,1,4.89-4.78c.66.53,1.43.28,2.15.29q79.51,0,159,0c.72,0,1.51.28,2.14-.33,3.42.88,5.21,3.3,5.21,7.14v60c-.64.64-1.47.49-2.25.53a8.58,8.58,0,0,0-2.81.73c-.52.22-1.12.67-1.59-.12a9.3,9.3,0,0,1-.27-3.32q0-27.19,0-54.38v-.74c0-3.63,0-3.63-3.54-3.64-9.44,0-18.87.05-28.31,0-15.22.07-30.43,0-45.65,0q-1.4,0-2.79-.06a25.27,25.27,0,0,1-2.61.06H657.93c-3.72,0-3.72,0-3.72,3.66v89.5c0,3.7,0,3.7,3.67,3.71,10.38,0,20.76-.06,31.14,0,15.87-.06,31.73,0,47.59,0,3.54.17,7.07.06,10.61.07q17.49,0,35,0c.9,0,2.11-.36,2.56.59s-.62,1.63-1.15,2.34a15.32,15.32,0,0,1-3.43,3.39,2.46,2.46,0,0,1-.69.24,20.07,20.07,0,0,1-2.79.15q-59.26,0-118.54,0A8.63,8.63,0,0,1,656.13,335.76Z" transform="translate(-400.02 -152.74)"/><path class="cls-19" d="M633.43,228.69a20.1,20.1,0,0,1-21.38-15.85c-1.31-5.72-.62-11.49.28-17.21a6.52,6.52,0,0,1,2.92-4c1.63-1.23,3.32-2.4,5-3.58,4.63-3.26,6.24-7.67,5.09-13.17-.08-.36-.12-.73-.17-1.09,0-.06,0-.12.11-.31a25.62,25.62,0,0,1,6.42,7.62,29.64,29.64,0,0,1,4.11,12.25,2.25,2.25,0,0,0,.27.67c-.4.61.07,1.19,0,1.79a.44.44,0,0,1-.15.56c-2,.71-4,.22-6.05.35a12.86,12.86,0,0,0-2.4.16,1.37,1.37,0,0,0,0,2.71,15.33,15.33,0,0,0,3,.16c1.83.12,3.7-.33,5.5.36a.4.4,0,0,1,.12.55h0c-.52,1.33.1,2.76-.35,4.09,0,1,0,2,0,3a2.35,2.35,0,0,0,0,1.94c1.26,2.8,3.12,5.3,3.86,8.37s-.54,5.51-3.72,5.65c-1.88.09-2.22.78-2,2.32-.42.58,0,1.31-.34,1.89v.4c.1.11.12.2.06.28S633.47,228.69,633.43,228.69Z" transform="translate(-400.02 -152.74)"/><path class="cls-20" d="M434.31,339.41c.19-1.18-.56-1.21-1.39-1.14,0-.81-.08-1.61-.08-2.42q0-54.53,0-109c0-1,0-2,0-3,.57-3.89,3.11-6.14,7.14-6.29,2-.08,4-.09,6-.14a4.84,4.84,0,0,1,1.47-.09q54,0,108,0a8.43,8.43,0,0,1,1.12,0,.4.4,0,0,1,.11.63,3,3,0,0,1-1.94.48c-11.39,0-22.79.07-34.18,0-11.13-.1-22.25,0-33.38,0h-39.9a12.56,12.56,0,0,0-2.6.11c-3.49,1.18-4.82,3.1-4.82,7q0,48.27,0,96.56c0,4.23.05,8.45-.15,12.67-.67,1.54.2,3.32-.77,4.81A4.67,4.67,0,0,1,434.31,339.41Z" transform="translate(-400.02 -152.74)"/><path d="M556.61,217.78l-.08-.41a.31.31,0,0,1-.22-.28,36.73,36.73,0,0,1-2.68-9.69c-.38-.6.06-1.34-.33-1.93l-.06-.68c-.34-.77,0-1.63-.3-2.4l-.08-2.45a18.59,18.59,0,0,1,0-4.83l.09-2.82c.39-.9-.08-1.89.32-2.78l.84-5.6c.92.12.71,1,.82,1.47a74.34,74.34,0,0,0,13.36,28.35c4.56,6.14,10.09,11.4,17.13,14.81,1.09.53,2.47.45,3.29,1.55.35.78-.29,1.14-.72,1.51a58.1,58.1,0,0,1-8.4,6.68,21.19,21.19,0,0,1-4,2.22c-1.82.4-2.79-1.08-4.09-1.84a83.67,83.67,0,0,1-6.51-6.4c-1.31-1.6-2.53-3.26-3.74-4.93a4.17,4.17,0,0,1-.29-.44,56.35,56.35,0,0,1-4.1-7.56C556.64,218.85,556.3,218.37,556.61,217.78Z" transform="translate(-400.02 -152.74)"/><path class="cls-17" d="M636.08,200.38c-2.67,0-5.33-.06-8,0-1.45,0-2.49-.52-2.48-2.08s1-2.08,2.49-2.07c2.66,0,5.32,0,8-.05a3.38,3.38,0,0,1,1.84,0c2.14,1.8,2.14,2.42,0,4.21A3,3,0,0,1,636.08,200.38Z" transform="translate(-400.02 -152.74)"/><path class="cls-8" d="M479.06,396.13c-.38-3.16-.73-6.32-1.15-9.47a68.5,68.5,0,0,1-1.1-9.47,2.37,2.37,0,0,0-.32-.83c-.86-.62-.84-1.59-1-2.5-.86-6-1.62-12-2.5-18-.64-5.19-1.4-10.37-2.11-15.56a19,19,0,0,1,.19-4.59,4.34,4.34,0,0,1,.11-.59,19.92,19.92,0,0,1,2.7-6.2,6.78,6.78,0,0,1,.53-.67,17.21,17.21,0,0,1,8.65-6,4.68,4.68,0,0,1,2.91-.17c8.67.15,17.34,0,26,.06,5.39,0,10.78,0,16.17,0a6.58,6.58,0,0,1,2.38.2c.91,1.24-.42,1.44-1,1.81a11.38,11.38,0,0,0-5.07,7.7,14.91,14.91,0,0,0,.36,5q4.33,30.26,8.68,60.48,5.16,36,10.29,71.92a74.58,74.58,0,0,0,2.08,9.46,13.23,13.23,0,0,0,9.89,9.68c1.27.34,1.27.33,1.33,1.24a3.4,3.4,0,0,1-2,.32c-7.21-.72-14.44-.14-21.66-.39-9.46.37-18.91-.46-28.37-.37a2.82,2.82,0,0,1-2.65-1c-.18-.25-.43-.21-.68-.17a.24.24,0,0,1-.37-.06c-7.77-2.89-11.09-8.83-12-16.76-.94-8.51-2.25-17-3.42-25.48a3,3,0,0,0-.25-.69c-.24-.12-.24-.24,0-.36a.59.59,0,0,0,0-.35,5.32,5.32,0,0,1-.88-2.81c-2-14.14-3.89-28.29-5.89-42.43C478.86,398.08,478.49,397.08,479.06,396.13Z" transform="translate(-400.02 -152.74)"/><path class="cls-1" d="M519.24,592.66a8.05,8.05,0,0,0-2.59-.22c-3.41,0-6.83,0-10.25,0-3.61,0-3.61,0-3.61-3.56V491.43a22.23,22.23,0,0,0-.06-3.16c-.26-.58-.59-.78-1.07-.21,0,.31,0,.62,0,.94q0,50.7,0,101.42c0,.11,0,.22,0,.34V488.35c0-1-.88-1.26-1.59-1.6a16.57,16.57,0,0,1-9.65-13.41c-1.22-8.83-2.37-17.67-3.69-26.49-.14-.89-.1-2-1.41-2.05h-.48a2.89,2.89,0,0,0,.93-.1.44.44,0,0,0-.09-.63,5.76,5.76,0,0,0-3.09-.43H442.14c-.56,0-1.12,0-1.68,0-1.23.05-1.87-.45-1.81-1.74,0-.62,0-1.24,0-1.86q0-20.29,0-40.6c0-1.09.21-2.25-.48-3.25a.41.41,0,0,0-.63.09c-.09,15.33,0,30.66,0,45.75,0-.06,0-.12,0-.18q0-22.08,0-44.16a3.42,3.42,0,0,0-.16-1.65,2.65,2.65,0,0,0-1.74-.49c-3.81,0-7.61,0-11.42,0a2.7,2.7,0,0,0-1.9.55A6.52,6.52,0,0,0,422,399q0,95.49,0,191a5.34,5.34,0,0,1-.26,2.74,3.46,3.46,0,0,1-2.17.28c-5.28,0-10.56,0-15.85,0-3.38,0-3.38,0-3.34,3.34,0,2.17.09,2.25,2.38,2.25H422q46.89,0,93.77,0a1.85,1.85,0,0,1,1,.35,6.41,6.41,0,0,1,0,2.43c0,.27.2.33.43.18s.26-.3.26-.48c.07-2.63.43-5.16,2.16-7.31A.69.69,0,0,0,519.24,592.66Zm-33.12.2c-.36.67-1,.35-1.49.35q-22.59,0-45.17,0c-.48,0-1,.18-1.41-.25,0-.74-.11-1.48-.12-2.22q0-65,0-130c0-.74.07-1.48.12-2.22.38-.49.92-.28,1.38-.28h44.83c.48,0,1-.16,1.43.22.72.66.4,1.53.4,2.3Q486.13,526.79,486.12,592.86Zm15.5-.93v-.64a.91.91,0,0,0,.13.38c0,.05,0,.09,0,.08C502,591.67,501.62,592,501.62,591.93Z" transform="translate(-400.02 -152.74)"/><path class="cls-21" d="M422,593l0-.4c0-.74-.05-1.48-.05-2.23q0-96.06,0-192.14c0-.68,0-1.36,0-2l.48,0q0,97.26,0,194.53C422.36,591.47,422.68,592.32,422,593Z" transform="translate(-400.02 -152.74)"/><ellipse class="cls-21" cx="37.44" cy="373.2" rx="0.09" ry="94.29"/><path class="cls-22" d="M501.44,487.91l.37.06V592.26h-.37Z" transform="translate(-400.02 -152.74)"/><path class="cls-23" d="M485.79,444.62a1.45,1.45,0,0,1,0,.36H438.13v-.36Z" transform="translate(-400.02 -152.74)"/><path class="cls-24" d="M437.29,396.17a.83.83,0,0,1,.35,0v47.68h-.35Z" transform="translate(-400.02 -152.74)"/><path class="cls-21" d="M438.05,593h45.66c.8,0,1.61-.06,2.41-.09-.32.78-1,.55-1.61.55h-45C439,593.41,438.41,593.58,438.05,593Z" transform="translate(-400.02 -152.74)"/><path class="cls-23" d="M485.7,458.45q-13.21,0-26.43.07c-7.07,0-14.14,0-21.21,0,.39-.71,1.08-.47,1.66-.47q22.48,0,45,0a9.5,9.5,0,0,1,1.06.1.24.24,0,0,1,0,.16A.6.6,0,0,1,485.7,458.45Z" transform="translate(-400.02 -152.74)"/><path class="cls-6" d="M1027,457.23c1.6.32,3.29-.48,4.83.42a3.64,3.64,0,0,0-.19,2q0,65.5,0,131c0,.66-.22,1.37.22,2l0,0c-.16,3-.16,3-3.16,3l-37.94,0c-.84-1-.6-2.12-.61-3.21q0-19.39,0-38.79,0-46.05,0-92.11a10.65,10.65,0,0,1,.26-3.51c.38-.79,1.14-.82,1.85-.84a7,7,0,0,0,2.25-.62,1.79,1.79,0,0,0,1.81,1.16c9.71-.05,19.41,0,29.12,0C1026,457.66,1026.57,457.79,1027,457.23Z" transform="translate(-400.02 -152.74)"/><path class="cls-2" d="M984,595.61q-50.6,0-101.18,0c-1.43,0-1.75-.45-1.75-1.8,0-12.24,0-24.47,0-36.71,0-.84-.24-1.85,1.15-1.83a3.45,3.45,0,0,1,2.48-.55q48.38,0,96.75,0c2.72,0,3.14.43,3.15,3.15q0,17.52,0,35.05A3.43,3.43,0,0,1,984,595.61Z" transform="translate(-400.02 -152.74)"/><path class="cls-2" d="M882.54,505.14c-1.08,0-1.45-.44-1.45-1.57q.07-17.19,0-34.39c0-1.13.37-1.59,1.45-1.57a3.76,3.76,0,0,1,2.51-.49h96.34c2.85,0,3.25.41,3.26,3.23q0,16,0,32c0,2.82-.41,3.23-3.26,3.23H885.05A3.75,3.75,0,0,1,882.54,505.14Z" transform="translate(-400.02 -152.74)"/><path class="cls-2" d="M882.27,549.06c-1.4.05-1.15-1-1.15-1.8q0-16.44,0-32.87c0-.89-.35-1.86.32-2.68,1.06.52,2.06-.15,3.1-.15q49.61,0,99.23,0c.93.54.84,1.47.84,2.32q.06,16.49,0,33c0,2.24-.51,2.66-2.8,2.74-.37,0-.74,0-1.11,0H885.49C884.4,549.63,883.23,549.87,882.27,549.06Z" transform="translate(-400.02 -152.74)"/><path class="cls-6" d="M882.27,549.06c.81,0,1.61,0,2.42,0q48.57,0,97.13,0c1.78,0,2.29-.42,2.27-2.24-.09-11.06,0-22.12-.06-33.18,0-.64.29-1.38-.34-1.92-.57.39-1.21.2-1.81.2q-48.71,0-97.41,0c-.62,0-1.37.39-1.88-.34a13.45,13.45,0,0,1-.05-6.43c.81,0,1.62-.07,2.42-.07q48.38,0,96.75,0c1.84,0,2.41-.37,2.39-2.32q-.17-16.5,0-33c0-1.76-.54-2.13-2.19-2.13q-48.48.08-96.94,0c-.8,0-1.61-.05-2.42-.07-.64-3.18-.17-6.4-.26-9.59,0-.67.54-.73,1.06-.73h2.23a9.77,9.77,0,0,0,3.48.51c2.73,0,5.47,0,8.2,0,25.85-.05,51.7.13,77.55.07a10.35,10.35,0,0,0,2.78-.15c1.19-.23,2.3-.73,3.51-.9a7.13,7.13,0,0,1,1.66.1,46.88,46.88,0,0,0,5.56.18c.85,0,1.75-.13,2.45.56v138H984c0-12.86,0-25.73.07-38.59,0-1.8-.92-1.64-2.09-1.64H884.5c-.75,0-1.49,0-2.23-.06Z" transform="translate(-400.02 -152.74)"/><path class="cls-8" d="M834.11,396.08l-12.68.08h-.38c-.12.15-.24.16-.36,0l-15.37,0c-.87,0-1.74-.06-2.61-.06h-101c-.86,0-1.73-.05-2.6-.07a1.49,1.49,0,0,1,.31-1.39c3.13-5.08,6.19-10.2,9.38-15.23a4.93,4.93,0,0,1,.76-.82c2.61-.33,5.26.32,7.84-.39a2.82,2.82,0,0,1,2.09-.6c3.65,0,7.3-.11,11,.08a20.24,20.24,0,0,0,6.25.67c8.3,0,16.61-.08,24.92,0,5.16-.1,10.33.11,15.49-.18,4.85.32,9.71,0,14.57.17q19.61-.15,39.23.15a5.56,5.56,0,0,1,3.68,5.09c.26,3.63.1,7.27.07,10.9A2.09,2.09,0,0,1,834.11,396.08Z" transform="translate(-400.02 -152.74)"/><path class="cls-25" d="M821.43,458.78c0,5.15,0,10.31,0,15.46q0,58.05,0,116.11c0,1.8.33,2.42,2.31,2.41,14.66-.1,29.32,0,44-.06.62,0,1.24,0,1.86-.05l0,.4a4.15,4.15,0,0,1-2,.16q-22,0-44.09,0a3.79,3.79,0,0,0-2,.18c.23,1.72-.4,2.35-2.24,2.27-3.9-.15-7.81-.11-11.72,0-1.52,0-2.42-.22-2.13-2a.52.52,0,0,0-.37-.57,8.35,8.35,0,0,1-2.23.1c-25.22,0-50.44-.05-75.66,0a4.87,4.87,0,0,1-1.47-.15c-.39-.09-.85,0-1.15-.37l61.68,0c5.53,0,11.06,0,16.59,0,2.92,0,2.62.32,2.62-2.54q0-39.42,0-78.83,0-19.38,0-38.76c4.66,0,9.32-.05,14,0,1.44,0,1.79-.45,1.76-1.81-.09-3.42,0-6.84,0-10.25C821.12,460,820.92,459.29,821.43,458.78Z" transform="translate(-400.02 -152.74)"/><path class="cls-4" d="M834.11,396.08c0-3.64,0-7.29.07-10.94a6.71,6.71,0,0,0-3.09-6.14c.82-.83,1.87-.55,2.82-.55q18.89,0,37.78,0a9.23,9.23,0,0,0,2.77-.19,29.39,29.39,0,0,1,3.11-.41c2.65,0,5.3-.36,7.95-.18,2.17,0,4.35,0,6.52,0,4.66.05,7.56,2.75,7.87,7.4.13,2.11,0,4.22.05,6.33s.18,2.29,2.37,2.3c4,0,7.94,0,11.92,0a3.61,3.61,0,0,1,2.65.58.63.63,0,0,1,.09.33c-.81.81-1.85.57-2.81.6-8.06.27-16.09-.38-24.14-.36-.5,0-1,0-1.49,0-1.45-.09-2.48.23-2.16,2a1.53,1.53,0,0,1-.19.9.45.45,0,0,1-.58.24c-.11-.81.14-1.85-1.23-1.82-4.91.11-9.84-.23-14.75.19a3.79,3.79,0,0,0-2.18-.24Z" transform="translate(-400.02 -152.74)"/><path class="cls-26" d="M885.62,398a.81.81,0,0,0,.34-.08,3.32,3.32,0,0,1,2.31-.53c14.3,0,28.59,0,42.88,0,6.17,0,9.74,5.65,7.09,11a7.13,7.13,0,0,1-5.94,3.93,25.77,25.77,0,0,1-3.17.06q-20.22,0-40.45,0c-1,0-2.14.22-3-.53Q885.63,404.92,885.62,398Z" transform="translate(-400.02 -152.74)"/><path class="cls-26" d="M885.61,454.33q0-6.36,0-12.71c0-.42-.09-.87.28-1.2a2.94,2.94,0,0,1,2.13-.5c14.46,0,28.93,0,43.4,0a7.11,7.11,0,0,1,6.85,4,7.44,7.44,0,0,1-5.64,10.84,18.46,18.46,0,0,1-3,.13q-20.49,0-41,0C887.61,454.88,886.51,455.08,885.61,454.33Z" transform="translate(-400.02 -152.74)"/><path class="cls-26" d="M877,433.35c-.48-.53-.32-1.18-.32-1.78,0-3.29.12-6.58-.05-9.86-.1-1.88.56-2.2,2.28-2.19,12.65.08,25.3.05,38,0,.74,0,1.49,0,2.23-.05,2.42-.63,5.32,1.19,6.45,4.06a7.41,7.41,0,0,1-3.67,9.44,10.21,10.21,0,0,1-4.51,1q-19,0-37.94,0C878.59,434,877.68,434.12,877,433.35Z" transform="translate(-400.02 -152.74)"/><path class="cls-3" d="M885.61,454.33l44.51,0a12.81,12.81,0,0,0,3.32-.26,6.88,6.88,0,0,0-1.21-13.52c-.61-.05-1.24,0-1.86,0H888.09c-.74,0-1.48,0-2.23-.06a4.22,4.22,0,0,1,.07-3.18c.69-.85,1.68-.69,2.59-.69,11.79,0,23.58,0,35.37,0,3.81.11,7.63-.06,11.45,0a14,14,0,0,1,2.75.16c7.25,2.93,8.79,9.87,7.08,14.53a10.81,10.81,0,0,1-5.47,6.25c6.29-.05,12.82,0,19.35,0,5.47,0,10.94,0,16.41,0,.9,0,1.88-.19,2.64.58-.58.54-1.3.33-2,.33q-44.26,0-88.53,0c-.79,0-2,.52-2-1.08C885.58,456.31,885.59,455.32,885.61,454.33Z" transform="translate(-400.02 -152.74)"/><path class="cls-3" d="M885.63,411.83q22.74,0,45.47,0c4.28,0,7.25-2.6,7.46-6.45.23-4.23-2.83-7.33-7.32-7.34-12.67,0-25.34,0-38,0-2.42,0-4.85,0-7.27-.06v-.37c-.19-3.3-.19-3.29,3.14-3.3,9.3,0,18.59.67,27.89.34l21.17.12c3.81,1,5.91,3.62,7.12,7.17a11.14,11.14,0,0,1-7.81,14c-.53.15-1.06.33-1.61.43-4,.33-8,0-12,.14q-17.85,0-35.68,0c-.9,0-1.88.15-2.6-.66Z" transform="translate(-400.02 -152.74)"/><path class="cls-3" d="M885.63,415.82l34.64,0c1.24,0,2.48,0,3.72.07,3.56.47,5.9,2.6,7.62,5.59a11.14,11.14,0,0,1,0,10c-1.63,3.11-4,5.25-7.61,5.69l-35.08,0c-1,0-2,0-3,0-2.36,0-4.73-.17-7.08,0-1.84.11-2.48-.53-2.21-2.3.09-.53-.1-1.13.38-1.57q20.46,0,40.93,0c4.67,0,7.74-3,7.59-7.27-.13-3.46-2.57-5.94-6.43-6.53a.53.53,0,0,0,0-.25c-.22-.31-.54-.21-.84-.21H878.14a2.15,2.15,0,0,0-1.09.15c-1-2.65-.63-3.32,2.06-3.33Z" transform="translate(-400.02 -152.74)"/><path class="cls-2" d="M882.59,511.56c.81,0,1.61.1,2.41.1h96.27c.81,0,1.61,0,2.42,0-.53.64-1.27.39-1.92.39H883.39c-.66,0-1.39.25-1.93-.39Z" transform="translate(-400.02 -152.74)"/><path class="cls-24" d="M725.62,593.11H805c-.66.54-1.44.28-2.16.28l-73.56,0c-.72,0-1.5-.27-2.15.3Z" transform="translate(-400.02 -152.74)"/><path class="cls-23" d="M869.52,458.58l-36.08-.06-11.9,0c-.24-.73.36-.44.59-.44h46.15C868.77,458,869.3,458,869.52,458.58Z" transform="translate(-400.02 -152.74)"/><path class="cls-27" d="M820.69,396.17a.87.87,0,0,1,.36,0v47.69h-.36Z" transform="translate(-400.02 -152.74)"/><path class="cls-23" d="M821.93,444.66h47.12v.18H821.86Z" transform="translate(-400.02 -152.74)"/><path class="cls-21" d="M821.44,593.41c.61-.65,1.4-.32,2.1-.32q23,0,46,0c-.62.63-1.41.35-2.12.35Q844.43,593.43,821.44,593.41Z" transform="translate(-400.02 -152.74)"/><path class="cls-3" d="M877.05,419.2c.45-.5,1-.32,1.58-.32h40.73s.08.06.13.1l-.35.28Z" transform="translate(-400.02 -152.74)"/><path class="cls-3" d="M990.76,457.66c-2.17,0-4.34,0-6.5,0-.6,0-1.26.2-1.73-.4a3.5,3.5,0,0,1-.5-.71c-.63-1.74-.9-3.56-1.36-5.34-1-4.71-2.2-9.37-3.14-14.09-.07-.58-.3-1.13-.38-1.72-.4-1.41-.54-2.87-.94-4.28-.8-3.2-1.52-6.42-2.24-9.64-.41-1.93-.87-3.84-1.28-5.76-.25-1-.51-1.91-.7-2.88-.34-1.79,0-2.28,1.81-2.32,3.32-.08,6.65-.07,10,0,.76-.06,1.47.42,2.24.18,1.28.69,2.66.19,4,.36q.9,8.55,1.78,17.11c.41,3.93.79,7.86,1.19,11.79q.74,7.08,1.45,14.17c.08.8.05,1.61.08,2.42s-.37,1.18-1.21,1.14S991.61,457.66,990.76,457.66Z" transform="translate(-400.02 -152.74)"/><path class="cls-2" d="M434.31,339.41h4.47a2.5,2.5,0,0,1,.56-.35,16.69,16.69,0,0,1,3.6-.17c1.1,0,2.21,0,3.31,0s2.25,0,3.37,0c4.69-.12,4.74-.1,4.2,4.54-.48,4.11-1,8.22-1.52,12.34-.92,6.6-1.67,13.23-2.51,19.84a4,4,0,0,1-.88,2.57c-5,.2-10,.14-15,0,.06-4.74-.3-9.46-.68-14.18-.2-2.58-.25-5.17-.36-7.75-.21-5.18-.69-10.34-.85-15.51a5.52,5.52,0,0,0-.32-1.24Z" transform="translate(-400.02 -152.74)"/><path class="cls-4" d="M843.06,296.9l32.44-.07a1.16,1.16,0,0,1,0,.18c-.72,2.38-1.4,4.78-3.26,6.59-2.9.44-5.82.09-8.73.21a4,4,0,0,0-2.55.53c3.59.59,6.94-.17,10.21.47a1,1,0,0,1,.37,1.42c-.73,1.66-1.15,3.47-2.42,4.85-.8.46-1.93.77-.93,2.06-.95,3.37-2.67,6.4-4.1,9.56-5.15,11.37-10.41,22.69-15.59,34.05-.9,2-1.32,4.3-3.15,5.82l-32.47,0c-.35-1.18.47-2,.83-3a8.21,8.21,0,0,0,.74-2c3.24-6.35,6-12.91,9-19.37.34-.73.7-1.45,1.09-2.16a8.08,8.08,0,0,0,1-2.31c.38-1,.85-2.06,1.29-3.08s.05-1.46-1-1.47c-2.66,0-5.32,0-8,0a4,4,0,0,1-2-.31c-.38-.21-.56-.5-.11-.84,1.67-.61,3.4-.28,5.1-.32q3.59-.06,7.17,0c1.24-.13,2.62.64,3.71-.54-.71-.6-1.74,0-2.43-.69a1.38,1.38,0,0,1,.11-1.25c1.74-3.95,3.58-7.87,5.38-11.8a1.55,1.55,0,0,1,.6-.69,2,2,0,0,1,.57-.21c3.67-.32,7.37.15,11-.51a105,105,0,0,0-10.94-.36,10.84,10.84,0,0,1-3.89-.29c-.58-1,.34-1.1.78-1,3.17.53,4.13-1.67,5.09-3.94a3,3,0,0,1,1.07-1.48c2.05-.62,4.16-.17,6.24-.32a4.42,4.42,0,0,0,2.74-.5c-2.78-.65-5.42.11-8-.49-.74-.36-.43-.93-.22-1.42a28.19,28.19,0,0,1,2.69-5.24A.42.42,0,0,1,843.06,296.9Z" transform="translate(-400.02 -152.74)"/><path class="cls-8" d="M845.31,362.57q8.7-19.08,17.39-38.13c1.75-3.83,3.55-7.63,5.33-11.44.07-.08.15-.16.22-.25a4.85,4.85,0,0,1,2.55-.36c4.41,0,8.82,0,13.23,0a3.79,3.79,0,0,0,2.47-.41,3.52,3.52,0,0,0-2-.3H871.64a6.25,6.25,0,0,1-2.39-.24.77.77,0,0,1-.43-.49,40.38,40.38,0,0,0,2.59-5.73,7.82,7.82,0,0,1,1.08-2,37,37,0,0,1,3-6.22c2.95-.56,5.31,0,6.48,3.18a17.06,17.06,0,0,0,2,3.06c-1.78,0-3.25.05-4.7,0-1.06-.05-1.6.46-1.53,1.38s1,.54,1.48.46a10.16,10.16,0,0,1,10.46,4.17,24.92,24.92,0,0,0,4.66,4,1.48,1.48,0,0,1,.64,1.85q-6.46,23.1-12.85,46.22c-.23.84-.49,1.39-1.58,1.38C868.77,362.6,857,362.59,845.31,362.57Z" transform="translate(-400.02 -152.74)"/><path class="cls-8" d="M815.49,328.24c.55.62,1.28.35,1.92.35,3.16,0,6.32,0,9.48,0,1.08,0,1.31.3.83,1.3-.69,1.44-1.28,2.94-1.91,4.41a4.72,4.72,0,0,1-2.53.47c-2.36,0-4.72,0-7.08,0a2.38,2.38,0,0,0-1.93.55c2.65.2,5.29.15,7.93.2.89,0,1.89-.23,2.59.65-2.36,5.19-4.71,10.38-7.09,15.55a30.54,30.54,0,0,1-3,6c-1.11.74-2.29.06-3.43.15s-2.1,0-3.15,0c-.52,0-1.36-.1-1.38.56s.81.55,1.31.57c1.48,0,3,0,4.45,0,.5,0,1.28-.45,1.47.53-.38,1-.76,2-1.15,3-5.08.14-10.16.18-15.23,0a3,3,0,0,1,.13-2.34q8.13-29.38,16.32-58.74c1-3.44,2.91-5,6.44-5.05q10-.06,20,0c.77,0,1.64-.18,2.21.63a49.6,49.6,0,0,1-2.95,6.15c-.66.78-1.58.63-2.43.64-3.6,0-7.21,0-10.81,0a3.36,3.36,0,0,0-2.18.35c.61.55,1.32.34,2,.34,3.42,0,6.84,0,10.25,0,.85,0,1.77-.15,2.43.63-.73,1.61-1.51,3.19-2.18,4.83-.32.8-.9.65-1.49.72-1.13.12-2.32-.35-3.4.31,0,1,.43,1.52,1.52,1.45a2,2,0,0,1,1.83.48c-1.65,4.61-4,8.93-6,13.39-.64.67-1.48.55-2.27.56-2.66,0-5.33.05-8,0A4.35,4.35,0,0,0,815.49,328.24Z" transform="translate(-400.02 -152.74)"/><path class="cls-5" d="M842.67,297c-7.7,0-15.39-.1-23.08-.06a5,5,0,0,0-4.84,3.94q-7.1,25.53-14.18,51.06c-1,3.53-2,7-3,10.56.29.81,1,.37,1.43.37,4.51.06,9,.06,13.52.07.4,1.55-.65,2.71-1.14,4-.72,1.91-.67,2.11,1.42,2.11q13.74,0,27.48,0a3.9,3.9,0,0,1,2,.2c.61.64,1.4.36,2.11.36q15.24,0,30.47,0c.7,0,1.5-.28,2.1.37-1,.84-2.12.58-3.21.58H817.86a20.48,20.48,0,0,0-2.6.07,3.64,3.64,0,0,0-.13,7.21,16.28,16.28,0,0,0,2.79.11q26.85,0,53.7,0c1.08,0,2.26-.29,3.16.66a3.63,3.63,0,0,1-2.18.25q-20.75.06-41.51.08l-39.56-.07c-1-2.82-.49-5.69-.3-8.55a7.14,7.14,0,0,0,1.68-3.43c.81-3,1.56-6,2.46-8.93.36-1.21.06-1.74-1.26-1.69a3.74,3.74,0,0,1-2.51-.4.48.48,0,0,1,0-.56,3.44,3.44,0,0,1,2.5-.39c1.61.16,2.35-.54,2.73-2.05,1.48-5.87,3.22-11.67,4.75-17.53q.87-2.76,1.6-5.56a11,11,0,0,0,.28-1.13c2.57-8.95,4.92-18,7.52-26.91.64-1.8.75-3.76,1.65-5.47.37-.72.56-1.7,1.7-1.67,1.87-1.56,4.09-1.55,6.34-1.47l6,0,17.48.08c.16,1.38-1.23,2.29-1.09,3.66Z" transform="translate(-400.02 -152.74)"/><path class="cls-10" d="M874.78,378.67l-13.41-.06H816.11c-2.89,0-4.75-1.7-4.75-4.31s1.84-4.3,4.73-4.3L877,370c3.43,2.31,3.88,5.07,1.21,7.47a3.13,3.13,0,0,1-.83.71C876.59,378.77,875.66,378.57,874.78,378.67Z" transform="translate(-400.02 -152.74)"/><path class="cls-11" d="M921.87,290.72c-.29,2,.31,3.92,0,5.93a19,19,0,0,1-6.31,12.11c-2.73,2.44-5.56,4.76-8.35,7.14.73-2.39-.28-4.49-1.16-6.57A21,21,0,0,0,902.8,304c-.11-.07-.16-.15-.14-.24s0-.15.07-.15c2.49-2.55,5.61-4.44,7.57-7.56,3.44-5.44,4.26-11.1,1.93-17.15a4.45,4.45,0,0,1-.12-.73,18.42,18.42,0,0,1,8.94,10.56C921.3,289.4,921.21,290.22,921.87,290.72Z" transform="translate(-400.02 -152.74)"/><path class="cls-10" d="M877.38,378.2a1.11,1.11,0,0,1,.83-.71c2.4-.05,3.21-1.94,3.89-3.68a63.84,63.84,0,0,0,1.95-6.58q6.83-24.68,13.63-49.37c.38-1.39.74-2.32,2.43-1.22s3.7.83,5.62.82c-.1.08-.2.23-.29.22-2.71-.41-3.11,1.44-3.66,3.47q-6.64,24.32-13.45,48.59c-.79,2.85-1.22,5.82-2.73,8.44Z" transform="translate(-400.02 -152.74)"/><path class="cls-14" d="M842.32,369.27a3.85,3.85,0,0,1-2.16.38l-28.44,0c-2.09,0-2.12-.08-1.27-1.91.73-1.57,1.41-3.16,2.11-4.75h32.53C844.13,365.14,843.23,367.21,842.32,369.27Z" transform="translate(-400.02 -152.74)"/><path class="cls-28" d="M902.73,303.61l.07.39a7.25,7.25,0,0,1-9.49,1.06,6.85,6.85,0,0,1-2.44-8.25,11.15,11.15,0,0,1,2.26-2.93,45.16,45.16,0,0,1,8.28,8.18Z" transform="translate(-400.02 -152.74)"/><path class="cls-3" d="M979.1,300.62c2.62,0,4.19,1.51,4.21,4.05a4.2,4.2,0,0,1-4.11,4.14,4.69,4.69,0,0,1-4.46-4.17A4.1,4.1,0,0,1,979.1,300.62Z" transform="translate(-400.02 -152.74)"/><path class="cls-3" d="M929.55,268.56a2.75,2.75,0,0,1,3,2.75,2.88,2.88,0,0,1-3,3.11,3.25,3.25,0,0,1-3-3A2.85,2.85,0,0,1,929.55,268.56Z" transform="translate(-400.02 -152.74)"/><path class="cls-11" d="M637.22,396.15c-.12,11.05-.22,22.11-.4,33.17,0,1.48.92,1.33,1.8,1.47a131.47,131.47,0,0,1,32.54,9.1,84.81,84.81,0,0,1,20.49,12.38,40.86,40.86,0,0,1,15,27.19,261.1,261.1,0,0,1,1.79,36.44c-.22,22.93-1.54,45.81-2.86,68.68a8.27,8.27,0,0,1-.22,1.08c-3.53.2-7.05.44-10.57.62-6,.29-12,.55-18,.82-1.82.57-2.54.12-2.39-1.91.23-2.91.1-5.84.41-8.73.38-3.52.45-7.07.53-10.58.14-6.2.47-12.4.54-18.6.09-7.75.54-15.51.29-23.26-.37-11.52-.45-23.06-1.78-34.54-.59-5.16-1.66-9.81-6.83-12.31a3.81,3.81,0,0,1-.6-2.65,14,14,0,0,0-11.6-13.4,4.15,4.15,0,0,1-.93-.19,12.34,12.34,0,0,0-3-.14H569.76c-3.38,0-3.39-.05-4.19-3.37-2.65-11-3.69-22.31-5.33-33.49q-6.72-45.82-13.17-91.69a10.39,10.39,0,0,0-3.14-6.39,7.35,7.35,0,0,1-1.78-2.14c-.54-2.14-.23-4.33-.26-6.49,0-2.8-.07-5.6,0-8.39,0-.44,0-.88,0-1.31,0-.91,0-1.82,0-2.73,0-.19,0-.39,0-.58a7.89,7.89,0,0,1,.08-.85,3.35,3.35,0,0,1,.11-.55c0-.09.05-.18.07-.27.41-1.45-.26-2.92,0-4.37a10.6,10.6,0,0,1,.36-2.8c.08-.57.29-1.09.39-1.65a13.69,13.69,0,0,1,.94-3.83,41.93,41.93,0,0,1,12-18.6,40.19,40.19,0,0,1,10-6.67,11,11,0,0,1,5-1.1c12.48,0,25,0,37.44,0a5.42,5.42,0,0,1,2.73.35l.24.25c-.64.58-1.43.31-2.14.32-11.19,0-22.38,0-33.57,0a3.13,3.13,0,0,0-3,1.61c-3.23,5-4.77,10.56-6,16.26a98.22,98.22,0,0,0-1.89,14.3,172,172,0,0,0-.66,20c.33,6.64.05,13.27.34,19.9.32,7.74.52,15.48.77,23.22.19,6.12.49,12.24.74,18.36.21,5.31.49,10.63.73,15.94s.5,10.63.76,15.94c.22,4.76.45,9.51.75,14.26.41,6.79.84,13.58,1.06,20.38,0,1.55.6,2.28,2.36,2.24,4.78-.13,9.58.17,14.35-.1a160.85,160.85,0,0,0,17.5-1.67,101.87,101.87,0,0,0,25.26-7.79,2.53,2.53,0,0,0,1.66-3c-.38-3.87-.72-7.74-1.09-11.6-.48-5-1-10.07-1.44-15.11-.28-3.07-.52-6.15-.8-9.22-.48-5.41-1-10.81-1.45-16.22-.29-3.38-.49-6.78-.79-10.16-.45-5-1-10.07-1.43-15.1-.29-3.2-.52-6.4-.81-9.6-.45-5.1-.94-10.19-1.42-15.29-.14-1.52.1-3.06-.07-4.66,1.1,2.52,2.19,5,3.3,7.55,3.37,7.6,6.84,15.15,11.44,22.11.9,1.36,1.67,2.65,1.34,4.41-.13.7-.4,1.62.38,2.26a2,2,0,0,1,2.47,0,60.17,60.17,0,0,0,6.66,6.41,2.67,2.67,0,0,1,.9,2.32c0,4.9,0,9.81,0,14.72,0,.66-.21,1.38.3,2,.65,1.59.38,2.2-1.23,2.35-2.21.21-4.44,0-6.66.09s-2.2.15-2.28,2.18A3.86,3.86,0,0,1,637.22,396.15Z" transform="translate(-400.02 -152.74)"/><path class="cls-6" d="M664.5,586.64l3,1.14c-.23,1.65-1.66,2.48-2.54,3.69-.53.74-1.36,1.24-1.75,2.13,1.71-1.41,3-3.3,4.63-4.74.44-.37.63-1.12,1.43-1,.87,1.07,2.25,1,3.39,1.53-.6,1.9-2.33,2.95-3.43,4.47a15.69,15.69,0,0,0-1.91,2.28,12.7,12.7,0,0,0,2.48-2.38c1.33-1.46,2.43-3.18,4.33-4,.59.77,1.6.68,2.33,1.16.69,1.87.21,3.8.3,5.69s0,3.84,0,5.76c-10.65-.32-21.31-.35-32-.37-.64,0-1.38.3-1.91-.37a1,1,0,0,1,.61-.38c2.41-.55,2.46-.68,1.88-3.16a8.85,8.85,0,0,0-5.17-6.35,2.46,2.46,0,0,1-.93-.59c-.51-1.53-1.48-3-.71-4.71a20.3,20.3,0,0,1,5.53-.59c4,0,8.05-.64,12.09-.46,1.55.07,2.88-.08,3.15-2a.52.52,0,0,1,.57-.38c-.45,2.51,1.75,2.34,3.09,3-.22,1.45-1.34,2.29-2.23,3.29a11.82,11.82,0,0,0-2,2.36,12.81,12.81,0,0,0,2.65-2.55C662.25,588.17,662.86,586.72,664.5,586.64Z" transform="translate(-400.02 -152.74)"/><path class="cls-29" d="M718.44,590.59c.5-.24.7-1.18,1.48-.72.5.3.24.74,0,1.1q-3,3.27-6.08,6.53c-.37.39-.79,1.08-1.36.61-.75-.62.08-1.09.44-1.5C714.74,594.59,716.59,592.59,718.44,590.59Z" transform="translate(-400.02 -152.74)"/><path class="cls-29" d="M708.82,587.21c.55-.27.84-1.26,1.61-.83s.05.92-.11,1.38c-1.9,1.53-3.28,3.55-5,5.22-.42.4-.84,1.23-1.49.67s.15-1.08.52-1.5C705.8,590.49,707.32,588.85,708.82,587.21Z" transform="translate(-400.02 -152.74)"/><path class="cls-30" d="M713.34,588.93c.52-.19.77-1,1.5-.7.42.18.33.55.19.9-1.72,1.86-3.42,3.73-5.16,5.56-.42.45-.94,1.43-1.58.82s.31-1.26.73-1.75C710.43,592.12,711.9,590.53,713.34,588.93Z" transform="translate(-400.02 -152.74)"/><path class="cls-4" d="M944.88,401.72c-1.21-3.32-3.68-5.42-6.71-7l31.72-.05,3.71,0c.88,2.23,1.76,4.45,2.65,6.68-.15.81-.83.61-1.32.61-9.72,0-19.44,0-29.16,0A2,2,0,0,1,944.88,401.72Z" transform="translate(-400.02 -152.74)"/><path class="cls-6" d="M929.94,381.91c0-2.91,0-2.91,2.85-2.91h5.74c2.83,0,2.83,0,2.71,2.85-.13.67-.58.84-1.21.84q-4.51,0-9,0C930.43,382.68,930,382.51,929.94,381.91Z" transform="translate(-400.02 -152.74)"/><path class="cls-8" d="M944.88,401.72a4.14,4.14,0,0,1,2.35-.37l29,0a25.19,25.19,0,0,0,8.14,8.57c.31.53,0,.77-.43,1-3.28,0-6.56.17-9.82,0-1.87-.08-2.06.57-1.57,2.08.3.94.42,1.92.63,2.89a2.79,2.79,0,0,1-2.09.6q-16.3,0-32.6,0c-.79,0-1.64.06-2.21-.7C943.14,414.21,946.55,408.27,944.88,401.72Z" transform="translate(-400.02 -152.74)"/><path class="cls-31" d="M984,410.89c.14-.34.29-.67.43-1l1.63.79C985.38,411.21,984.65,410.88,984,410.89Z" transform="translate(-400.02 -152.74)"/><path class="cls-3" d="M639.51,591.11a9.34,9.34,0,0,1,6.62,9.38c-.06.91-.43,1.17-1.25,1.13s-1.36,0-2,0l-14.33,0-2.1-.08c0-1,0-1.93-.07-2.9-.44-2.15.83-3.67,1.94-5.25a4.14,4.14,0,0,1,.55-.63,21.66,21.66,0,0,1,2.28-1.65,14,14,0,0,1,5.56-1.07A3.38,3.38,0,0,1,639.51,591.11Z" transform="translate(-400.02 -152.74)"/><path class="cls-21" d="M575.28,593l-.72.79c-.47-.59-1.13-.4-1.73-.4H534.19c-.1-.13-.21-.25-.32-.37a3.08,3.08,0,0,1,2.46-.62q18.24,0,36.49,0A3.2,3.2,0,0,1,575.28,593Z" transform="translate(-400.02 -152.74)"/><path class="cls-15" d="M639.51,591.11c-3-1.1-5.83-.21-8.7.47-.77-.07-.71-.75-.86-1.24-2.23-7.31-7.29-11.37-14.64-12.83-.63-.12-1.42.06-1.71-.8-2.56.11-5.12.06-7.67.07h-8c-3.34,0-6.68.07-10-.06h-.18c-.43,0,0,.17,0,.27.18,4.34.07,8.69,0,13a1.91,1.91,0,0,1-.55,1.53c-3.52-1-7-1.39-10.44.37-1-.18-.52-1-.52-1.48,0-3.91,0-7.82,0-11.73,0-.59.16-1.22,0-1.48-.07,4.82.1,9.95-.1,15.07-.08.31-.18.61-.55.67a3.55,3.55,0,0,1-.49-2.48c0-3.59,0-7.17,0-10.75a5.76,5.76,0,0,0-.25-2.37,1.6,1.6,0,0,0-1.49-.59c-8.37,0-16.75-.06-25.12.06-.35.53-.93.55-1.48.65-7.4,1.36-12.51,5.39-14.8,12.71a2.54,2.54,0,0,1-.63,1.32,11.7,11.7,0,0,0-9,0c1.82-10.71,8-17.77,18.11-21.43a17.61,17.61,0,0,1,6.54-1.26,4.16,4.16,0,0,0,2,.16c6.45,0,12.89,0,19.33,0a6.85,6.85,0,0,1,1.56,0c-6.4,0-13.13,0-19.87,0-.66,0-1.36.21-2-.21a11.54,11.54,0,0,1,3.66-.18c6.49-.12,13,.2,19.47-.17.57-1.42.15-2.9.24-4.35.15-2.51-.2-5,.19-7.53l2.57-.12a3.37,3.37,0,0,1,2.12-.51c4,0,8-.07,12,.05a3.17,3.17,0,0,1,2.43.52c.29,3.9,0,7.82.13,11.12.1-3.3-.19-7.2.14-11.09,1.26.25.94,1.31,1,2.08.1,2.29,0,4.59,0,6.89s.15,2.34,2.32,2.35c5.65,0,11.3,0,17,0,.92,0,2-.28,2.56.93-.1.06-.21.17-.32.17-7,.07-14,0-21,0,6,0,12,0,18,0,1.28,0,2.61.31,3.84-.35a4,4,0,0,1,2.36-.21A27.61,27.61,0,0,1,629.83,574a25.31,25.31,0,0,1,8.3,10.85c.24.6.7,1.21.2,1.9C639.05,588.12,639.05,589.68,639.51,591.11Z" transform="translate(-400.02 -152.74)"/><path class="cls-12" d="M628.73,593.44a13.65,13.65,0,0,0-2.39,5.24l-34.22,0a12.44,12.44,0,0,0-2.38-5.27,2.25,2.25,0,0,1,1.44-.19h36.11A2.19,2.19,0,0,1,628.73,593.44Z" transform="translate(-400.02 -152.74)"/><path class="cls-21" d="M628.73,593.44h-39l-.3-.36c2.1,0,4.21-.11,6.31-.11h31c.74,0,1.48.07,2.22.11Z" transform="translate(-400.02 -152.74)"/><path class="cls-32" d="M576.12,592.3V577.13h.28v4.72c0,2.78,0,5.56,0,8.34,0,.6-.2,1.26.36,1.74Z" transform="translate(-400.02 -152.74)"/><path class="cls-6" d="M1031.82,592.66c-.67-.52-.4-1.26-.4-1.91q0-65.58,0-131.17c0-.65-.25-1.38.37-1.93,0,.56.08,1.12.08,1.67q0,65.83,0,131.67C1031.88,591.55,1031.84,592.1,1031.82,592.66Z" transform="translate(-400.02 -152.74)"/><path class="cls-33" d="M656.13,335.76c.46-.61,1.13-.42,1.72-.42l121.75,0a.79.79,0,0,1-.22,1c-1.53,1.48-2.7,3.34-4.74,4.25-3,.28-6.1.12-9.15.11-2.65.2-3.19.77-3.23,3.43,0,.61,0,1.23,0,1.85a2,2,0,0,1-1.85,2.17,19.3,19.3,0,0,0-2.69.69,8.35,8.35,0,0,0-5.23,5.14,4.67,4.67,0,0,1-.84,1.84,4.22,4.22,0,0,1-2.83.58c-4.12,0-8.25.1-12.36-.18-3.83-.46-7.63-1.24-11.53-.93a3.81,3.81,0,0,1-2.84-.38,3.13,3.13,0,0,0-1.86-.74c-1.8-.11-2.23.23-2.26,2.05,0,2.67,0,5.35,0,8,0,.84.15,1.76-.59,2.44-.37-4.32-.28-8.65-.25-13,0-2.57.08-2.59-2.53-2.57-12.84.11-25.68.2-38.52.37a27,27,0,0,1-6.84-.29,13.55,13.55,0,0,1-9.33-7.36C658.54,341.2,657.37,338.46,656.13,335.76Z" transform="translate(-400.02 -152.74)"/><path class="cls-3" d="M637.22,396.15c-.15-5.24-.15-5.24,5.09-5.25,1.36,0,2.72-.1,4.08,0s1.89-.51,1.56-1.85a1.39,1.39,0,0,1,.1-.33c1.23-.47,2.51-.12,3.77-.19a2.85,2.85,0,0,0,2.32-.78A3,3,0,0,1,656,387a12,12,0,0,0,5.6-1.86c2.82-2,6-2.43,9.3-2.89,2-.27,3.91-.69,5.88-.9a7,7,0,0,0,5-2.39c9.23-.77,18.48-.26,27.72-.37-1.34,3-3.3,5.63-4.94,8.44-1.78,3-3.67,6-5.51,9-2.11,0-4.22.07-6.33.07Z" transform="translate(-400.02 -152.74)"/><path class="cls-34" d="M681.84,379a3.35,3.35,0,0,1-3.2,2.62c-4.11.57-8.21,1.27-12.32,1.92a6,6,0,0,0-2.7,1.13,16.82,16.82,0,0,1-7.39,2.88,4.28,4.28,0,0,0-1.79.43,2.06,2.06,0,0,1-.67-1.83q-.07-4.69,0-9.41a2.27,2.27,0,0,1,.62-1.86,47.48,47.48,0,0,0,23,4A15,15,0,0,1,681.84,379Z" transform="translate(-400.02 -152.74)"/><path class="cls-28" d="M717.34,366.69c0-3.82.1-7.65,0-11.47,0-1.3.36-1.81,1.67-1.66a10.59,10.59,0,0,0,2,0c.93-.08,1.2.4,1.2,1.2a3,3,0,0,1,.54,2.1c0,5.37.08,10.74-.05,16.11,0,.25,0-.06,0,.18,0,1.2.46,2.72-.82,3.37a4.21,4.21,0,0,1-4.54-.25C717.4,373.08,717.37,369.89,717.34,366.69Z" transform="translate(-400.02 -152.74)"/><path class="cls-28" d="M654.39,374.87q0,6.56.05,13.1c0,.53-.08,1-.78.93-1.87-.09-3.75.21-5.61-.18V371.16Z" transform="translate(-400.02 -152.74)"/><path class="cls-35" d="M717.42,376.28c.43,0,.86,0,1.28,0,3.45,0,3.45,0,3.57-3.32a2,2,0,0,1,.55-.36,25.47,25.47,0,0,1,4.78-.13c.78,0,1.63.2,1.69,1.1.1,1.62.84,3,1.21,4.57l-13.1.05C717.41,377.58,717.42,376.93,717.42,376.28Z" transform="translate(-400.02 -152.74)"/><path class="cls-15" d="M608.42,256.59c0-.93,0-1.86,0-2.79,0-2.07.27-2.41,2.2-1.88,1.26.34,2.62-.17,3.76.63-.71,1.22-.29,2.54-.33,3.8-.07,2.23,0,4.47,0,6.7,0,.61.5,1.73-.77,1.66-1,0-1.1-.95-1.08-1.82,0-1.82,0-3.65-.1-5.47-.64,2.21.29,4.54-.65,6.72l-.05-.13c-.79-1.11-.5-2.39-.45-3.59.07-1.63-.14-2.93-2-3.31C608.69,257.06,608.54,256.82,608.42,256.59Z" transform="translate(-400.02 -152.74)"/><path class="cls-28" d="M608.42,256.59c3.13.78,3.15.78,3.13,4.13a12.08,12.08,0,0,1-.15,3.29q-20.74,0-41.47-.07a6.07,6.07,0,0,0-2.32.59,45.16,45.16,0,0,0-11.74,7.39,5.27,5.27,0,0,1-3.24.6h-35c-.62,0-1.24,0-1.86,0-2.13.09-2.46.39-2.48,2.57,0,3.6,0,7.21,0,10.81,0,2.54.36,2.91,2.93,2.92,8.46,0,16.91,0,25.36.05,1,0,2.31-.48,2.89,1l-1,4c-.85.86-2,.66-3,.66-7.81,0-15.62,0-23.43,0a7.92,7.92,0,0,0-2.22.15,6.31,6.31,0,0,0,1.89.15c7.81,0,15.63,0,23.44,0,1,0,2.13-.23,3,.67l-.36,2.84c-.88.8-2,.64-3,.64-7.57,0-15.14,0-22.71,0a22.78,22.78,0,0,0-2.31.06,2.85,2.85,0,0,0,1.84.23q11,0,22,0h1.12c3.11,0,3.34.33,2.8,3.51l0,.06c-1,.78-2.13.58-3.22.58-7.44,0-14.89,0-22.33,0a5.72,5.72,0,0,0-2.07.14,6.2,6.2,0,0,0,2.24.16c7.38,0,14.77,0,22.15,0a5.91,5.91,0,0,1,3.26.48c0,1,0,2,0,3-.89.84-2,.54-3,.59-8.12,0-16.24,0-23.2,0,6.72,0,14.6,0,22.48,0,1.25.16,2.65-.47,3.73.66l0,15.13a1,1,0,0,1-.89,0c-3-1.44-6.28-1.42-9.53-1.35a29.55,29.55,0,0,0-3-.16q-20.35,0-40.72,0a13.76,13.76,0,0,1-2.94,0,15.33,15.33,0,0,0-9.48,5c-.47.49-.93,1-1.39,1.48a6,6,0,0,1-2.18.4c-6.2,0-12.41,0-18.61,0-.83,0-1.9.25-2.3-.75a2.77,2.77,0,0,1,.52-2.8,4,4,0,0,0,1-1.78q.91-5.13,1.85-10.26c.25-1.36-.54-1.76-1.65-1.91s-2.28-.56-2.51,1c-.62,4.33-2.19,8.53-1.71,13,.31,2.81-.92,3.86-3.37,3.07a3.55,3.55,0,0,1-.63-2.65q0-48.09,0-96.16c0-1-.07-2.15.88-2.92a6.34,6.34,0,0,1,3.11-.34H516.5c14,0,28.09,0,42.13,0,1,0,2-.19,2.87.52l3.77,4.85c-1,.88-2.25.6-3.4.6-17.71,0-35.42,0-53.13-.05-16.78-.08-33.56,0-50.35,0a6.22,6.22,0,0,0-2.57.25,2.52,2.52,0,0,0-1.59,2.64v6.26a2.79,2.79,0,0,0,1.55,2.71,9.38,9.38,0,0,0,2.42.13c16.28,0,32.56.08,48.84,0,19.57-.11,39.14,0,58.71-.06,2.67,0,5.34.1,8,.08a3.33,3.33,0,0,1,1.81.32c1.08,1.49.68,3.12.42,4.73-.39.81-1.17.76-1.9.81a7.48,7.48,0,0,0-1.64.16c-.43.13-.85.32-.79.86s.5.52.85.54c1,.09,2.07.21,3.1.4,8.41.88,16.8,1.84,25.16,3,1.11,0,1.18-.81,1.24-1.66s-.26-2,.88-2.59l.37,0c1.51.2,3.38-.08,4.44.72s.24,2.85.45,4.32C608.18,256.32,608.33,256.45,608.42,256.59Z" transform="translate(-400.02 -152.74)"/><path class="cls-19" d="M579.4,238c3.25-2.46,6.61-4.79,9.3-7.92a49.58,49.58,0,0,0,9.26-13c2.12-.05,4.15.71,6.26.78a.58.58,0,0,1,.57.76c-1.06,6.68-2.15,13.35-3.17,20-.5,3.25-.88,6.51-1.31,9.76-1.07.4-2.08,0-3.09-.25a32.43,32.43,0,0,1-16.86-8.73C580,239.05,579.29,238.78,579.4,238Z" transform="translate(-400.02 -152.74)"/><path class="cls-34" d="M579.4,238a48.69,48.69,0,0,0,7.7,6,41.25,41.25,0,0,0,11.8,4.09c.47.1.94.25,1.41.38.23.84-.53,1.86.45,2.56a7.71,7.71,0,0,1,.19,4.84l-20.26-2.42c-1.79-.21-3.57-.39-5.36-.58a3.28,3.28,0,0,1,.25-2.85l0-4.94a2.19,2.19,0,0,1-.3-.59c-.1-1.42-.43-2.85.32-4.21Z" transform="translate(-400.02 -152.74)"/><path class="cls-34" d="M604.79,218.65c-.83-.81-1.87-.34-2.81-.41a11.5,11.5,0,0,1-4-1.13c-5.74-3.77-6.57-10.5-1.84-14.79a9.17,9.17,0,0,1,6.54-2.18,2.22,2.22,0,0,1,2.49,2.23c0,5.21,0,10.41-.06,15.62C605.09,218.21,604.89,218.43,604.79,218.65Z" transform="translate(-400.02 -152.74)"/><path class="cls-28" d="M601,255.84c-.46-1.59-.17-3.22-.19-4.84l2.13.09a6.76,6.76,0,0,0-.22,3.31C602.75,255.8,602.21,256.18,601,255.84Z" transform="translate(-400.02 -152.74)"/><path class="cls-8" d="M689.07,329.59l-25.72.09c-2.54,0-5.1-.1-7.64,0-1.78.1-2.23-.59-2.19-2.26.1-4,0-8,0-11.93V234.27c0-2.56,0-2.57,2.57-2.57h75.29c.68,0,1.36,0,2,.08.7.27.49.81.29,1.23-1.62,3.47-3.14,7-4.85,10.41a1.07,1.07,0,0,1-.4.39,2.06,2.06,0,0,1-.54.2c-2,.2-3.94,0-5.91.11-.67,0-1.8-.3-1.81.63,0,.76,1.1.47,1.72.51a48.64,48.64,0,0,1,5,.15,1.56,1.56,0,0,1,.51.27c-.38,2.56-1.2,4.88-3.41,6.47-.33.58-.06,1.16,0,1.74a37.29,37.29,0,0,1-2.62,6.14c-.27.58-.74,1-1.5.61a4.46,4.46,0,0,0-2.35-.44q-14.73,0-29.46,0a2.19,2.19,0,0,0-1.57.35,4.32,4.32,0,0,0,2.34.32h27.78a9.51,9.51,0,0,1,3,.22c.93.43.71,1.21.44,1.88a20.72,20.72,0,0,1-2.27,4.57,1.27,1.27,0,0,1-.64.1c-5.45-.06-10.91-.24-16.35.1a1,1,0,0,0,0,1.63c4.27.32,8.53,0,12.79.14a4.82,4.82,0,0,1,2.54.34,5,5,0,0,1-4.52,5.92c-3.08,0-6.17,0-9.25,0-.65,0-1.38-.22-1.9.4.23,1.13,1.16.72,1.78.73,2.67.07,5.34,0,8,0a5.71,5.71,0,0,1,2.39.26c.22.13.43.34.35.59-.71,2.16-1.22,4.42-3.07,6a8.3,8.3,0,0,1-2.76.24c-6.07,0-12.14,0-18.21,0a3.56,3.56,0,0,0-2.33.36,3.32,3.32,0,0,0,2.19.32c5.75,0,11.51,0,17.27,0a7.56,7.56,0,0,1,2.76.25c.29.14.59.39.5.69-.65,2.21-1.06,4.55-3.17,6a11.81,11.81,0,0,1-3.14.2H666.73a4.45,4.45,0,0,0-2.8.43c.44.74,1.16.6,1.77.6q17,0,34.08,0c2,0,3.93-.63,5.8.42.17,2.26-1.06,4-2.22,5.73-.48.71-1.46.56-2.26.56-4.23,0-8.45,0-12.67,0-.66,0-1.38-.17-1.95.34.06,1.28,1.09.77,1.64.78,3.58.08,7.15,0,10.72,0a7.6,7.6,0,0,1,2.56.22c1.06.67.56,1.52.21,2.29-2.53,5.53-5,11.09-7.55,16.61-1.22,2.65-2.44,5.3-3.64,8C690.12,328.59,689.9,329.34,689.07,329.59Z" transform="translate(-400.02 -152.74)"/><path class="cls-8" d="M814.33,294.66c-1.52,1.35-1.77,3.27-2.28,5.07-.19.69-.44,1.37-.67,2.06-4.29,4.47-8.24,9.26-12.47,13.8-3.81,4.08-7.66,8.14-11.35,12.33-.23.27-.62.43-.61,1,5.16,0,10.31,0,15.46,0a2.7,2.7,0,0,1,1.46.13c-.1.25-.2.5-.29.75a3.13,3.13,0,0,1-2.11.58c-4.71,0-9.51.57-14.13-.12-8.27-1.23-16.53-.42-24.79-.62s-16.5,0-24.75,0c-1.49-.16-.82-1.11-.55-1.76,1-2.46,2.15-4.86,3.26-7.28,2.59-5.68,5.23-11.35,7.77-17.06a4.15,4.15,0,0,1,1.71-2.34c2-.57,4.14.07,6.56-.55-2-1-3.94,0-5.56-.87a.91.91,0,0,1-.32-1c.76-1.87,1.16-3.93,2.7-5.41,2.67-.49,5.37-.11,8-.23a20,20,0,0,0,3.1-.12c.45-.31.5-.63,0-1-2.61-.25-5.22,0-7.82-.11a6.6,6.6,0,0,1-2-.17c-.91-.48-.47-1.17-.19-1.73.74-1.49,1.3-3.05,2-4.54l.51-1c.89-1.83,1.65-3.73,2.55-5.56.37-.73.69-1.46,1.57-1.71a14,14,0,0,1,3.16-.16c11.54,0,23.07,0,34.61,0,.83,0,1.88.43,2.43-.67-.58-.75-1.39-.42-2.09-.43q-17.32,0-34.64,0c-3.38,0-3.63-.45-2.17-3.53,2.47-5.21,4.8-10.49,7.19-15.75a7.28,7.28,0,0,1,1.92-3.13,6.92,6.92,0,0,1,2.75-.26c9,0,17.92,0,26.87,0a1.49,1.49,0,0,0,.49-.2.94.94,0,0,0,.2-.67,1.05,1.05,0,0,0-.18-.44,1.36,1.36,0,0,0-.52-.19c-8.42-.06-16.82,0-25.23,0a10.15,10.15,0,0,1-2.58-.14.94.94,0,0,1-.56-1.36c.93-2.27,1.68-4.62,3.28-6.55.86.41.54,1.22.64,1.89,0,0,.06,0,.09,0s.1-.05.16-.07a2.9,2.9,0,0,1,.87.2c7.62.22,15.23.06,22.85.08a1.41,1.41,0,0,0,.69-.22.85.85,0,0,0,0-1.49,3.36,3.36,0,0,0-1.66-.2c-7.62,0-15.25,0-22.88,0-.93-.16-.81-.81-.56-1.4,1.36-3.22,2.86-6.37,4.36-9.53a1.89,1.89,0,0,1,1.22-1c10.31,0,20.61,0,30.92-.1,1.42,0,1.6.72,1.6,1.88Q814.33,264.11,814.33,294.66Z" transform="translate(-400.02 -152.74)"/><path class="cls-4" d="M749.82,301.47c-3.74,8.17-7.5,16.32-11.2,24.5a13.22,13.22,0,0,0-1.46,3.39.74.74,0,0,1-.4.32h-46.4c-.43,0-.86-.06-1.3-.1l8.9-19.34c1.06-2.3,2.1-4.61,3.15-6.91a3.57,3.57,0,0,0,.6-1.92,1.32,1.32,0,0,1,.54-.4c4.45-.45,8.92-.09,13.38-.21a8.78,8.78,0,0,0,3.44-.38c-5.45-.46-10.9-.23-16.35-.35-4.94.1-9.86,0-14.79,0a2.69,2.69,0,0,1-2.24-.62c.58-.54,1.3-.31,1.95-.31,4.6,0,9.2-.06,13.79,0a2.14,2.14,0,0,0,2.35-1.59c.53-1.38,1.13-2.74,1.7-4.11.66-.62,1.49-.43,2.27-.47,2.62-.1,5.24.19,7.84-.17.41-.3.44-.59,0-.89a67,67,0,0,0-6.79-.14c-.77,0-1.61.15-2.23-.55a45.35,45.35,0,0,0,2.59-5.83.94.94,0,0,1,.45-.43c2.44-.46,4.91-.11,7.37-.23a4.86,4.86,0,0,0,2.65-.46c-3.17-.69-6.08.09-8.89-.53a.9.9,0,0,1-.44-.44q1.31-2.89,2.59-5.79c.54-.68,1.32-.56,2-.57,2.44,0,4.89,0,7.34,0,.6,0,1.24.16,1.74-.29-.42-.81-1.17-.46-1.76-.47-2.93-.06-5.87,0-8.81,0-3.94.11-7.87,0-11.79,0a2.8,2.8,0,0,1-2.09-.53c.43-.69,1.12-.4,1.69-.41,3.6,0,7.2-.09,10.79,0a2.34,2.34,0,0,0,2.66-1.69c.45-1.22,1-2.38,1.56-3.57a.39.39,0,0,1,0-.49c1-.7,2.26-.06,3.29-.6a.6.6,0,0,0,0-.81c-.56-.46-1.47-.05-1.91-.77.36-2.11,2-3.72,2.28-5.84a.82.82,0,0,1,.39-.81,43.07,43.07,0,0,0,3.36-7.1c.83-.75,1.86-.49,2.83-.53a31.06,31.06,0,0,0,4.63-.22,5.19,5.19,0,0,0-2.93-.55c-1.63-.17-3.35.44-4.89-.54,1.51-.39,2.11-1.54,2.58-2.9a29.25,29.25,0,0,1,1.52-3.14c1-.76,2.15-.43,3.24-.49,1.82-.11,3.68.2,5.62-.27-.35-1-1-.82-1.59-.84-1.43,0-2.86,0-4.28,0a2.45,2.45,0,0,1-1.91-.54c1.21-3.43,2.94-6.63,4.41-9.94.26-.58.89-1.1.49-1.86.93,0,1.86-.1,2.79-.1h43.39c.74,0,1.48.06,2.22.1a96.64,96.64,0,0,0-5.54,11.79h0a60.24,60.24,0,0,0-3.38,7.46c.56.42,1.2.18,1.8.18,8.54,0,17.09,0,25.64,0a4.42,4.42,0,0,1,2,.16,1.29,1.29,0,0,1,0,.34c-.82.79-1.86.57-2.83.57-11.9,0-23.79,0-35.69.08a12.3,12.3,0,0,0-2.58.13c-.3.88.42.59.74.59,2.4,0,4.8,0,7.21,0,.78,0,1.63-.17,2.24.56-2,4.51-4,9-6.08,13.54-.94,2.09-1.91,4.17-2.92,6.22-.63,1.29-.68,1.88,1.14,1.87,12.22-.07,24.44,0,36.65,0,.71,0,1.5-.3,2.12.35a2.81,2.81,0,0,1-2.09.59c-12.88,0-25.76.08-38.63,0-4,.06-8.08-.11-12.11.34,3.51.75,7.08.05,10.59.63a1,1,0,0,1,.48.42c-1.12,2.34-1.92,4.83-3.38,7a9.92,9.92,0,0,0-2.91-.54c-5.78,0-11.55,0-17.32,0a1.94,1.94,0,0,0-1.65.4,4.37,4.37,0,0,0,2.2.29c5.59,0,11.18,0,16.76,0,.91,0,1.89-.19,2.61.64a46.61,46.61,0,0,1-2.61,5.87c-.69.73-1.6.51-2.44.54-3.56.11-7.13-.19-10.67.17-.43.29-.48.59,0,.89,3.23.32,6.46,0,9.68.14.79,0,1.63-.15,2.3.48-.41,2.1-1.92,3.78-2.24,5.91a1,1,0,0,1-.49.44c-4.19.49-8.41.09-12.61.23a5.6,5.6,0,0,0-2.68.34,4.31,4.31,0,0,0,2.45.38c3.9.13,7.8-.26,11.69.22A1.1,1.1,0,0,1,749.82,301.47Z" transform="translate(-400.02 -152.74)"/><path class="cls-36" d="M775.22,340.17l4.38-4.81.44,0a4.16,4.16,0,0,1,2.31-.6c5.88,0,11.75,0,17.63,0a2.63,2.63,0,0,1,2.08.61c-1.75,6.41-3.51,12.82-5.21,19.24-.22.85-.71.87-1.35.86h-3.9A3.17,3.17,0,0,1,791,353c0-2.85,0-5.7,0-8.55,0-2.56-1.09-3.6-3.65-3.66-3.23-.07-6.45,0-9.67,0C776.83,340.73,775.92,340.87,775.22,340.17Z" transform="translate(-400.02 -152.74)"/><path class="cls-37" d="M802.06,335.35l-22,0,5-5.65H736.76l.4-.32c13.15,0,26.31,0,39.46,0,9,0,18,.23,27,.36A28.64,28.64,0,0,1,802.06,335.35Z" transform="translate(-400.02 -152.74)"/><path class="cls-38" d="M647.21,234.08c0-.81.06-1.61.09-2.42.56.58.33,1.3.33,2q0,40.13,0,80.24c0,.7.33,1.51-.43,2.07" transform="translate(-400.02 -152.74)"/><path class="cls-39" d="M633.43,205.21c0,.78.17,1.64-.64,2.2a1.38,1.38,0,0,1-2-.24c-.51-.55-.53-3.52,0-4.09a1.39,1.39,0,0,1,2-.25C633.35,203.21,633.43,203.57,633.43,205.21Z" transform="translate(-400.02 -152.74)"/><path class="cls-15" d="M516.35,227.15H516a3,3,0,0,0-1.64-.17q-33.5,0-67,0c-.46,0-1-.26-1.38.24-.56.54-.43,1.25-.43,1.92q0,48.9,0,97.81c0,.58-.25,1.26.37,1.72a3.14,3.14,0,0,0,1.46.12c.64,0,1,.32.87.9-.3,1.85-.13,3.83-1.34,5.46a4.48,4.48,0,0,1-3.59,0c-.83-.87-.66-2-.56-3,.33-3.65.55-7.3.93-10.94a10,10,0,0,0-.14-4.07c-.1-.35-.2-.79-.63-.84s-.61.37-.78.69a10.81,10.81,0,0,0-.94,4.52c-.2,3.65-.68,7.29-.85,10.94a5.25,5.25,0,0,1-.6,2.34.32.32,0,0,1-.52.09c-.05-.62-.13-1.23-.13-1.85q0-53.94,0-107.88c0-3.94,1.82-6.41,5.31-7.24a5,5,0,0,0,1.85.13h73.18c1.34.07.86,1,.64,1.59-.8,2.21-1.88,4.3-2.89,6.41A5.32,5.32,0,0,1,516.35,227.15Z" transform="translate(-400.02 -152.74)"/><path class="cls-40" d="M516.73,226.05c1-2.64,2.53-5.09,3.37-7.82,0-.22.25-.26.37-.4l36.14-.05c1.57,3,2.86,6.21,4.85,9A2.49,2.49,0,0,1,560,227q-20.85,0-41.7,0C517.74,227,516.56,227.56,516.73,226.05Z" transform="translate(-400.02 -152.74)"/><path class="cls-41" d="M439.23,334.88h.29a3.67,3.67,0,0,1-.33,4.53l-.41,0C439,337.91,438.28,336.31,439.23,334.88Z" transform="translate(-400.02 -152.74)"/><path class="cls-9" d="M575.49,244.68c0,.13,0,.25,0,.37l-10.26,0-107.76,0c-.78,0-1.63.27-2.34-.3l.25-.27a6.22,6.22,0,0,1,2.93-.3H505a4,4,0,0,0,2.52-.38c2.11-3,3.14-6.46,4.78-9.66.32-.62.06-1.08-.71-1.14-.55,0-1.11,0-1.67,0q-25.81,0-51.62,0c-1.08,0-2.26.3-3.19-.6.71-.58,1.55-.32,2.33-.32q52.69,0,105.38,0l2.42,0,6.39,6.29a21.57,21.57,0,0,1-1.78,4.44c-.47,1.07-.23,1.41.92,1.48C572.37,244.33,574,243.76,575.49,244.68Z" transform="translate(-400.02 -152.74)"/><path class="cls-42" d="M575.49,244.68c-1.92,0-3.83,0-5.75,0-.5,0-1.4.11-.89-.81,1-1.83,1.32-4,2.81-5.57,1.4.44,2.16,2.19,3.91,1.94C575.54,241.73,575.52,243.21,575.49,244.68Z" transform="translate(-400.02 -152.74)"/><path class="cls-43" d="M516.73,226.05c.3,1.23,1.3.73,2,.73q21.38,0,42.74,0c0,.12,0,.25,0,.37l-45.15,0C516.37,226.75,516.29,226.32,516.73,226.05Z" transform="translate(-400.02 -152.74)"/><path class="cls-4" d="M532.43,322c3.49-.33,6.9-.14,10,1.73,3.71,2.5,4.95,6.22,5.54,10.48,3.31,23.79,6.75,47.57,10.15,71.35q3.15,21.94,6.35,43.87c.46,3.06,1.26,6.08,1.82,9.13.26,1.42,1,1.81,2.38,1.81q41.77-.08,83.54,0a5.08,5.08,0,0,1,2.56.27c-.44.35-1,.21-1.44.21H568.76c-.35,0-.7,0-1,0q40.53,0,81,0a46.54,46.54,0,0,0,6.68-.13,14.36,14.36,0,0,1,11.93,13.41c0,.87,0,1.73,0,2.6a16.57,16.57,0,0,1-5.75,9.94c-1.39,2.08-3.72,2.31-5.83,2.95a6.25,6.25,0,0,1-2,.29q-46.51.14-93,.08c-1.14,0-2.39.3-3.37-.65a16.23,16.23,0,0,1-6.64-2.66c-3.64-2.65-5.16-6.41-6.08-10.69-2.41-11.26-3.55-22.71-5.24-34.08-1.85-12.47-3.71-24.95-5.5-37.43s-3.51-25.22-5.31-37.83c-1.55-10.83-3.27-21.63-4.68-32.48-.54-4.11,1.33-7.48,4.66-10,.74-.55,1.56-1,2.34-1.5C531.31,322.16,532,322.27,532.43,322Z" transform="translate(-400.02 -152.74)"/><path class="cls-15" d="M557.4,489.31c1,0,2,.1,3,.09q46.8,0,93.58,0c.13,0,.25,0,.37,0-.46,1.17-1.52.86-2.36.87-5.55,0-11.11.12-16.67,0-2.32-.06-4,.39-4.63,2.83a3.16,3.16,0,0,1-.54,1c-1.59,1.51-3.17,3-5.63,2.7a7.77,7.77,0,0,0-2-.14c-10.78,0-21.56,0-32.34,0a3.11,3.11,0,0,0-1.45.17,2.47,2.47,0,0,1-.93.33c-4.28-.18-8.56-.07-12.84-.06-.11,0-.22-.06-.33-.09a1.76,1.76,0,0,0-.56-.41c-5.75-.19-11.51,0-17.27-.08s-11.25,0-16.88,0c-3.74-.51-6.09-3.2-6.45-7.39,7.51,0,15-.2,22.51.3C556.41,489.36,556.91,489.32,557.4,489.31Z" transform="translate(-400.02 -152.74)"/><path class="cls-5" d="M473.46,355.85l-21.64,0c.54-4.89,1-9.79,1.68-14.66.21-1.49-.06-1.91-1.49-1.79-.8.07-1.6,0-2.41,0-.36-1.84-.33-3.56,1.31-4.86,5.1-.24,10.2-.18,15.3,0a10.21,10.21,0,0,0,3.3.28,3,3,0,0,1,2.11.52c-.75,6.23,1.12,12.21,1.66,18.31C473.35,354.38,473.4,355.11,473.46,355.85Z" transform="translate(-400.02 -152.74)"/><path class="cls-44" d="M450.7,334.93c-.71,1.41-.6,3-1.1,4.5h-3.36c-.81-1.67-.27-3.14.71-4.54a31.68,31.68,0,0,1,.52-3.24c.42-1.53.75-2.9-1.55-3a2.56,2.56,0,0,0,2.47-3.6,3.55,3.55,0,0,1-.18-2.44c.56-3.42,1.23-6.83,1.78-10.25.21-1.35.61-1.89,2.13-1.56,3.6.79,3.6.71,2.9,4.36-.46,2.43-.83,4.89-1.33,7.31-.25,1.22.07,2.64-1.49,3.48-.46.24-.57,1.65-.4,2.43.12.51,1.11.23,1.71.24l21,.09-.31.3c-1.55.91-3.25.42-4.88.5-5.56,0-11.11-.07-16.66,0-1.21.54-.95,1.76-1.25,2.71-.22.71-.16,1.47-.39,2.19A1.89,1.89,0,0,1,450.7,334.93Z" transform="translate(-400.02 -152.74)"/><path class="cls-40" d="M450.7,334.93a.92.92,0,0,1,0-.33,3.34,3.34,0,0,1,2.47-.56c3.55,0,7.09-.11,10.63,0,2.07.08,3.3-.63,3.86-2.61a5.41,5.41,0,0,1,.89-1.84,2.24,2.24,0,0,1,.78-.58h4.9a33.93,33.93,0,0,0-2.5,5.89,17.2,17.2,0,0,1-5.31.08Z" transform="translate(-400.02 -152.74)"/><path class="cls-8" d="M532.43,322a1.57,1.57,0,0,1-1.48.67q-21.71,0-43.42,0c-.71,0-1.51.28-2.13-.35a12.73,12.73,0,0,1,2-.32Q509.93,322,532.43,322Z" transform="translate(-400.02 -152.74)"/><path class="cls-45" d="M466.41,335l5.31-.08c0,.14-.07.27-.1.4C469.88,335.17,468.11,335.68,466.41,335Z" transform="translate(-400.02 -152.74)"/><path class="cls-25" d="M588.36,556.42H574.12c0-.62.08-1.24.08-1.86l-.06-57.7a.26.26,0,0,1,.41,0h0a3,3,0,0,1,.51,2.3c0,3,0,6.08,0,9.12,0,2.36.15,2.47,2.45,1.64,2.92-1.05,5.81-2.18,8.76-3.14.64-.21,1.39-.77,2,.13a6.59,6.59,0,0,1,.28,2.57c0,15.12,0,30.24,0,45.36A3.54,3.54,0,0,1,588.36,556.42Z" transform="translate(-400.02 -152.74)"/><path class="cls-46" d="M539.86,496.42c.5-.54,1.16-.34,1.75-.34h31.18c.6,0,1.26-.2,1.75.36a2,2,0,0,1-1.26.18h-32a3,3,0,0,1-1.11-.11A.38.38,0,0,1,539.86,496.42Z" transform="translate(-400.02 -152.74)"/><path class="cls-12" d="M540.16,496.52c3.1,0,6.19-.11,9.28-.11,8.37,0,16.73,0,25.1,0a1.14,1.14,0,0,1,0,.37l-.41,0c-9.55,0-19.1,0-28.64-.11C543.72,496.72,541.92,497.05,540.16,496.52Z" transform="translate(-400.02 -152.74)"/><path class="cls-47" d="M548,568.76h22.79v.41H560.6c-3.91,0-7.81,0-11.72,0-.65,0-1.38.24-1.94-.34Z" transform="translate(-400.02 -152.74)"/><path class="cls-48" d="M571.55,556.53c0,3.33,0,6.67,0,10,0,.64.28,1.39-.42,1.88,0-3.57,0-7.13,0-10.7C571.1,557.3,570.77,556.67,571.55,556.53Z" transform="translate(-400.02 -152.74)"/><path class="cls-26" d="M925.72,575.55c-4,0-8.08,0-12.12,0-1.48,0-2.7-.38-2.67-2.09s1.21-2,2.6-2H938c1.5,0,2.72.49,2.68,2.12s-1.31,2-2.8,2C933.8,575.51,929.76,575.55,925.72,575.55Z" transform="translate(-400.02 -152.74)"/><path class="cls-26" d="M926.79,484.39c4.09,0,8.18,0,12.28,0,1.4,0,2.53.33,2.51,2s-1.17,2-2.55,2H914.47c-1.41,0-2.55-.4-2.54-2s1.15-2,2.58-2C918.6,484.41,922.69,484.39,926.79,484.39Z" transform="translate(-400.02 -152.74)"/><path class="cls-2" d="M939.91,484.08H913.68v-.18H940Z" transform="translate(-400.02 -152.74)"/><path class="cls-26" d="M925.78,531.94c-4,0-8.06,0-12.09,0-1.43,0-2.67-.18-2.77-2-.08-1.4.9-2.12,2.85-2.13h24c1.89,0,3,.8,2.91,2.09-.19,1.79-1.47,2-3,2C933.72,531.91,929.75,531.94,925.78,531.94Z" transform="translate(-400.02 -152.74)"/><path class="cls-8" d="M981.07,451.31q.69,2.58,1.36,5.16c-.22.62-.88.49-1.31.76l-3,.83H937.89a13,13,0,0,0,7-7.12,4.88,4.88,0,0,1,2.87-.59q15.25,0,30.5,0C979.26,450.36,980.38,450.22,981.07,451.31Z" transform="translate(-400.02 -152.74)"/><path class="cls-49" d="M981.12,457.23a1.84,1.84,0,0,1,1.31-.76c0,.26.07.52.1.78Z" transform="translate(-400.02 -152.74)"/><path class="cls-4" d="M775.22,340.17l12.49.05c2.74,0,3.82,1.11,3.84,3.86,0,3.79,0,7.58.05,11.36a.45.45,0,0,0,0,.36,2.86,2.86,0,0,1,.59,1.91q0,5.22,0,10.42a2.82,2.82,0,0,1-.59,1.92c0,3-.05,5.92-.07,8.88q-6.46,0-12.94,0c-.54,0-1.13.14-1.57-.33-2.29-1.19-3.4-3.38-4.56-5.49-4-7.17-5.81-15-6.72-23.05-.3-2.64-.68-5.28-.75-7.94a3.46,3.46,0,0,1,.18-1.83Z" transform="translate(-400.02 -152.74)"/><path class="cls-2" d="M765.17,340.3c.64,1.84.45,3.78.63,5.66.86,9.28,2.51,18.31,6.93,26.66a36.29,36.29,0,0,0,4.29,6c-5.1.7-10.23.2-15.35.32a4,4,0,0,1-.38-2.87,4.47,4.47,0,0,0-2.45-4.92,4.61,4.61,0,0,1-1-.81,20.63,20.63,0,0,1-6.36-10.41,6.69,6.69,0,0,1,.11-4.35c.83-4.52,3.36-6.95,8.46-7.8,1.41-.23,1.75-.79,1.63-2a18.44,18.44,0,0,1,0-2.23C761.71,341.19,762.74,340.25,765.17,340.3Z" transform="translate(-400.02 -152.74)"/><path class="cls-5" d="M758.07,370c2.9,1.42,4.23,3.64,3.61,6.91a11.35,11.35,0,0,0,0,2c-9.38,0-18.76,0-28.15.05a8.82,8.82,0,0,1-3-.8,4.62,4.62,0,0,1-1.61-4c.15-1-.27-1.31-1.23-1.28-1.68.05-3.35,0-5,0,.39-1.15,1.43-.86,2.2-.83,2.15.06,4.15-.07,5.86-1.7,1-.91,2.39-.95,3.72-.95,5.65,0,11.31,0,17,0C753.61,369.56,755.91,369,758.07,370Z" transform="translate(-400.02 -152.74)"/><path class="cls-4" d="M981.07,451.31a3.71,3.71,0,0,0-1.8-.36q-16.39,0-32.8,0c-.53,0-1.07.38-1.61,0A11.7,11.7,0,0,0,943,440.79c-1.17-1.61-3-2.32-4.47-3.48.77-1,1.9-.75,2.91-.75q13.85,0,27.7,0a34.41,34.41,0,0,0,5.37-.31c1.17.15,2.45-.36,3.47.6,1,4.34,1.95,8.67,2.91,13A13.86,13.86,0,0,1,981.07,451.31Z" transform="translate(-400.02 -152.74)"/><path class="cls-8" d="M974.72,436.74a19.55,19.55,0,0,1-5.34.49q-15.42,0-30.86.08L924,437.17a12,12,0,0,0,7.14-5.66,3.85,3.85,0,0,1,2.68-.56h41a6.71,6.71,0,0,1,1.84.21c.33,1.35.65,2.7,1,4.05C977,436.34,975.74,436.31,974.72,436.74Z" transform="translate(-400.02 -152.74)"/><path class="cls-8" d="M936.3,415.78l26.83.08,10.07,0a34.3,34.3,0,0,1,1.18,5.59,3.08,3.08,0,0,1-2.45.61q-19.15,0-38.31,0a4.46,4.46,0,0,1-2.5-.57c-1.57-2.89-4.18-4.46-7.13-5.6Z" transform="translate(-400.02 -152.74)"/><path class="cls-4" d="M931.12,421.52l43.26,0c1,3.17,1.57,6.44,2.27,9.68-.36.47-.88.4-1.37.4l-44.16,0A11.51,11.51,0,0,0,931.12,421.52Z" transform="translate(-400.02 -152.74)"/><path class="cls-50" d="M974.72,436.74l2.91-1.54c.11.55.23,1.09.34,1.64Z" transform="translate(-400.02 -152.74)"/><path class="cls-51" d="M439.19,339.4a15,15,0,0,0,.33-4.53c.5-5.47,1-10.94,1.47-16.41a6.38,6.38,0,0,1,1.57-3.09c.44-.65.76-.33,1,.23a9.87,9.87,0,0,1,.69,5.62,132.88,132.88,0,0,0-1,13.67c.13,1.53.61,3.1-.48,4.5Z" transform="translate(-400.02 -152.74)"/><path class="cls-5" d="M442.79,339.39c.26-1.49-.22-3.06.48-4.5H447c-.2,1.52-.78,3-.71,4.54Z" transform="translate(-400.02 -152.74)"/><path class="cls-52" d="M839,305.19c-4.71,0-9.42,0-14.13-.12-.6,0-1.79.72-1.83-.65s1.11-1.17,2-1.18l14.69-.06c2.48,0,5,0,7.44.1.61,0,1.81-.73,1.83.66s-1.1,1.18-2,1.18C844.29,305.13,841.62,305.16,839,305.19Z" transform="translate(-400.02 -152.74)"/><path class="cls-53" d="M815.49,328.24c.08-1.38.79-1.85,2.17-1.83,3.87.06,7.74,0,11.61,0,1.09.22,2.28-.41,3.3.41-1.22.86-3.05.06-4.06,1.48Z" transform="translate(-400.02 -152.74)"/><path class="cls-52" d="M837.29,334.24c1.61,0,3.22,0,4.83,0,.41,0,1.3-.45,1.17.6-.09.66-.29,1.29-1.26,1.26-2.17-.06-4.34,0-6.51,0-1.17,0-2.35,0-3.53,0-.43,0-1.28.41-1.18-.6.07-.7.33-1.29,1.27-1.26C833.82,334.28,835.55,334.24,837.29,334.24Z" transform="translate(-400.02 -152.74)"/><path class="cls-54" d="M872.49,303.23c0,.85,0,1.69-1.08,2-3.33,0-6.66,0-10-.1-.48,0-1.4.51-1.41-.54s.51-1.35,1.56-1.33C865.21,303.28,868.85,303.23,872.49,303.23Z" transform="translate(-400.02 -152.74)"/><path class="cls-55" d="M836,311.16c3.66,0,7.31-.1,11-.11.47,0,1.27-.32,1.25.6,0,.72-.32,1.31-1.24,1.29-1.36,0-2.73,0-4.09,0l-7.25-.05C835.1,312.16,835.54,311.65,836,311.16Z" transform="translate(-400.02 -152.74)"/><path class="cls-56" d="M824.79,336.18H813.13c-.09-1.6.57-2,1.91-2,3.58.1,7.18.07,10.77.09C825.47,334.93,825.68,335.85,824.79,336.18Z" transform="translate(-400.02 -152.74)"/><path class="cls-56" d="M838.46,320.69c-1.17,0-2.35,0-3.53,0-.41,0-1.16.31-1.1-.5,0-.61.11-1.47,1.06-1.48,2.72,0,5.45,0,8.17,0,.48,0,.91.1.74.72s-.21,1.28-1.07,1.28h-4.27Z" transform="translate(-400.02 -152.74)"/><path class="cls-55" d="M860.6,311c1.42,0,2.84,0,4.27,0,.38,0,1.14-.35,1,.55-.07.59-.18,1.31-1,1.31q-4.74,0-9.48,0c-.38,0-.8-.07-.7-.59.12-.68.3-1.33,1.24-1.31C857.5,311.06,859.05,311,860.6,311Z" transform="translate(-400.02 -152.74)"/><path class="cls-53" d="M814,359.58h-6.78c-.67,0-1.42.11-1.43-.94s.52-1.31,1.4-1.29c2.52.05,5.05-.22,7.54.36A2.27,2.27,0,0,1,814,359.58Z" transform="translate(-400.02 -152.74)"/><path class="cls-56" d="M854.07,305.11c-1,0-2,0-3,0-.4,0-1.16.33-1.11-.49,0-.54.08-1.34,1-1.35,2.48,0,4.95,0,7.42,0,.38,0,.57.18.47.57-.16.59-.19,1.28-1.05,1.28Z" transform="translate(-400.02 -152.74)"/><path class="cls-53" d="M836,311.16c-.12.57-.25,1.15-.37,1.72l-.42.1c-.74,0-1.48,0-2.23,0-2,0-2,0-1.12-1.89Z" transform="translate(-400.02 -152.74)"/><path class="cls-55" d="M851.25,312.91c-.46-.12-1.25.35-1.73-.3-.27-.37.05-.84.29-1.2s3.68-.63,3.87-.2a1.1,1.1,0,0,1-.78,1.68A8,8,0,0,1,851.25,312.91Z" transform="translate(-400.02 -152.74)"/><path class="cls-56" d="M828.06,336.06c-.32-.18-1.27.54-1.23-.58a1.21,1.21,0,0,1,1.61-1.25c.55.11,1.54-.43,1.48.73S829.12,336.24,828.06,336.06Z" transform="translate(-400.02 -152.74)"/><path class="cls-55" d="M828.51,328.26c.12-1.25.85-1.65,2-1.53.67.07,1.35,0,2,0-.06,1.22-.7,1.69-1.9,1.55C830,328.25,829.23,328.28,828.51,328.26Z" transform="translate(-400.02 -152.74)"/><path class="cls-57" d="M868,313c-.36-.17-1.07.16-.95-.71a1.48,1.48,0,0,1,1.74-1.37v.15c.26.83-.23,1.33-.79,1.79Z" transform="translate(-400.02 -152.74)"/><path class="cls-53" d="M873.82,320.73c-2.29,0-4.58,0-6.87,0-.46,0-1.32.37-1.31-.5s.23-1.65,1.38-1.6c.68,0,1.36,0,2,0,4,0,8.05,0,12.07,0,.53,0,1.41-.34,1.42.66a1.28,1.28,0,0,1-1.49,1.45C878.65,320.69,876.23,320.73,873.82,320.73Z" transform="translate(-400.02 -152.74)"/><path class="cls-54" d="M868,312.86c.26-.6.53-1.19.79-1.79,5.82,0,11.65-.05,17.47,0,.48,0,1.41-.49,1.37.6a1.23,1.23,0,0,1-1.42,1.31C880.18,312.88,874.11,312.88,868,312.86Z" transform="translate(-400.02 -152.74)"/><path class="cls-53" d="M874.34,305.05c-.19-.07-1,.37-1-.54,0-1.29,1-1.38,2-1.25.43.06,1.25-.37,1.13.67S875.57,305.26,874.34,305.05Z" transform="translate(-400.02 -152.74)"/><path class="cls-52" d="M823.14,318.67c1.24,0,2.48,0,3.72,0,.42,0,1.19-.32,1.16.45,0,.58-.06,1.51-1,1.52-2.79,0-5.57,0-8.36,0-.44,0-.72-.18-.62-.67.13-.68.27-1.36,1.21-1.34C820.54,318.69,821.84,318.67,823.14,318.67Z" transform="translate(-400.02 -152.74)"/><path class="cls-54" d="M825.2,312.93c-1.18,0-2.36.05-3.53,0-.42,0-1.3.44-1.18-.58.07-.64.22-1.34,1.21-1.32,2.54.05,5.08,0,7.62,0,.4,0,1.16-.34,1.11.5,0,.64-.16,1.41-1.14,1.4C827.93,312.91,826.56,312.92,825.2,312.93Z" transform="translate(-400.02 -152.74)"/><path class="cls-2" d="M803.87,329a2.77,2.77,0,0,1-.86.33c-5.68,0-11.36,0-17.34,0,1.61-1.82,3-3.46,4.45-5,7-7.39,13.91-14.89,20.52-22.65.37-.44.6-.71.74.1Q807.63,315.4,803.87,329Z" transform="translate(-400.02 -152.74)"/><path class="cls-53" d="M849.7,375.44c-.93,0-1.87-.06-2.79,0s-1.57-.17-1.55-1.4.49-1.33,1.47-1.31c1.92.06,3.84.06,5.77,0,1,0,1.45.19,1.43,1.32s-.26,1.48-1.36,1.39S850.69,375.44,849.7,375.44Z" transform="translate(-400.02 -152.74)"/><path class="cls-53" d="M839.82,372.76c.62,0,1.24.05,1.86,0,1.1-.12,1.32.38,1.35,1.39s-.45,1.37-1.44,1.31-2.1,0-3.16,0c-.88,0-1.78.28-1.81-1.29s.94-1.38,1.9-1.39Z" transform="translate(-400.02 -152.74)"/><path class="cls-2" d="M544.41,289.86c-.53-.8-1.35-.47-2-.48q-13.51,0-27,0c-2.42,0-2.68-.27-2.68-2.65,0-4.1,0-8.2,0-12.3,0-2.28.22-2.51,2.41-2.51h40.8a42.89,42.89,0,0,0-10.57,15.53C545,288.25,544.71,289.06,544.41,289.86Z" transform="translate(-400.02 -152.74)"/><path class="cls-58" d="M542.45,302.82c.1-3,.1-3-2.94-3H513.82c-.5,0-.83-.14-.81-.74s.43-.65.89-.64h26.62c.74,0,1.49-.06,2.23-.09C542.34,299.82,543.42,301.39,542.45,302.82Z" transform="translate(-400.02 -152.74)"/><path class="cls-59" d="M543.11,295.51,521,295.4c-2.17,0-4.35,0-6.52,0-.52,0-1.39.39-1.4-.65s.84-.71,1.38-.71c7.2,0,14.4,0,21.61,0a55.86,55.86,0,0,0,7.43-.15C543.34,294.4,543.22,295,543.11,295.51Z" transform="translate(-400.02 -152.74)"/><path class="cls-60" d="M542.46,304.27l-27.34,0-1.48,0c-.48,0-.62-.3-.61-.73a.51.51,0,0,1,.57-.56h1.31l27.52,0a2.29,2.29,0,0,1,0,.37c-.29.23-.62.45,0,.71A1.13,1.13,0,0,1,542.46,304.27Z" transform="translate(-400.02 -152.74)"/><path class="cls-4" d="M655.45,460.69c-.51.52-1.17.32-1.76.32H568.54c-.48,0-1,.15-1.47-.19a4.06,4.06,0,0,1,2-.16h83.47c.75,0,1.49,0,2.24,0Z" transform="translate(-400.02 -152.74)"/><path class="cls-61" d="M542.42,308.6l-3.68-.1c-.32-.74.37-.81.73-1.09l3-.1Z" transform="translate(-400.02 -152.74)"/><path class="cls-62" d="M542.4,304c-.38,0-1.07.19-1.09-.2,0-.63.68-.45,1.13-.51C542.42,303.49,542.41,303.72,542.4,304Z" transform="translate(-400.02 -152.74)"/><path class="cls-3" d="M629.71,494.27c.16-1.52,1.26-2.65,1.64-4.1.19-.75,1.07-.42,1.65-.42l19.37,0c.66,0,1.38.23,2-.31a18.55,18.55,0,0,0,7.31-2.77c.64,6.24.9,12.51,1,18.78.26,25.91-1.31,51.75-2.74,77.6-.72,2.88-.72,2.82-3.89,2.94-5.88.22-11.76.52-17.64.79a23.52,23.52,0,0,0-8.2-11.84,3.4,3.4,0,0,1-.47-.58V574c-.15-1.61,0-3.22-.13-4.83.13-9.62.44-19.24.7-28.86.14-4.91.06-9.82,0-14.73-.08-9.57-.28-19.12-1-28.66A3.37,3.37,0,0,1,629.71,494.27Z" transform="translate(-400.02 -152.74)"/><path class="cls-29" d="M674.08,589.77c-2.05,2.22-4.1,4.45-6.17,6.65-.35.38-.78,1.05-1.36.51s.06-1,.41-1.37c1.87-2,3.77-4.08,5.65-6.12.49-.23.69-1.12,1.44-.71C674.52,589,674.39,589.41,674.08,589.77Z" transform="translate(-400.02 -152.74)"/><path class="cls-63" d="M664.5,586.64c-2,1.42-3.26,3.54-5,5.17-.43.39-.88,1.25-1.48.69-.76-.7.21-1.18.61-1.64,1.43-1.62,2.9-3.21,4.36-4.81.58-.21.87-1.22,1.63-.82S664.67,586.17,664.5,586.64Z" transform="translate(-400.02 -152.74)"/><path class="cls-30" d="M669.22,587.91c-1.85,2-3.68,4-5.53,6-.36.38-.82,1-1.37.37-.42-.47.09-.9.43-1.25a57,57,0,0,0,4.7-5.25C668.05,587.75,668.77,585.9,669.22,587.91Z" transform="translate(-400.02 -152.74)"/><path class="cls-64" d="M575.62,576.75l-27.44,0-.84-.16,0-.28h9.16c5.75,0,11.5,0,17.26,0C574.42,576.28,575.18,576,575.62,576.75Z" transform="translate(-400.02 -152.74)"/><path class="cls-64" d="M613.58,576.69q-12.95.24-25.89,0c-.21-.3-.08-.44.23-.44h27C614.45,576.8,614,576.53,613.58,576.69Z" transform="translate(-400.02 -152.74)"/><path class="cls-47" d="M613.77,568.76l1,.06c-.37.45-.89.35-1.38.35h-21a.76.76,0,0,1-.7-.41Z" transform="translate(-400.02 -152.74)"/><path class="cls-65" d="M590.58,556.53l.36.05V568h-.36Z" transform="translate(-400.02 -152.74)"/><path class="cls-34" d="M751.3,370c-5.71,0-11.42,0-17.14,0a5.09,5.09,0,0,0-4.55,2c-.49.7-1.17.54-1.83.59-1.72.13-3.46-.3-5.15.3l-.36.08q0-9.11,0-18.23c1.15.39,2.31,0,3.46,0a39.79,39.79,0,0,1,10.6,1.13,16.08,16.08,0,0,1,11.85,7.33A51.88,51.88,0,0,1,751,368C751.3,368.59,751.88,369.23,751.3,370Z" transform="translate(-400.02 -152.74)"/><path class="cls-66" d="M751.3,370c-2.63-6.82-6.79-12.06-14.29-13.87a3.53,3.53,0,0,1-.67-.28c.68-.63,1.42-.07,2.13-.09,4.37-.13,8.74.22,13.11-.2-.3,5.92,2.54,10.42,6.49,14.43Z" transform="translate(-400.02 -152.74)"/><path class="cls-11" d="M454.08,267.1c-.77-.37-.68-1.09-.68-1.77,0-4.4,0-8.81,0-13.22,0-1.62.62-2.16,2.21-2.16,15.58,0,31.15,0,46.73,0,.66,0,1.4-.15,1.78.65a9.81,9.81,0,0,1-.84,5.95c-1.45,3.09-2.86,6.19-4.29,9.29a2,2,0,0,1-2.11,1.41q-21,0-42.06,0A1.41,1.41,0,0,1,454.08,267.1Z" transform="translate(-400.02 -152.74)"/><path class="cls-42" d="M455.14,232.35h58.54c-1.75,4.23-3.58,8.13-5.52,12a7.81,7.81,0,0,1-2.41.18H457.28a7,7,0,0,0-2,.11l-.06.13a2.46,2.46,0,0,1-1.45-2.56c0-2.42,0-4.83,0-7.25A2.5,2.5,0,0,1,455.14,232.35Z" transform="translate(-400.02 -152.74)"/><path class="cls-8" d="M485.77,293.56l16.94-.08c1.17,0,1.7.57,1.7,1.72,0,4.65,0,9.31,0,14a1.52,1.52,0,0,1-1.52,1.73,11.2,11.2,0,0,1-1.3.07l-45.43,0a2.35,2.35,0,0,1-1.45-.22c.73-.83,1.72-.57,2.62-.58,6.45,0,12.89,0,19.33,0,1.13,0,1.27-1,1.62-1.76,2-4.24,3.89-8.53,5.92-12.75a8.27,8.27,0,0,1,.9-1.62A6.29,6.29,0,0,1,485.77,293.56Z" transform="translate(-400.02 -152.74)"/><path class="cls-67" d="M563.78,264.05c.43.54.52,1-.34,1.15a8.17,8.17,0,0,1-1.31,0H513.66c-.45,0-.66-.22-.65-.68a.61.61,0,0,1,.68-.68h48.85c.41,0,.87-.15,1.23.22-1.45.86-3,.3-4.44.39C560.81,264.27,562.33,264.92,563.78,264.05Z" transform="translate(-400.02 -152.74)"/><path class="cls-2" d="M454.08,267.1c14,0,27.94,0,41.91,0,1.21,0,2-.17,2.53-1.51,1.57-3.77,3.37-7.44,5.14-11.13.61-1.26.28-2.57.44-3.84.47.37.32.9.32,1.38,0,4.41-.05,8.82,0,13.23,0,1.6-.6,2.19-2.2,2.19q-23.28,0-46.57,0C455.12,267.43,454.52,267.62,454.08,267.1Z" transform="translate(-400.02 -152.74)"/><path class="cls-68" d="M538.56,251.9H514c-.42,0-.9.07-.93-.59s.38-.68.85-.68h.93q23.66,0,47.33,0c.62,0,1.76-.55,1.81.56s-1.13.63-1.73.65c-2.42.08-4.84,0-7.26,0Z" transform="translate(-400.02 -152.74)"/><path class="cls-69" d="M538.55,256.32H513.76c-.4,0-.72-.1-.74-.61s.28-.63.69-.64H563.3c.39,0,.73.09.74.61s-.28.64-.69.66-.75,0-1.12,0Z" transform="translate(-400.02 -152.74)"/><path class="cls-70" d="M561.11,260.68q-14.9,0-29.78.07-8.48,0-17,0c-.47,0-1.25.34-1.32-.53-.09-1.08.81-.72,1.33-.72q23.26,0,46.55,0a3.7,3.7,0,0,1,.55.09C561.8,260.09,561.41,260.37,561.11,260.68Z" transform="translate(-400.02 -152.74)"/><path class="cls-71" d="M490.64,281.93l-36.29.07c-.82,0-1.4-.11-1-1.13a3.06,3.06,0,0,1,1.64-.17h47.35a2.72,2.72,0,0,1,1.64.19l.05.73c-3.74.19-7.49-.15-11.24.05A6.94,6.94,0,0,0,490.64,281.93Z" transform="translate(-400.02 -152.74)"/><path class="cls-72" d="M495.1,273l-27.74.08q-6.53,0-13,0c-.44,0-1.07.22-1.07-.62s.62-.62,1.07-.62l41.15.08C495.89,272.48,495.53,272.76,495.1,273Z" transform="translate(-400.02 -152.74)"/><path class="cls-73" d="M492.87,277.47l-38.55.06c-.46,0-1.11.19-1.06-.63.07-1,.92-.63,1.43-.63q18,0,35.95,0c1,0,2,.07,3,.1C493.93,277.11,493.25,277.19,492.87,277.47Z" transform="translate(-400.02 -152.74)"/><path class="cls-74" d="M504,285.37v.72a2.34,2.34,0,0,1-1.45.18H454.79a2.77,2.77,0,0,1-1.45-.16v-.79a3.31,3.31,0,0,1,1.65-.15H502.4A2.73,2.73,0,0,1,504,285.37Z" transform="translate(-400.02 -152.74)"/><path class="cls-2" d="M485.77,293.56l-.36.37c-.57.84-1.43.6-2.21.6-8.5,0-17,0-25.51,0-2.94,0-3,.09-3,3,0,3.1,0,6.21,0,9.31,0,2.79.11,2.89,3,2.89,6.09,0,12.17,0,18.25,0,.61,0,1.69-.51,1.68.87l-20.44.05c-.8,0-1.6.06-2.41.09-1.17.1-1.3-.73-1.3-1.57,0-4.66,0-9.31,0-14,0-1.11.46-1.77,1.65-1.77Z" transform="translate(-400.02 -152.74)"/><path class="cls-75" d="M539.47,307.41c-.24.36-.49.72-.73,1.09l-24.72.09c-.49,0-1.07.08-1-.71s.72-.53,1.16-.53Q526.83,307.37,539.47,307.41Z" transform="translate(-400.02 -152.74)"/><path class="cls-76" d="M446,227.23c-.12-.86.56-.41.8-.41q33.92,0,67.83,0c.48,0,1-.1,1.38.36-.43,0-.87.07-1.3.07Z" transform="translate(-400.02 -152.74)"/><path class="cls-77" d="M453.34,286.12l50.71,0c-.3.63-.88.33-1.31.33q-24,0-48.08,0C454.22,286.43,453.65,286.72,453.34,286.12Z" transform="translate(-400.02 -152.74)"/><path class="cls-78" d="M504,280.89l-50.63,0c.38-.51.92-.26,1.37-.26q24,0,47.89,0C503.09,280.63,503.64,280.37,504,280.89Z" transform="translate(-400.02 -152.74)"/><path class="cls-77" d="M504,285.37l-50.7,0c.33-.58.9-.29,1.34-.29q24,0,48,0C503.16,285.05,503.72,284.75,504,285.37Z" transform="translate(-400.02 -152.74)"/><path class="cls-28" d="M575.58,250c0,.95.24,1.93-.25,2.85l-3.3-.37c-.59-.08-1.29-.05-1.25-1s.43-1.45,1.3-1.5C573.25,249.93,574.42,250,575.58,250Z" transform="translate(-400.02 -152.74)"/><path class="cls-79" d="M492.87,277.47l.74-1.11,9.46-.1c.47,0,1.06-.15,1.07.64s-.6.63-1.06.63Z" transform="translate(-400.02 -152.74)"/><path class="cls-80" d="M495.1,273c.12-.36.25-.72.37-1.09l7.61-.08c.45,0,1.06-.19,1.06.63s-.62.62-1.06.61C500.42,273.08,497.76,273.05,495.1,273Z" transform="translate(-400.02 -152.74)"/><path class="cls-78" d="M490.64,281.93c1.16-.95,2.59-.58,3.88-.63a49.9,49.9,0,0,1,9.54.32c-.08.41-.41.37-.71.37Z" transform="translate(-400.02 -152.74)"/><path class="cls-81" d="M561.11,260.68l.38-1.11c.86.11,2.35-.79,2.42.55s-1.48.36-2.25.63A1.35,1.35,0,0,1,561.11,260.68Z" transform="translate(-400.02 -152.74)"/><path class="cls-42" d="M689.59,245.74c-8.27,0-16.53,0-24.79,0-.74,0-1.89.51-1.95-1s1.06-1.09,1.84-1.09q25.06,0,50.13,0c.64,0,1.6-.45,1.82.7.28,1.48-.72,1.4-1.71,1.4Z" transform="translate(-400.02 -152.74)"/><path class="cls-42" d="M706.56,291.29c2.79,0,5.57,0,8.36,0,.58,0,1.25-.25,1.72.37a3.41,3.41,0,0,1-2.48.55,63.57,63.57,0,0,0-6.62.22c2.19.2,4.39.15,6.59.18a3.48,3.48,0,0,1,2.49.54c-.74.7-1.64.33-2.46.34-2.89,0-5.79,0-8.68,0l-40.13,0c-.5,0-1,0-1.49,0-.69,0-1-.29-1-1s.32-1.14,1.1-1.11c.5,0,1,0,1.49,0h38.9C705.07,291.36,705.82,291.32,706.56,291.29Z" transform="translate(-400.02 -152.74)"/><path class="cls-42" d="M680.07,267.52h15.81c.78,0,1.73-.21,1.7,1.09s-.91,1-1.62,1H664.32c-.77,0-1.51.05-1.47-1.11s.88-1,1.58-1Z" transform="translate(-400.02 -152.74)"/><path class="cls-42" d="M720.37,260.74l-.39.8-32.19,0H686.3c-.61,0-.89-.28-.91-.89s.29-1,1-1,1.24,0,1.86,0h30.33C719.38,259.61,720.44,259.31,720.37,260.74Z" transform="translate(-400.02 -152.74)"/><path class="cls-42" d="M702.83,253.62H687.18c-.76,0-1.77.26-1.76-1s1-.85,1.67-.85q15.75,0,31.5,0c.72,0,1.78-.38,1.73,1s-1.15.87-1.83.87C713.27,253.64,708.05,253.62,702.83,253.62Z" transform="translate(-400.02 -152.74)"/><path class="cls-53" d="M675.6,277.49H664.25c-.74,0-1.52.13-1.46-1.07s.86-.84,1.47-.84q11.36,0,22.71,0c.66,0,1.36-.15,1.36,1s-.7.95-1.37.95Z" transform="translate(-400.02 -152.74)"/><path class="cls-42" d="M709.55,285.36l-.4.1-21.2-.08h-1.31c-.66,0-1.28,0-1.23-.93s.75-1,1.46-1c4.58,0,9.17,0,13.76,0,3.22,0,6.44-.07,9.66-.11v.17C710.55,284.36,710,284.85,709.55,285.36Z" transform="translate(-400.02 -152.74)"/><path class="cls-54" d="M673,285.4h-8.74c-.63,0-1.41.23-1.45-.89s.62-1,1.33-1h17.68c.64,0,1.23-.06,1.26.9s-.62,1-1.33,1Z" transform="translate(-400.02 -152.74)"/><path class="cls-82" d="M672.83,261.51c-2.92,0-5.84,0-8.75,0-.73,0-1.34,0-1.31-1s.61-.9,1.24-.9h17.87c.66,0,1.19,0,1.21.92s-.63,1-1.33,1Z" transform="translate(-400.02 -152.74)"/><path class="cls-54" d="M673.19,251.69h8.56c.72,0,1.36,0,1.33,1s-.63.9-1.26.9H664.15c-.72,0-1.38,0-1.34-1s.82-.89,1.45-.89C667.24,251.68,670.22,251.69,673.19,251.69Z" transform="translate(-400.02 -152.74)"/><path class="cls-42" d="M673,299.49h8.74c.72,0,1.38,0,1.34,1s-.69.87-1.3.87H664.11c-.66,0-1.25,0-1.26-.93s.55-1,1.22-1Z" transform="translate(-400.02 -152.74)"/><path class="cls-42" d="M685.69,299.49l17.16.06c.25.79-.23,1.28-.72,1.77l-.42.1c-4.92,0-9.84,0-14.76,0C685.46,301.4,685,300.86,685.69,299.49Z" transform="translate(-400.02 -152.74)"/><path class="cls-83" d="M699.55,275.71l14.11,0c.35,1,1.17.94,2,.94,2.4,0,4.8,0,7.2,0a3,3,0,0,1,2.28.52c-.43.72-1.12.34-1.67.35-3.53.06-7.05.07-10.58.09-3.84,0-7.68-.13-11.51-.05C699.92,277.56,699.27,277.2,699.55,275.71Z" transform="translate(-400.02 -152.74)"/><path class="cls-57" d="M728.55,243.59l7.26.06c.71,0,1.36-.05,1.37,1s-.58,1.05-1.32,1.05l-8.39,0a1.21,1.21,0,0,0,0-.19c-.38-.86.1-1.37.72-1.82Z" transform="translate(-400.02 -152.74)"/><path class="cls-54" d="M728.2,243.75l-.72,1.82c-2.41,0-4.82.08-7.22.14-.81,0-1.09-.32-1.07-1.11s.36-1,1-.95Z" transform="translate(-400.02 -152.74)"/><path class="cls-56" d="M723.37,251.8l7.24-.09c.62,0,1.26-.09,1.31.87s-.58,1-1.32,1c-2.29,0-4.58,0-6.87,0C723.1,253.13,723.38,252.44,723.37,251.8Z" transform="translate(-400.02 -152.74)"/><path class="cls-84" d="M717.35,267.39a.69.69,0,0,0,.35,0c.84.3,1.86-.4,2.58.47-.91.75-2,.52-3,.51-5.19,0-10.38,0-15.59.14a1.75,1.75,0,0,0,1.29.28c4.89,0,9.78,0,14.67,0a3.55,3.55,0,0,1,2.65.52c-1.25,1-2.7.14-4,.46-5.39.3-10.77.09-16.16.1-.08,0-.16-.18-.23-.28v-2c.12-.12.18-.31.42-.31" transform="translate(-400.02 -152.74)"/><path class="cls-42" d="M694.13,277.5c-.62,0-1.25,0-1.87,0s-1-.29-1-1a.79.79,0,0,1,.92-.89h4.1c.71,0,1,.3,1,1s-.32.89-.93.88Z" transform="translate(-400.02 -152.74)"/><path class="cls-42" d="M781.35,301.38c-6.52,0-13,0-19.55,0-.68,0-1.77.52-1.84-.86s1-1,1.72-1q19.55,0,39.1,0c.65,0,1.61-.37,1.65.88s-1,1-1.72,1C794.25,301.39,787.8,301.38,781.35,301.38Z" transform="translate(-400.02 -152.74)"/><path class="cls-85" d="M781.17,285.4c-6.53,0-13,0-19.57,0-.62,0-1.58.46-1.63-.85s.95-1,1.66-1q19.56,0,39.13,0c.67,0,1.73-.5,1.71,1s-1.09.9-1.74.91C794.21,285.42,787.69,285.4,781.17,285.4Z" transform="translate(-400.02 -152.74)"/><path class="cls-42" d="M761.4,275.64l41,0c.33,1.49-.28,1.88-1.76,1.87-12.59,0-25.18,0-37.77,0-.74,0-1.48.06-2.23.09a.57.57,0,0,1,0-.18C760.43,276.63,760.91,276.14,761.4,275.64Z" transform="translate(-400.02 -152.74)"/><path class="cls-53" d="M777.16,293.49c-.74-1.43-.5-2.13,1.3-2.12,7.41.05,14.82.07,22.24,0,1.71,0,2,.63,1.69,2-.26.55-.76.33-1.15.33h-23C777.84,293.74,777.44,293.83,777.16,293.49Z" transform="translate(-400.02 -152.74)"/><path class="cls-53" d="M802.4,243.67c0,.67,0,1.34,0,2-.21.45-.63.32-1,.32H778.09c-.36,0-.75.09-1-.27l-.33-.37c-.52-1.22-.18-2,1.19-2,8,0,16,0,24,0C802.14,243.41,802.25,243.56,802.4,243.67Z" transform="translate(-400.02 -152.74)"/><path class="cls-56" d="M756.94,285.43l-20.5,0c-.44,0-.87,0-1.31,0-.7,0-1-.27-1-1s.44-.92,1.08-.91H741c4.84,0,9.69,0,14.54,0,.85,0,1.66-.05,1.72,1.12C757.14,284.88,757,285.16,756.94,285.43Z" transform="translate(-400.02 -152.74)"/><path class="cls-86" d="M760.27,251.79c4.59,0,9.18,0,13.78-.06h28.34v.42c-.71.57-1.55.36-2.33.36q-12.37,0-24.74,0h24.92a3,3,0,0,1,2.15.37l0,.36a1.6,1.6,0,0,1-1.07.19q-19.81,0-39.63,0C760.37,253.48,759.7,253.2,760.27,251.79Z" transform="translate(-400.02 -152.74)"/><path class="cls-87" d="M740.2,293.18a2.21,2.21,0,0,1,0-1.48,1.19,1.19,0,0,1,.53-.18h24.24a1.24,1.24,0,0,1,.51.18,1.76,1.76,0,0,1,0,1.47,1.54,1.54,0,0,1-1.07.19H741.28A1.63,1.63,0,0,1,740.2,293.18Z" transform="translate(-400.02 -152.74)"/><path class="cls-88" d="M802.39,252.91H772.47v-.75h29.92Z" transform="translate(-400.02 -152.74)"/><path class="cls-88" d="M760.27,251.79c-.23,1.53.74,1.5,1.83,1.5q20.13,0,40.25,0c-.52.71-1.26.32-1.87.32-9.67.06-19.34.08-29,.11-3.36,0-6.71-.09-10.07,0C759.85,253.66,759.57,253.08,760.27,251.79Z" transform="translate(-400.02 -152.74)"/><path class="cls-89" d="M770.87,291.37c.74,0,1.49,0,2.23,0s.86.39.89,1-.21,1.11-.92,1.12c-1.43,0-2.85,0-4.27,0-.8,0-1.06-.46-1-1.2s.44-.93,1.08-.92h2Z" transform="translate(-400.02 -152.74)"/><path class="cls-42" d="M750.56,299.55l.4-.12c1.67,0,3.33.05,5,.05.66,0,1.27,0,1.22.94s-.57,1-1.26,1c-2,0-4.07.05-6.1.08a.29.29,0,0,1,0-.18C749.62,300.52,750.08,300,750.56,299.55Z" transform="translate(-400.02 -152.74)"/><path class="cls-90" d="M802.4,243.67c-7.95,0-15.89,0-23.84-.06-1.4,0-1.92.42-1.82,1.75-.43-.23-.43-.23-.43-1.78h0a3.71,3.71,0,0,1,2-.38c7.48,0,15,0,22.44,0C801.3,243.22,802,243,802.4,243.67Z" transform="translate(-400.02 -152.74)"/><path class="cls-53" d="M777.16,293.49l25.23-.09c-.2.51-.63.53-1.07.53H777.56a2.22,2.22,0,0,1-.49-.13Z" transform="translate(-400.02 -152.74)"/><path class="cls-91" d="M740.2,293.18h25.2c-2.88.53-5.78.09-8.68.23-1.17.05-2.35.08-3.52.12-3.75,0-7.49,0-11.23-.1C741.38,293.41,740.73,293.66,740.2,293.18Z" transform="translate(-400.02 -152.74)"/><path class="cls-91" d="M765.44,291.7H740.16c.48-.63,1.15-.31,1.72-.31,4.15-.06,8.3-.07,12.45-.09,3.13,0,6.27,0,9.4.11C764.3,291.42,765,291.1,765.44,291.7Z" transform="translate(-400.02 -152.74)"/><path class="cls-92" d="M777.07,245.73l25.32,0c-.31.68-.93.51-1.46.51H778.57C778,246.19,777.42,246.36,777.07,245.73Z" transform="translate(-400.02 -152.74)"/><path class="cls-93" d="M740.16,245.68v-2c.28-.35.67-.25,1-.25h23.25c.37,0,.76-.08,1.05.25a4.73,4.73,0,0,1,0,2c-.3.47-.78.29-1.18.29h-23C740.92,246,740.43,246.19,740.16,245.68Z" transform="translate(-400.02 -152.74)"/><path class="cls-56" d="M745.73,251.71c3.29,0,6.58,0,9.87,0,.68,0,1.62-.28,1.56,1s-.95.93-1.65.93q-9.85,0-19.73,0c-.65,0-1.61.36-1.64-.89s1-1,1.72-1C739.15,251.69,742.44,251.71,745.73,251.71Z" transform="translate(-400.02 -152.74)"/><path class="cls-89" d="M728.24,293.43c-2.48,0-5,0-7.45,0-.69,0-1.55.21-1.6-1s.75-1.06,1.49-1.06h15.07c.66,0,1.4-.18,1.42.93s-.72,1.11-1.49,1.11Z" transform="translate(-400.02 -152.74)"/><path class="cls-56" d="M702.13,301.32a4.42,4.42,0,0,1,.72-1.77l16.15-.07c.74,0,1.37,0,1.33,1s-.68.86-1.3.86Z" transform="translate(-400.02 -152.74)"/><path class="cls-94" d="M737.12,275.59h7.64c.72,0,1.36,0,1.32,1s-.64.89-1.27.89H729.55c-.66,0-1.41.18-1.43-.92s.68-1,1.37-1Z" transform="translate(-400.02 -152.74)"/><path class="cls-56" d="M750.56,299.55c-.24.58-.48,1.16-.71,1.74l-14.48.09c-.66,0-1.23,0-1.24-.93s.52-1,1.2-1Z" transform="translate(-400.02 -152.74)"/><path class="cls-56" d="M761.4,275.64a4.59,4.59,0,0,1-.74,1.78l-10.94.08c-.73,0-1.36,0-1.31-1s.69-.87,1.3-.87Z" transform="translate(-400.02 -152.74)"/><path class="cls-56" d="M709.55,285.36a4.32,4.32,0,0,1,.73-1.82l8.73-.05c.74,0,1.37,0,1.32,1s-.69.86-1.31.85Z" transform="translate(-400.02 -152.74)"/><path class="cls-84" d="M720.28,269.27l-18.93,0c-.58,0-1.16,0-1.1-.83s.62-.65,1.1-.65l18.93,0Z" transform="translate(-400.02 -152.74)"/><path class="cls-86" d="M725.13,277.14c-3.54,0-7.07-.05-10.6,0-1.47,0-1.6-.41-.87-1.51,3.49,0,7,0,10.48-.11C725.48,275.53,725.23,276.35,725.13,277.14Z" transform="translate(-400.02 -152.74)"/><path class="cls-56" d="M727.59,301.38c-1.05,0-2.1,0-3.15,0-.72,0-1.2-.13-1.17-1s.46-.9,1.08-.9h6.49c.65,0,1,.15,1.08.91s-.48,1-1.18,1C729.69,301.37,728.64,301.38,727.59,301.38Z" transform="translate(-400.02 -152.74)"/><path class="cls-56" d="M727.62,285.38c-1.11,0-2.23,0-3.34,0-.68,0-1-.24-1-1s.4-.94,1.05-.93H731c.61,0,.89.24.91.87s-.22,1-.95,1C729.85,285.37,728.73,285.38,727.62,285.38Z" transform="translate(-400.02 -152.74)"/><path class="cls-56" d="M716.62,293.18c-3.11,0-6.21,0-9.31,0-.47,0-1.29.33-1.3-.53,0-.71.59-1,1.32-1,3.1,0,6.21,0,9.31,0C716.63,292.18,716.62,292.68,716.62,293.18Z" transform="translate(-400.02 -152.74)"/><path class="cls-56" d="M770.8,243.63c.68,0,1.36,0,2,0s1.15.31,1.14,1.1a.89.89,0,0,1-1,1c-1.43,0-2.85,0-4.27,0-.72,0-.91-.47-.93-1.11s.33-1,1-1S770.12,243.63,770.8,243.63Z" transform="translate(-400.02 -152.74)"/><path class="cls-93" d="M765.48,243.65H740.15c.42-.68,1.1-.44,1.68-.44q11,0,21.95,0C764.36,243.22,765,243,765.48,243.65Z" transform="translate(-400.02 -152.74)"/><path class="cls-93" d="M740.16,245.68l25.31,0c-.33.66-1,.49-1.48.49H741.62C741.09,246.19,740.47,246.36,740.16,245.68Z" transform="translate(-400.02 -152.74)"/><path class="cls-95" d="M455.24,244.62c.66-.53,1.44-.28,2.16-.28q23.93,0,47.85,0h2.91c-.37.47-.89.36-1.38.36h-51A5.14,5.14,0,0,1,455.24,244.62Z" transform="translate(-400.02 -152.74)"/><path class="cls-12" d="M588,496.83q0,4.86,0,9.72c-4,1.47-8,2.93-12,4.42-1,.37-1.56.41-1.53-1,.09-4.39,0-8.78.07-13.18,3.12-.65,6.27-.18,9.41-.27C585.3,496.5,586.68,496.22,588,496.83Z" transform="translate(-400.02 -152.74)"/><path class="cls-46" d="M624.88,496.42a12.26,12.26,0,0,1-1.47.17q-17,0-34,0c-.3,0-.61,0-.92-.08-.22-.73.38-.42.61-.42q17.31,0,34.63,0C624.11,496.07,624.56,496,624.88,496.42Z" transform="translate(-400.02 -152.74)"/><path class="cls-15" d="M469,329.37a2,2,0,0,1-.06.37c-1.93,4.84-1.93,4.84-7.12,4.84l-11.13,0c.14-1.91.2-3.83,1.19-5.55,5,.29,10.09.05,15.13.14A3.84,3.84,0,0,1,469,329.37Z" transform="translate(-400.02 -152.74)"/><path class="cls-96" d="M469,329.37c-5.06,0-10.11,0-15.17,0-.65,0-1.37.24-1.95-.3h17.44Z" transform="translate(-400.02 -152.74)"/><path class="cls-97" d="M761.58,354.46v12c-3.3-1.53-5.74-6.46-5.39-10.78C757.94,355.08,760,355.57,761.58,354.46Z" transform="translate(-400.02 -152.74)"/><path class="cls-98" d="M761.58,354.46c-.67,1.38-1.92,1.34-3.17,1.3l-2.22-.05c.47-2,3-3.95,4.76-3.56C762.34,352.46,761.41,353.67,761.58,354.46Z" transform="translate(-400.02 -152.74)"/><path class="cls-15" d="M629.65,574.35c.26-1.65-.09-3.35.4-5C630,571,630.58,572.75,629.65,574.35Z" transform="translate(-400.02 -152.74)"/><path class="cls-8" d="M485,238.26a2.74,2.74,0,0,1-2.72,2.89,2.86,2.86,0,0,1-2.8-2.66,3,3,0,0,1,2.67-3A2.81,2.81,0,0,1,485,238.26Z" transform="translate(-400.02 -152.74)"/><path class="cls-2" d="M475,238.25a2.7,2.7,0,1,1-5.39.16,2.7,2.7,0,1,1,5.39-.16Z" transform="translate(-400.02 -152.74)"/><path class="cls-11" d="M462.31,241.14a2.72,2.72,0,0,1-2.65-3,2.81,2.81,0,0,1,2.79-2.7,3.08,3.08,0,0,1,2.73,3A2.9,2.9,0,0,1,462.31,241.14Z" transform="translate(-400.02 -152.74)"/><path class="cls-2" d="M477.56,310.64c-.05-.27-.16-.44-.47-.44-7,.05-14,.06-21,.17-1.58,0-2-.56-2-2.08.07-4.09.09-8.19,0-12.29,0-1.67.6-2.11,2.18-2.1,9.61.1,19.22.11,28.84.15a1.32,1.32,0,0,0,.35-.12c-2,4.27-3.85,8.56-5.88,12.79C478.9,308,478.71,309.58,477.56,310.64Z" transform="translate(-400.02 -152.74)"/><path class="cls-99" d="M563.78,264.05c-1.63,1.68-3.43.56-5.17.47V264h5.18Z" transform="translate(-400.02 -152.74)"/><path class="cls-91" d="M754.27,292.32h10.57v.28H754.28Z" transform="translate(-400.02 -152.74)"/><path class="cls-10" d="M700.86,268.35h15.81v.31H700.87Z" transform="translate(-400.02 -152.74)"/></svg>