<?xml version="1.0" encoding="utf-8"?>
<!-- Generator: Adobe Illustrator 24.0.0, SVG Export Plug-In . SVG Version: 6.00 Build 0)  -->
<svg version="1.1" id="Capa_1" xmlns="http://www.w3.org/2000/svg" xmlns:xlink="http://www.w3.org/1999/xlink" x="0px" y="0px"
	 viewBox="0 0 800 800" style="enable-background:new 0 0 800 800;" xml:space="preserve">
<style type="text/css">
	.st0{fill:#D6D1C9;}
	.st1{fill:url(#SVGID_1_);}
	.st2{fill:#56212F;}
	.st3{fill:#967E5B;}
	.st4{fill:#9D9D9C;}
	.st5{fill:#D0D0D0;}
	.st6{fill:#646363;}
	.st7{fill:#C3AF8E;}
	.st8{fill:url(#SVGID_2_);}
	.st9{fill:#7F5E32;}
	.st10{opacity:0.88;}
	.st11{fill:#FFFFFF;}
	.st12{opacity:0.86;}
	.st13{fill:#BC8D86;}
	.st14{fill:#E5BCB1;}
	.st15{fill:#EDEDED;}
	.st16{fill:#D4BBA5;}
	.st17{fill:#E2C7B0;}
</style>
<g>
	<g>
		<g>
			<path d="M54.27,174.99c-1.75,82.41-7.41,366.68-4.71,467.42c0.29,10.67,7.6,19.24,16.72,19.59
				c45.12,1.73,210.52,6.11,284.32,2.48c15.37-0.75,27.59-15.32,27.91-33.31c1.53-86.5,4.92-329.8-3.12-441.25
				c-0.96-13.35-9.92-23.99-21.32-25.32c-49.14-5.75-215.25-19.81-279.01-14.97C63.56,150.49,54.55,161.51,54.27,174.99z"/>
			<path class="st3" d="M74.4,200.27c-2.43,66.52-10.09,287.81-7.66,369.64c0.36,11.96,8.41,21.63,18.63,22.33
				c42.05,2.88,185.51,9.23,247.18,3.45c11.11-1.04,19.82-11.55,20.42-24.56c3.13-67.86,12.1-273.92,9.77-354.83
				c-0.37-12.91-8.92-23.45-19.91-24.6c-45.49-4.78-197.93-16.15-250.34-12.8C82.64,179.52,74.82,188.75,74.4,200.27z"/>
			<path class="st9" d="M165.77,164.02L165.77,164.02c0,2.53,1.68,4.61,3.84,4.75c10.66,0.65,40.68,2.5,54.09,3.41
				c2.65,0.18,4.72-2.6,4.22-5.65l-0.09-0.52c-0.34-2.08-1.81-3.64-3.62-3.83c-9.07-0.97-36.43-3.67-54.56-2.91
				C167.48,159.36,165.77,161.47,165.77,164.02z"/>
		</g>
		<g>
			<path class="st7" d="M335.76,315.36l0.53-78.09c0.06-9.41-5.99-17.37-13.78-17.96l-202.27-15.3
				c-8.21-0.62-15.35,6.96-15.72,16.85c0,0-9.61,234.67-9.61,237.53v0l-2.96,92.13c-0.37,9.91,6.31,18.24,14.54,18.5l212.41,6.5
				c8.21,0.25,15.06-8.13,15.13-18.03l1.05-145.06h-0.01l0.66-97.06H335.76z"/>
		</g>
	</g>
	<g>
		<path class="st3" d="M395.93,128.51c0,67.89,63.4,117.28,141.61,117.28s141.61-49.39,141.61-117.28S615.75-0.05,537.54-0.05
			S395.93,60.62,395.93,128.51z"/>
		<path class="st3" d="M490.21,220.13c0,0-13.04,41.33-68.23,30.78c-1.86-0.36-2.21-2.88-0.5-3.72c8.85-4.37,23.76-16.38,19.06-46.8
			L490.21,220.13z"/>
	</g>
	<g>
		<path class="st3" d="M472.81,327.94c-4.54,36.33,26.08,67,67.94,72.23c41.85,5.23,79.08-16.96,83.62-53.29
			c4.54-36.33-25.33-73.04-67.18-78.27C515.34,263.39,477.35,291.61,472.81,327.94z"/>
		<path class="st3" d="M517.14,383.27c0,0-9.74,21.25-38.57,11.91c-0.97-0.32-0.99-1.69-0.02-2.02c5.03-1.75,13.81-7.18,13.33-23.77
			L517.14,383.27z"/>
		<g class="st10">
			<path class="st11" d="M555.16,295.47c-1.03-1.29-2.46-1.92-3.87-1.7l-15.95,2.42c-1.31,0.2-2.49,1.1-3.26,2.48
				c-0.77,1.38-1.06,3.12-0.79,4.8l7.15,45.61c0.26,1.65,1.03,3.09,2.12,4c1.1,0.91,2.43,1.2,3.68,0.81l5.92-1.85
				c1.97-0.62,3.41-2.8,3.57-5.42l2.87-46.18C556.72,298.58,556.19,296.76,555.16,295.47z"/>
			<path class="st11" d="M555.87,367.31c-0.49-2.87-2.48-4.75-4.74-4.71l-6.15,0.12c-2.62,0.05-4.6,2.52-4.54,5.92l0.15,7.78
				c0.06,3.13,1.88,5.73,4.28,6.03l7.49,0.94c1.51,0.19,2.97-0.56,3.97-2.02c1-1.46,1.39-3.38,1.06-5.29L555.87,367.31z"/>
		</g>
	</g>
	<g>
		<path class="st0" d="M592.66,230.97c-3.34,26.7,19.17,49.24,49.93,53.08c30.76,3.84,58.12-12.47,61.46-39.16
			c3.34-26.7-18.62-53.68-49.37-57.52C623.91,183.52,596,204.27,592.66,230.97z"/>
		<path class="st0" d="M625.24,271.63c0,0-7.16,15.61-28.35,8.75c-0.72-0.23-0.73-1.24-0.02-1.49c3.69-1.28,10.15-5.27,9.8-17.47
			L625.24,271.63z"/>
		<g class="st12">
			<path class="st9" d="M653.17,207.1c-0.76-0.95-1.81-1.41-2.85-1.25l-11.72,1.78c-0.96,0.15-1.83,0.81-2.39,1.82
				c-0.56,1.01-0.78,2.29-0.58,3.53l5.26,33.52c0.19,1.21,0.75,2.27,1.56,2.94c0.81,0.67,1.78,0.88,2.71,0.59l4.35-1.36
				c1.45-0.45,2.51-2.06,2.62-3.99l2.11-33.94C654.33,209.39,653.93,208.05,653.17,207.1z"/>
			<path class="st9" d="M653.7,259.9c-0.36-2.11-1.82-3.49-3.49-3.46l-4.52,0.08c-1.92,0.04-3.38,1.85-3.34,4.35l0.11,5.72
				c0.04,2.3,1.38,4.21,3.15,4.43l5.51,0.69c1.11,0.14,2.18-0.41,2.92-1.49c0.73-1.07,1.02-2.48,0.78-3.89L653.7,259.9z"/>
		</g>
	</g>
	<g class="st10">
		<path class="st11" d="M530.63,205.35v-21.52c-12.36-0.21-25.15-4.05-32.61-9.38l5.11-14.28c7.67,5.12,18.76,9.16,30.69,9.16
			c15.13,0,25.36-8.74,25.36-20.89c0-11.72-8.31-18.97-24.08-25.36c-21.74-8.52-35.16-18.33-35.16-36.87
			c0-17.69,12.57-31.11,32.18-34.31V30.39h13.21v20.67c12.79,0.43,21.52,3.84,27.71,7.46l-5.33,14.07
			c-4.47-2.56-13.21-7.25-26.85-7.25c-16.41,0-22.59,9.8-22.59,18.33c0,11.08,7.89,16.62,26.43,24.3
			c21.95,8.95,33.03,20.03,33.03,39c0,16.84-11.72,32.61-33.67,36.23v22.16H530.63z"/>
	</g>
	<g>
		<g>
			<path class="st13" d="M639.81,671.35c6.23,1.24,41.71,22.35,41.71-1.79c0-2.27,0-26.97,0-26.97S638.02,671,639.81,671.35z"/>
			<path class="st13" d="M662.02,626.03c0,0-15.59-26.32-17.54-52.14c-1.95-25.83,1.22-37.13-1.71-44.64
				c-2.92-7.51-17.14-36.01-17.79-27.44c-0.65,8.57,4.55,17.5,4.55,17.5s-9.02,7.17-7.47,15.43c1.54,8.26,4.71,9.1,4.71,9.1
				s0.49,17.87,1.3,17.87c0.81,0-14.3,89.67,2.6,91.62C647.56,655.27,661.21,667.29,662.02,626.03z"/>
			<path class="st13" d="M617.46,528.38c-0.16-1.19-11.08-24.94-9.12-27.65c1.96-2.7,3.93-5.11,7,2.9
				c3.07,8.01,6.72,29.8,5.55,29.93C619.7,533.7,618.02,532.64,617.46,528.38z"/>
			<path d="M515.26,787.21c0,0-8.25-6.84-19.21-5.85c-7.64,1.34-16.61,8.1-22.39,13.11c-1.01,0.87-1.35,2.27-0.85,3.49
				c0.5,1.22,1.72,2.01,3.07,1.98c14.33-0.3,42.38-1.15,42.38-3.26C518.26,793.85,515.26,787.21,515.26,787.21z"/>
			<path class="st13" d="M520.94,775.15l-6.58,12.43c0,0-14.86,1.22-14.38-4.63c0.49-5.85,4.14-12.91,4.14-12.91L520.94,775.15z"/>
			<path class="st3" d="M688.93,783.61c-10.31-56.28-17.82-92.42-17.82-92.42s-114.24-73.7-125.93-55.67
				c-11.7,18.03-45.21,141.08-45.21,141.08l22.35,6.09c0,0,42.72-57.87,46.62-107.27c11,36.03,21.25,122.14,105.87,124.61
				c4.2,0.12,8.23-1.66,10.97-4.85C688.52,792.01,689.69,787.75,688.93,783.61z"/>
			<polygon class="st13" points="441.99,782.22 428.35,795.13 417.62,784.41 431.76,768.09 			"/>
			<path class="st13" d="M718.98,520.53l26.71,34.34c1.22,1.57,1.43,3.74,0.49,5.37c-3.46,5.95-13.5,19.09-34.74,19.28
				c-2.43,0.02-4.75-1.53-5.94-3.89l-16.6-32.71L718.98,520.53z"/>
			<g>
				<path class="st14" d="M655.37,475.79c0,0-6.81,39.2,3.86,55.39c10.66,16.19,41.52,16.59,60.14-8.59l-3.23-54.42L655.37,475.79z"
					/>
				<path d="M703.73,501.84c-1.21,0-2.13-1.07-1.93-2.27c0.6-3.63,1.52-10.89,0.4-16.41c0,0,2.97-4.47-13.24-1.51
					c-16.2,2.96-40.47,7.16-50.56-3.29c-9.85-10.19-11.57-45.97,17.96-29.88c1.12,0.61,2.53,0.02,2.84-1.23
					c1.31-5.36,5.73-17.25,19.19-17.17c12.6,0.08,17.18,7.26,18.75,11.21c0.46,1.16,1.87,1.6,2.9,0.89
					c4.87-3.36,17.24-9.86,28.97,0.6c9.66,8.62,9.16,16.12,7.58,20.39c-0.51,1.38,0.6,2.79,2.06,2.62c3.97-0.47,9.78,0.5,12.94,8.88
					c4.37,11.59-8.72,16.18-12.55,17.25c-0.63,0.18-1.13,0.64-1.34,1.26c-1.58,4.78-8.35,26.15-22.63,34.54
					c-1.24,0.73-3.56-0.83-3.68-2.26l-1.84-21.82c-0.09-1.01-0.93-1.79-1.95-1.79L703.73,501.84z"/>
				<path class="st13" d="M701.47,504.25c0,0,11.42-18.46,16.79-9.53c5.37,8.93-8.7,20.21-18.15,20.17L701.47,504.25z"/>
			</g>
			<path class="st13" d="M675.58,614.82c0,0-52.06,21.93-61.8,10.72c-9.75-11.21-4.39-74.06-4.39-74.06l-21.93-5.86
				c0,0-26.97,110.95,18.84,127.52c33.26,12.03,96.65-27.13,96.65-27.13L675.58,614.82z"/>
			<path class="st0" d="M724.53,538.96c-8.39,1.85-17.59,9.86-24.79,17.55c-8.22,8.78-13.72,19.79-15.77,31.64
				c-0.07,0.39-0.13,0.77-0.2,1.16c-18.12,19.86-34.07,32.71-44.81,37.46C657.8,653.54,668,663.71,668,663.71s2.17-0.47,5.82-1.41
				c-3.54,31.94-5.46,56.66-5.46,56.66s36.81,36.53,81.38,46.93c40.6-29.89,46.81-115.4,46.81-115.4
				C799.73,549.08,752.89,532.73,724.53,538.96z"/>
			<path class="st3" d="M749.74,765.89c0,0-18.27,54.34-108.47,23.88C597.53,775,536.29,689.38,536.29,689.38
				s-15.11,41.42-94.05,96.98l-17.54-15.76c0,0,79.92-137.75,120.86-123.46C586.48,661.44,762.25,730.64,749.74,765.89z"/>
			<path d="M435,788.84c-3.34,0.04-17.38-6.13-17.38-6.13l-13.08,3.49c-11.4-1.75-21.19,2.13-27.78,6.07
				c-1.44,0.86-2.13,2.58-1.7,4.2c0.43,1.62,1.89,2.76,3.57,2.79c12.91,0.21,34.1,0.43,44.84-0.21
				C439.55,798.08,441.99,798.54,435,788.84z"/>
			<path class="st3" d="M691.81,657.53c-0.26,0-0.49-0.18-0.56-0.44c-0.08-0.31,0.11-0.62,0.42-0.7c0.14-0.03,13.97-3.5,28.83-11.99
				c13.67-7.82,31.05-21.62,36.18-43c0.07-0.31,0.39-0.5,0.7-0.43c0.31,0.07,0.5,0.39,0.43,0.7c-5.23,21.78-22.88,35.81-36.76,43.74
				c-15,8.57-28.97,12.06-29.11,12.1C691.9,657.52,691.86,657.53,691.81,657.53z"/>
			<g>
				<g>
					<path d="M575.87,494.83c-0.38-0.97-0.3-2.05,0.2-2.95c0.5-0.91,1.38-1.54,2.4-1.74l25.41-4.85c0.99-0.19,1.96,0.39,2.25,1.35
						l19.54,63c0.08,0.27,0.06,0.57-0.08,0.82c-0.13,0.25-0.36,0.44-0.63,0.52l-21.24,6.37c-1.74,0.52-3.59-0.38-4.25-2.07
						L575.87,494.83z"/>
					<path class="st9" d="M583.88,495.46c-0.21-0.55-0.15-1.17,0.14-1.68c0.29-0.51,0.8-0.86,1.38-0.96l16.86-2.85
						c0.98-0.16,1.92,0.42,2.21,1.36L621.08,545c0.09,0.28,0.05,0.59-0.09,0.84c-0.15,0.26-0.39,0.44-0.68,0.51l-15.11,3.63
						c-0.52,0.13-1.06-0.16-1.25-0.66L583.88,495.46z"/>
					<path class="st9" d="M592.02,490.26c0.04,0.2,0.38,0.29,0.76,0.21l5.54-1.17c0.38-0.08,0.65-0.3,0.61-0.5l-0.04-0.19
						c-0.04-0.2-0.38-0.29-0.76-0.21l-5.54,1.17c-0.38,0.08-0.65,0.3-0.61,0.5L592.02,490.26z"/>
				</g>
			</g>
			<path class="st13" d="M587.18,546.83c-0.33-2.79-9.71-20.58-6.05-27.4c3.65-6.82,5.12-18.52,8.65-15.23
				c3.53,3.29-0.85,14.74,0.73,18.15c1.58,3.41,7.67,12.08,8.46,18.83c0.8,6.75,5.3,16.38-4.2,17.72
				C585.27,560.24,587.18,546.83,587.18,546.83z"/>
			<path class="st3" d="M687.6,587.13c-0.11,0-0.23-0.03-0.33-0.1c-0.26-0.18-0.33-0.54-0.15-0.8c1.08-1.57,26.5-38.32,41.15-32.13
				c0.29,0.12,0.43,0.46,0.31,0.76c-0.12,0.29-0.46,0.43-0.76,0.31c-13.78-5.85-39.49,31.34-39.75,31.72
				C687.97,587.05,687.79,587.13,687.6,587.13z"/>
			<path class="st13" d="M630.47,552.78c-0.18,0-0.36-0.08-0.47-0.24c-4.45-6.17-1.64-13.2-0.44-16.21
				c0.15-0.37,0.31-0.79,0.37-0.98c-0.54-1.22-2.67-7.46-2.02-11.35c0.15-0.9,0.62-1.17,0.98-1.24c2-0.39,6.35,6.21,8.12,9.08
				c0.17,0.27,0.08,0.63-0.19,0.79c-0.27,0.17-0.63,0.08-0.79-0.19c-2.89-4.66-6.03-8.55-6.9-8.55c0,0-0.01,0-0.01,0
				c0,0.01-0.04,0.1-0.08,0.3c-0.62,3.72,1.64,10.17,1.96,10.75c0.2,0.36,0.06,0.73-0.38,1.82c-1.13,2.83-3.77,9.45,0.31,15.1
				c0.19,0.26,0.13,0.62-0.13,0.8C630.7,552.74,630.58,552.78,630.47,552.78z M630,535.51L630,535.51L630,535.51z"/>
		</g>
		<path class="st7" d="M641.95,475.89c-0.29,0-0.58-0.15-0.73-0.42c-4.49-7.69-5.91-14.21-4.22-19.4c1.66-5.07,5.7-6.88,5.87-6.96
			c0.43-0.19,0.93,0.01,1.12,0.44c0.19,0.43-0.01,0.93-0.43,1.12c-0.03,0.02-3.54,1.62-4.95,5.96c-1.52,4.7-0.14,10.75,4.08,17.98
			c0.24,0.41,0.1,0.93-0.3,1.16C642.24,475.86,642.1,475.89,641.95,475.89z"/>
	</g>
	<g>
		<g>
			<path class="st9" d="M112.48,436.46l-2.17-1.32c-0.45-0.27-0.6-0.86-0.32-1.31c0.27-0.45,0.86-0.6,1.32-0.32
				c0,0,0.01,0,0.01,0.01l0.02,0.01l2.12,1.34l0.01,0.01c0.44,0.28,0.57,0.85,0.29,1.29C113.49,436.59,112.92,436.72,112.48,436.46z
				"/>
			<path class="st9" d="M105.32,431.94l-2.1-1.43c-0.47-0.32-0.6-0.97-0.27-1.44c0.32-0.47,0.97-0.6,1.44-0.27
				c0,0,0.01,0.01,0.01,0.01l0.02,0.01l2.05,1.45l0.01,0.01c0.46,0.32,0.56,0.96,0.24,1.41
				C106.4,432.14,105.78,432.25,105.32,431.94z"/>
			<path class="st9" d="M98.41,427.04l-2.02-1.54c-0.49-0.37-0.59-1.08-0.21-1.57c0.37-0.49,1.08-0.59,1.57-0.21
				c0,0,0.01,0.01,0.01,0.01l0.02,0.01l1.97,1.56l0.01,0.01c0.47,0.37,0.55,1.06,0.18,1.54C99.56,427.32,98.88,427.4,98.41,427.04z"
				/>
			<path class="st9" d="M91.76,421.78l-1.94-1.65c-0.5-0.42-0.56-1.17-0.13-1.67c0.42-0.5,1.17-0.56,1.67-0.13c0,0,0.01,0,0.01,0.01
				l0.02,0.02l1.89,1.65l0.01,0.01c0.48,0.42,0.53,1.16,0.11,1.65C92.98,422.14,92.25,422.19,91.76,421.78z"/>
			<path class="st9" d="M85.41,416.17l-1.85-1.75c-0.5-0.47-0.52-1.26-0.05-1.76c0.47-0.5,1.26-0.52,1.76-0.05c0,0,0.01,0,0.01,0.01
				l0.02,0.02l1.8,1.75l0.01,0.01c0.49,0.47,0.5,1.25,0.03,1.73C86.66,416.61,85.89,416.62,85.41,416.17z"/>
			<path class="st9" d="M79.34,410.24l-1.76-1.84c-0.5-0.52-0.48-1.34,0.04-1.84c0.52-0.5,1.34-0.48,1.84,0.04
				c0,0,0.01,0.01,0.01,0.01l0.02,0.02l1.71,1.83l0.01,0.01c0.48,0.52,0.45,1.33-0.07,1.81C80.63,410.77,79.83,410.74,79.34,410.24z
				"/>
			<path class="st9" d="M73.59,404l-1.66-1.93c-0.49-0.57-0.43-1.43,0.14-1.92c0.57-0.49,1.43-0.43,1.92,0.14
				c0,0,0.01,0.01,0.01,0.01l0.02,0.02l1.61,1.92l0.01,0.02c0.48,0.57,0.4,1.41-0.17,1.89C74.91,404.62,74.07,404.55,73.59,404z"/>
			<path class="st9" d="M68.17,397.47l-1.56-2.01c-0.48-0.62-0.37-1.51,0.25-1.99c0.62-0.48,1.51-0.37,1.99,0.25
				c0,0,0,0.01,0.01,0.01l0.02,0.02l1.51,2l0.01,0.02c0.47,0.62,0.34,1.5-0.28,1.96C69.5,398.19,68.63,398.07,68.17,397.47z"/>
			<path class="st9" d="M63.09,390.66l-1.45-2.1c-0.46-0.67-0.3-1.59,0.37-2.05c0.67-0.46,1.59-0.3,2.05,0.37c0,0,0,0.01,0.01,0.01
				l0.02,0.03l1.4,2.08l0.01,0.02c0.45,0.67,0.27,1.57-0.4,2.02C64.44,391.48,63.54,391.31,63.09,390.66z"/>
			<path class="st9" d="M58.38,383.58l-1.34-2.17c-0.44-0.72-0.22-1.67,0.5-2.11c0.72-0.44,1.67-0.22,2.11,0.5c0,0,0,0.01,0.01,0.01
				l0.02,0.03l1.28,2.15l0.01,0.02c0.43,0.72,0.19,1.65-0.53,2.08C59.74,384.52,58.82,384.29,58.38,383.58z"/>
			<path class="st9" d="M54.07,376.25L52.86,374c-0.42-0.77-0.13-1.74,0.65-2.16c0.77-0.42,1.74-0.13,2.16,0.65
				c0,0,0,0.01,0.01,0.01l0.02,0.03l1.16,2.22l0.01,0.02c0.4,0.77,0.1,1.72-0.67,2.13C55.42,377.3,54.48,377.01,54.07,376.25z"/>
			<path class="st9" d="M50.2,368.67l-1.07-2.32c-0.38-0.82-0.02-1.79,0.8-2.17c0.82-0.38,1.79-0.02,2.17,0.8L52.1,365l0.01,0.03
				l1.03,2.27l0.01,0.03c0.37,0.82,0.01,1.78-0.81,2.15C51.53,369.84,50.57,369.48,50.2,368.67z"/>
			<path class="st9" d="M46.79,360.87l-0.93-2.38c-0.33-0.86,0.09-1.82,0.95-2.16c0.86-0.33,1.82,0.09,2.16,0.95l0,0.01l0.01,0.03
				l0.89,2.33l0.01,0.03c0.32,0.85-0.1,1.81-0.96,2.14C48.07,362.13,47.12,361.71,46.79,360.87z"/>
			<path class="st9" d="M43.88,352.86l-0.77-2.44c-0.28-0.89,0.21-1.85,1.11-2.13c0.89-0.28,1.85,0.21,2.13,1.11l0,0.01l0.01,0.03
				l0.73,2.38l0.01,0.03c0.27,0.89-0.22,1.84-1.12,2.11C45.1,354.23,44.16,353.74,43.88,352.86z"/>
			<path class="st9" d="M41.48,344.67l-0.61-2.49c-0.23-0.93,0.34-1.87,1.27-2.1c0.93-0.23,1.87,0.34,2.1,1.27l0,0.01l0.01,0.03
				l0.57,2.42l0.01,0.03c0.22,0.93-0.35,1.85-1.28,2.07C42.63,346.15,41.71,345.59,41.48,344.67z"/>
			<path class="st9" d="M39.66,336.33l-0.43-2.53c-0.16-0.96,0.48-1.87,1.44-2.04c0.96-0.17,1.88,0.48,2.04,1.44l0,0.01l0.01,0.04
				l0.4,2.45l0.01,0.04c0.16,0.96-0.49,1.86-1.45,2.02C40.72,337.92,39.82,337.28,39.66,336.33z"/>
			<path class="st9" d="M38.43,327.87l-0.25-2.55c-0.1-0.99,0.63-1.87,1.62-1.97c0.99-0.1,1.87,0.63,1.97,1.62l0,0.01l0,0.04
				l0.22,2.48l0,0.04c0.09,0.98-0.64,1.85-1.63,1.94C39.39,329.57,38.52,328.85,38.43,327.87z"/>
			<path class="st9" d="M37.83,319.34l-0.05-2.57c-0.02-1.01,0.78-1.85,1.8-1.87c1.01-0.02,1.85,0.78,1.87,1.8l0,0.01l0,0.04
				l0.03,2.48l0,0.04c0.01,1.01-0.8,1.83-1.8,1.85C38.67,321.14,37.85,320.34,37.83,319.34z"/>
			<path class="st9" d="M37.89,310.78l0.15-2.57c0.06-1.03,0.95-1.82,1.98-1.75c1.03,0.06,1.82,0.95,1.75,1.98l0,0.01l0,0.04
				l-0.17,2.47l0,0.04c-0.07,1.02-0.95,1.8-1.98,1.73C38.61,312.67,37.83,311.8,37.89,310.78z"/>
			<path class="st9" d="M38.64,302.24L39,299.7c0.15-1.04,1.11-1.76,2.15-1.62c1.04,0.15,1.76,1.11,1.62,2.15l0,0.02l-0.01,0.05
				l-0.37,2.45l-0.01,0.05c-0.15,1.03-1.12,1.75-2.15,1.59C39.21,304.23,38.5,303.27,38.64,302.24z"/>
			<path class="st9" d="M40.09,293.79l0.57-2.51c0.24-1.04,1.27-1.7,2.32-1.46c1.04,0.24,1.7,1.27,1.46,2.32l0,0.02l-0.01,0.05
				l-0.57,2.41l-0.01,0.05c-0.24,1.04-1.28,1.68-2.31,1.43C40.49,295.85,39.85,294.82,40.09,293.79z"/>
			<path class="st9" d="M42.21,285.49l0.77-2.45c0.32-1.04,1.43-1.62,2.47-1.29c1.04,0.32,1.62,1.43,1.29,2.47l0,0.02l-0.01,0.04
				l-0.76,2.36l-0.01,0.04c-0.33,1.03-1.43,1.6-2.46,1.27C42.46,287.61,41.89,286.51,42.21,285.49z"/>
			<path class="st9" d="M44.98,277.38l0.95-2.39c0.41-1.03,1.57-1.53,2.6-1.12c1.03,0.41,1.53,1.57,1.12,2.6l-0.01,0.01l-0.02,0.04
				l-0.94,2.3l-0.02,0.04c-0.42,1.02-1.58,1.51-2.6,1.09C45.07,279.55,44.58,278.4,44.98,277.38z"/>
			<path class="st9" d="M48.36,269.51l1.12-2.31c0.49-1.01,1.71-1.43,2.72-0.94c1.01,0.49,1.43,1.71,0.94,2.72L53.14,269l-0.02,0.04
				l-1.1,2.22L52,271.3c-0.5,1-1.71,1.41-2.72,0.91C48.28,271.72,47.87,270.51,48.36,269.51z"/>
			<path class="st9" d="M52.31,261.92l1.29-2.22c0.57-0.98,1.82-1.31,2.8-0.74c0.98,0.57,1.31,1.82,0.74,2.8l0,0l-0.02,0.04
				l-1.25,2.15l-0.02,0.04c-0.57,0.97-1.82,1.3-2.79,0.74C52.07,264.14,51.74,262.89,52.31,261.92z"/>
			<path class="st9" d="M56.77,254.62l1.43-2.13c0.63-0.94,1.91-1.19,2.85-0.56c0.94,0.63,1.19,1.91,0.56,2.85l0,0l-0.02,0.03
				l-1.39,2.06l-0.02,0.03c-0.63,0.94-1.91,1.19-2.85,0.55C56.39,256.83,56.14,255.56,56.77,254.62z"/>
			<path class="st9" d="M61.69,247.64l1.56-2.03c0.69-0.9,1.99-1.08,2.89-0.38c0.9,0.69,1.08,1.99,0.38,2.89l0,0l-0.02,0.03
				l-1.52,1.97l-0.02,0.03c-0.69,0.9-1.99,1.07-2.89,0.38C61.17,249.83,61,248.54,61.69,247.64z"/>
			<path class="st9" d="M67.02,240.97l1.67-1.94c0.75-0.87,2.05-0.96,2.92-0.22c0.87,0.75,0.96,2.05,0.22,2.92l0,0l-0.02,0.03
				l-1.63,1.88l-0.02,0.03c-0.75,0.86-2.05,0.96-2.92,0.21C66.37,243.13,66.27,241.83,67.02,240.97z"/>
			<path class="st9" d="M72.71,234.62l1.77-1.84c0.8-0.83,2.11-0.85,2.94-0.06c0.83,0.8,0.85,2.11,0.06,2.94l0,0l-0.02,0.02
				l-1.73,1.79l-0.02,0.02c-0.8,0.82-2.11,0.85-2.93,0.05C71.94,236.75,71.92,235.44,72.71,234.62z"/>
			<path class="st9" d="M78.73,228.58l1.86-1.75c0.84-0.79,2.16-0.75,2.95,0.09c0.79,0.84,0.75,2.16-0.09,2.95l0,0l-0.02,0.02
				l-1.82,1.7l-0.02,0.02c-0.84,0.79-2.16,0.74-2.94-0.1C77.85,230.68,77.89,229.36,78.73,228.58z"/>
			<path class="st9" d="M85.04,222.85l1.95-1.66c0.88-0.75,2.2-0.65,2.95,0.23c0.75,0.88,0.65,2.2-0.23,2.95l0,0l-0.02,0.02
				l-1.91,1.62l-0.02,0.02c-0.88,0.75-2.2,0.64-2.95-0.24C84.06,224.92,84.16,223.6,85.04,222.85z"/>
			<path class="st9" d="M91.61,217.43l2.02-1.57c0.92-0.71,2.24-0.55,2.95,0.37c0.71,0.92,0.55,2.24-0.37,2.95l0,0l-0.02,0.02
				l-1.97,1.53l-0.02,0.02c-0.92,0.71-2.23,0.54-2.94-0.38C90.53,219.46,90.69,218.14,91.61,217.43z"/>
			<path class="st9" d="M98.41,212.31l2.08-1.48c0.95-0.67,2.27-0.45,2.94,0.5c0.67,0.95,0.45,2.27-0.5,2.94l0,0l-0.02,0.02
				l-2.04,1.44l-0.02,0.02c-0.95,0.67-2.26,0.45-2.94-0.5C97.23,214.3,97.46,212.98,98.41,212.31z"/>
			<path class="st9" d="M105.41,207.49l2.14-1.39c0.98-0.64,2.29-0.36,2.93,0.62c0.64,0.98,0.36,2.29-0.62,2.93l0,0l-0.02,0.01
				l-2.1,1.36l-0.02,0.01c-0.98,0.63-2.29,0.35-2.92-0.63C104.16,209.43,104.43,208.13,105.41,207.49z"/>
			<path class="st9" d="M112.61,202.96l2.2-1.3c1.01-0.6,2.31-0.27,2.91,0.74c0.6,1.01,0.27,2.31-0.74,2.91l0,0l-0.02,0.01
				l-2.15,1.27l-0.02,0.01c-1.01,0.6-2.31,0.26-2.91-0.75C111.27,204.86,111.6,203.56,112.61,202.96z"/>
			<path class="st9" d="M119.98,198.72l2.24-1.22c1.03-0.56,2.33-0.18,2.89,0.85c0.56,1.03,0.18,2.33-0.85,2.89l0,0l-0.02,0.01
				l-2.2,1.19l-0.02,0.01c-1.03,0.56-2.33,0.18-2.89-0.86C118.57,200.57,118.95,199.28,119.98,198.72z"/>
			<path class="st9" d="M127.5,194.76l2.28-1.14c1.06-0.53,2.34-0.1,2.87,0.96c0.53,1.06,0.1,2.34-0.96,2.87l0,0l-0.02,0.01
				l-2.24,1.11l-0.02,0.01c-1.06,0.52-2.34,0.09-2.87-0.97C126.01,196.56,126.44,195.28,127.5,194.76z"/>
			<path class="st9" d="M135.14,191.07l2.32-1.05c1.08-0.49,2.35-0.01,2.85,1.07c0.49,1.08,0.01,2.35-1.07,2.85l0,0l-0.02,0.01
				l-2.28,1.03l-0.02,0.01c-1.08,0.49-2.35,0.01-2.84-1.07C133.59,192.82,134.06,191.55,135.14,191.07z"/>
			<path class="st9" d="M142.92,187.65l2.35-0.97c1.1-0.45,2.36,0.07,2.82,1.17c0.45,1.1-0.07,2.36-1.17,2.82l0,0l-0.02,0.01
				l-2.31,0.95l-0.02,0.01c-1.1,0.45-2.36-0.07-2.81-1.17C141.29,189.35,141.81,188.1,142.92,187.65z"/>
			<path class="st9" d="M150.8,184.5l2.39-0.89c1.12-0.42,2.37,0.15,2.78,1.27c0.42,1.12-0.15,2.37-1.27,2.78l0,0l-0.02,0.01
				l-2.35,0.87l-0.02,0.01c-1.12,0.42-2.36-0.16-2.78-1.28C149.11,186.16,149.68,184.91,150.8,184.5z"/>
			<path class="st9" d="M158.79,181.63l2.42-0.81c1.14-0.38,2.37,0.23,2.75,1.37c0.38,1.14-0.23,2.37-1.37,2.75l0,0l-0.02,0.01
				l-2.38,0.79l-0.02,0.01c-1.14,0.38-2.37-0.24-2.74-1.38C157.04,183.23,157.65,182.01,158.79,181.63z"/>
			<path class="st9" d="M166.88,179.03l2.44-0.72c1.15-0.34,2.36,0.32,2.7,1.47c0.34,1.15-0.32,2.36-1.47,2.7l-0.02,0l-2.4,0.71
				l-0.02,0.01c-1.15,0.34-2.36-0.31-2.71-1.47C165.06,180.59,165.72,179.38,166.88,179.03L166.88,179.03z"/>
			<path class="st9" d="M175.05,176.74l2.47-0.64c1.16-0.3,2.34,0.4,2.63,1.55c0.3,1.16-0.4,2.34-1.55,2.63l-0.02,0l-2.42,0.63
				l-0.02,0.01c-1.16,0.3-2.34-0.39-2.64-1.55C173.19,178.22,173.89,177.04,175.05,176.74L175.05,176.74z"/>
			<path class="st9" d="M183.3,174.71l2.49-0.55c1.16-0.26,2.31,0.47,2.57,1.64c0.26,1.16-0.47,2.31-1.64,2.57l-0.02,0l-2.44,0.55
				l-0.02,0c-1.16,0.26-2.31-0.47-2.58-1.63C181.4,176.13,182.13,174.98,183.3,174.71L183.3,174.71z"/>
			<path class="st9" d="M191.61,172.97l2.5-0.47c1.16-0.22,2.28,0.55,2.5,1.71c0.22,1.16-0.55,2.28-1.71,2.5l-0.02,0l-2.46,0.47
				l-0.02,0c-1.16,0.22-2.29-0.54-2.51-1.71C189.67,174.32,190.44,173.2,191.61,172.97L191.61,172.97z"/>
			<path class="st9" d="M199.97,171.51l2.52-0.38c1.16-0.18,2.25,0.62,2.43,1.79c0.18,1.16-0.62,2.25-1.79,2.43l-0.02,0l-2.48,0.38
				l-0.02,0c-1.16,0.18-2.26-0.62-2.44-1.78C198.01,172.78,198.8,171.69,199.97,171.51L199.97,171.51z"/>
			<path class="st9" d="M208.38,170.34l2.53-0.3c1.16-0.14,2.22,0.69,2.35,1.86c0.14,1.16-0.69,2.22-1.86,2.35l-0.02,0l-2.49,0.3
				l-0.02,0c-1.16,0.14-2.22-0.69-2.36-1.85C206.39,171.53,207.22,170.48,208.38,170.34L208.38,170.34z"/>
			<path class="st9" d="M216.83,169.44l2.54-0.21c1.16-0.1,2.18,0.76,2.28,1.93c0.1,1.16-0.76,2.18-1.93,2.28l-0.02,0l-2.5,0.22
				l-0.02,0c-1.16,0.1-2.19-0.76-2.29-1.92C214.8,170.57,215.66,169.54,216.83,169.44L216.83,169.44z"/>
			<path class="st9" d="M225.3,168.83l2.54-0.13c1.16-0.06,2.14,0.83,2.2,1.99c0.06,1.16-0.83,2.14-1.99,2.2l-0.02,0l-2.5,0.13
				l-0.02,0c-1.16,0.06-2.15-0.83-2.21-1.99C223.25,169.88,224.14,168.89,225.3,168.83L225.3,168.83z"/>
			<path class="st9" d="M233.79,168.51l2.55-0.04c1.15-0.02,2.1,0.9,2.12,2.05c0.02,1.15-0.9,2.1-2.05,2.12l-0.02,0l-2.5,0.05
				l-0.02,0c-1.15,0.02-2.11-0.9-2.13-2.05C231.71,169.48,232.62,168.53,233.79,168.51L233.79,168.51z"/>
			<path class="st9" d="M242.28,168.47l2.55,0.04c1.15,0.02,2.06,0.97,2.04,2.11c-0.02,1.15-0.97,2.06-2.11,2.04l-0.02,0l-2.5-0.04
				l-0.02,0c-1.15-0.02-2.07-0.96-2.05-2.11C240.18,169.37,241.12,168.45,242.28,168.47L242.28,168.47z"/>
			<path class="st9" d="M250.76,168.72l2.54,0.13c1.14,0.06,2.02,1.03,1.96,2.17c-0.06,1.14-1.03,2.02-2.17,1.96l-0.02,0l-2.5-0.12
				l-0.02,0c-1.14-0.06-2.02-1.03-1.97-2.17C248.64,169.54,249.61,168.66,250.76,168.72L250.76,168.72z"/>
			<path class="st9" d="M259.23,169.26l2.54,0.22c1.13,0.1,1.97,1.09,1.87,2.22c-0.1,1.13-1.09,1.97-2.22,1.87l-0.02,0l-2.5-0.21
				l-0.02,0c-1.13-0.09-1.98-1.09-1.88-2.22C257.1,170,258.09,169.16,259.23,169.26L259.23,169.26z"/>
			<path class="st9" d="M267.68,170.08l2.53,0.31c1.12,0.14,1.92,1.15,1.79,2.28c-0.14,1.12-1.15,1.92-2.28,1.79l-0.02,0l-2.49-0.29
				l-0.02,0c-1.12-0.13-1.93-1.15-1.79-2.28C265.53,170.75,266.55,169.95,267.68,170.08L267.68,170.08z"/>
			<path class="st9" d="M276.09,171.21l2.52,0.39c1.11,0.17,1.87,1.21,1.7,2.32c-0.17,1.11-1.21,1.87-2.32,1.7l-0.02,0l-2.47-0.38
				l-0.02,0c-1.11-0.17-1.88-1.21-1.71-2.32C273.94,171.8,274.98,171.03,276.09,171.21L276.09,171.21z"/>
			<path class="st9" d="M284.46,172.62l2.5,0.48c1.1,0.21,1.82,1.27,1.61,2.37c-0.21,1.1-1.27,1.82-2.37,1.61l-0.02,0l-2.46-0.47
				l-0.02,0c-1.1-0.21-1.82-1.27-1.61-2.37C282.3,173.13,283.36,172.41,284.46,172.62L284.46,172.62z"/>
			<path class="st9" d="M292.78,174.32l2.48,0.57c1.08,0.25,1.76,1.33,1.51,2.41c-0.25,1.08-1.33,1.76-2.41,1.51l-0.02,0l-2.44-0.55
				l-0.02,0c-1.09-0.25-1.77-1.33-1.52-2.41C290.61,174.76,291.69,174.08,292.78,174.32L292.78,174.32z"/>
			<path class="st9" d="M301.03,176.32l2.46,0.66c1.07,0.29,1.7,1.38,1.42,2.45c-0.29,1.07-1.38,1.7-2.45,1.42l-0.02,0l-2.42-0.64
				l-0.02-0.01c-1.07-0.28-1.71-1.38-1.43-2.45C298.85,176.68,299.95,176.04,301.03,176.32L301.03,176.32z"/>
			<path class="st9" d="M309.2,178.62l2.43,0.74c1.05,0.32,1.64,1.44,1.32,2.49c-0.32,1.05-1.44,1.64-2.49,1.32l-0.01,0l-2.4-0.73
				l-0.02-0.01c-1.05-0.32-1.65-1.43-1.33-2.49C307.02,178.89,308.14,178.3,309.2,178.62L309.2,178.62z"/>
			<path class="st9" d="M317.28,181.19l2.41,0.82c1.04,0.35,1.59,1.48,1.23,2.52c-0.35,1.04-1.48,1.59-2.52,1.23l-0.01,0l-2.37-0.8
				l-0.02-0.01c-1.04-0.35-1.59-1.48-1.24-2.52C315.11,181.39,316.24,180.84,317.28,181.19L317.28,181.19z"/>
			<path class="st9" d="M325.27,184.02l2.38,0.9c1.02,0.38,1.53,1.52,1.15,2.54c-0.38,1.02-1.52,1.53-2.54,1.15l-0.01,0l-2.35-0.88
				l-0.02-0.01c-1.02-0.38-1.54-1.52-1.16-2.54C323.11,184.16,324.25,183.64,325.27,184.02L325.27,184.02z"/>
			<path class="st9" d="M333.17,187.09l2.35,0.96c1,0.41,1.48,1.56,1.07,2.56c-0.41,1-1.56,1.48-2.56,1.07l-0.01,0l-2.32-0.95
				l-0.01-0.01c-1-0.41-1.49-1.55-1.08-2.56C331.02,187.16,332.16,186.68,333.17,187.09L333.17,187.09z"/>
			<path class="st9" d="M340.98,190.37l2.32,1.03c0.98,0.43,1.43,1.59,1,2.57c-0.43,0.99-1.59,1.43-2.57,1l-0.01,0l-2.3-1.01
				l-0.01-0.01c-0.99-0.43-1.44-1.58-1.01-2.57C338.84,190.39,339.99,189.94,340.98,190.37L340.98,190.37z"/>
			<path class="st9" d="M348.7,193.86l2.29,1.08c0.97,0.46,1.38,1.61,0.93,2.58c-0.46,0.97-1.61,1.38-2.58,0.93l-0.01,0l-2.27-1.06
				l-0.01-0.01c-0.97-0.45-1.39-1.61-0.94-2.58C346.56,193.82,347.72,193.4,348.7,193.86L348.7,193.86z"/>
			<path class="st9" d="M356.32,197.52l2.27,1.13c0.95,0.47,1.34,1.63,0.87,2.59c-0.47,0.95-1.63,1.34-2.59,0.87l-0.01,0l-2.25-1.12
				l-0.01-0.01c-0.96-0.47-1.35-1.63-0.87-2.59C354.2,197.44,355.36,197.05,356.32,197.52L356.32,197.52z"/>
			<path class="st9" d="M363.86,201.35l2.25,1.18c0.94,0.49,1.3,1.65,0.81,2.59c-0.49,0.94-1.65,1.3-2.59,0.81l-0.01,0l-2.23-1.16
				l-0.01-0.01c-0.94-0.49-1.31-1.65-0.82-2.59C361.76,201.22,362.92,200.86,363.86,201.35L363.86,201.35z"/>
			<path class="st9" d="M371.33,205.32l2.22,1.22c0.92,0.51,1.26,1.66,0.76,2.59c-0.51,0.92-1.66,1.26-2.59,0.76l0,0l-2.21-1.2
				l-0.01,0c-0.93-0.5-1.27-1.66-0.77-2.59C369.23,205.15,370.39,204.81,371.33,205.32L371.33,205.32z"/>
			<path class="st9" d="M378.72,209.41l2.2,1.25c0.91,0.52,1.23,1.67,0.71,2.59c-0.52,0.91-1.67,1.23-2.59,0.71l0,0l-2.19-1.24
				l-0.01,0c-0.91-0.52-1.24-1.67-0.72-2.59C376.64,209.22,377.8,208.89,378.72,209.41L378.72,209.41z"/>
			<path class="st9" d="M386.04,213.62l2.19,1.28c0.9,0.53,1.2,1.68,0.67,2.58c-0.53,0.9-1.68,1.2-2.58,0.67l0,0l-2.18-1.27l-0.01,0
				c-0.9-0.53-1.21-1.68-0.68-2.58C383.98,213.39,385.13,213.09,386.04,213.62L386.04,213.62z"/>
			<path class="st9" d="M393.3,217.91l2.17,1.31c0.89,0.53,1.17,1.69,0.64,2.57c-0.53,0.89-1.69,1.17-2.57,0.64l0,0l-2.16-1.29
				l-0.01,0c-0.89-0.53-1.18-1.69-0.65-2.58C391.26,217.67,392.41,217.38,393.3,217.91L393.3,217.91z"/>
			<path class="st9" d="M400.52,222.29l2.15,1.33c0.88,0.54,1.15,1.69,0.61,2.56c-0.54,0.88-1.69,1.15-2.56,0.61h0l-2.15-1.32l0,0
				c-0.88-0.54-1.16-1.69-0.62-2.57C398.48,222.03,399.63,221.75,400.52,222.29L400.52,222.29z"/>
			<path class="st9" d="M407.69,226.73l2.14,1.34c0.87,0.54,1.13,1.69,0.59,2.55c-0.54,0.87-1.69,1.13-2.55,0.59l-2.14-1.33
				c-0.87-0.54-1.14-1.68-0.6-2.56C405.66,226.45,406.81,226.19,407.69,226.73L407.69,226.73z"/>
			<path class="st9" d="M414.82,231.22l2.14,1.35c0.86,0.54,1.11,1.68,0.57,2.54c-0.54,0.86-1.68,1.12-2.54,0.57l-2.13-1.35
				c-0.86-0.54-1.12-1.68-0.58-2.55C412.81,230.93,413.95,230.67,414.82,231.22L414.82,231.22z"/>
			<path class="st9" d="M421.93,235.74l2.13,1.36c0.85,0.55,1.1,1.68,0.56,2.53c-0.54,0.85-1.68,1.1-2.53,0.56l-2.13-1.35
				c-0.86-0.54-1.11-1.68-0.57-2.53C419.93,235.45,421.07,235.19,421.93,235.74L421.93,235.74z"/>
			<path class="st9" d="M429.02,240.28l2.13,1.36c0.85,0.54,1.09,1.67,0.55,2.52c-0.54,0.85-1.67,1.09-2.51,0.55l-2.13-1.36
				c-0.85-0.54-1.1-1.67-0.56-2.52C427.04,239.99,428.17,239.74,429.02,240.28L429.02,240.28z"/>
			<path class="st9" d="M436.1,244.83l2.12,1.36c0.84,0.54,1.09,1.66,0.55,2.5c-0.54,0.84-1.66,1.09-2.5,0.55l-2.13-1.36
				c-0.84-0.54-1.09-1.66-0.55-2.51C434.13,244.54,435.26,244.29,436.1,244.83L436.1,244.83z"/>
			<path class="st9" d="M443.19,249.37l2.13,1.36c0.84,0.53,1.08,1.65,0.55,2.49c-0.53,0.84-1.65,1.09-2.48,0.55l-2.13-1.36
				c-0.84-0.53-1.09-1.65-0.55-2.49C441.23,249.08,442.34,248.84,443.19,249.37L443.19,249.37z"/>
			<path class="st9" d="M450.28,253.9l2.13,1.35c0.84,0.53,1.09,1.63,0.56,2.47c-0.53,0.84-1.63,1.09-2.47,0.56l-2.14-1.35
				c-0.84-0.53-1.09-1.63-0.56-2.47C448.33,253.61,449.44,253.36,450.28,253.9L450.28,253.9z"/>
			<path class="st9" d="M457.39,258.38l2.14,1.34c0.83,0.52,1.09,1.62,0.57,2.45c-0.52,0.83-1.62,1.09-2.45,0.57l-2.15-1.34
				c-0.84-0.52-1.09-1.62-0.57-2.45C455.45,258.11,456.55,257.86,457.39,258.38L457.39,258.38z"/>
			<path class="st9" d="M464.53,262.82l2.15,1.32l0,0c0.83,0.51,1.09,1.6,0.58,2.43c-0.51,0.83-1.6,1.09-2.43,0.58l-2.16-1.32
				c-0.83-0.51-1.1-1.6-0.59-2.44C462.6,262.57,463.69,262.31,464.53,262.82L464.53,262.82L464.53,262.82z"/>
			<path class="st9" d="M471.7,267.2l2.16,1.3l0,0c0.83,0.5,1.09,1.57,0.6,2.4c-0.5,0.82-1.57,1.09-2.39,0.6l-2.17-1.3
				c-0.83-0.5-1.11-1.57-0.61-2.41c0.5-0.83,1.57-1.11,2.41-0.61L471.7,267.2L471.7,267.2z"/>
			<path class="st9" d="M478.91,271.5l2.17,1.27l0.01,0c0.82,0.48,1.1,1.54,0.62,2.36c-0.48,0.82-1.53,1.1-2.36,0.62l-2.19-1.27
				c-0.83-0.48-1.11-1.54-0.63-2.37c0.48-0.83,1.54-1.11,2.37-0.63L478.91,271.5L478.91,271.5z"/>
			<path class="st9" d="M486.17,275.72l2.19,1.24l0.01,0c0.82,0.47,1.11,1.51,0.64,2.32c-0.46,0.82-1.5,1.1-2.32,0.65l-2.21-1.24
				c-0.82-0.46-1.12-1.51-0.66-2.33c0.46-0.82,1.51-1.12,2.33-0.66L486.17,275.72L486.17,275.72z"/>
			<path class="st9" d="M493.49,279.82l2.21,1.21l0.01,0c0.82,0.45,1.12,1.47,0.67,2.28c-0.44,0.81-1.46,1.11-2.28,0.67l-2.23-1.2
				c-0.82-0.44-1.13-1.47-0.68-2.29c0.44-0.82,1.47-1.13,2.29-0.68L493.49,279.82L493.49,279.82z"/>
			<path class="st9" d="M500.87,283.79l2.23,1.16l0.01,0c0.81,0.42,1.13,1.43,0.7,2.24c-0.42,0.81-1.42,1.12-2.23,0.71l-2.25-1.16
				c-0.82-0.42-1.14-1.43-0.72-2.25c0.42-0.82,1.43-1.14,2.25-0.72L500.87,283.79L500.87,283.79z"/>
			<path class="st9" d="M508.33,287.62l2.25,1.12l0.01,0c0.81,0.4,1.14,1.38,0.74,2.19c-0.4,0.81-1.38,1.14-2.19,0.74l-2.28-1.12
				c-0.82-0.4-1.15-1.38-0.75-2.2c0.4-0.82,1.38-1.15,2.2-0.75L508.33,287.62L508.33,287.62z"/>
			<path class="st9" d="M515.87,291.29l2.28,1.07l0.01,0.01c0.81,0.38,1.16,1.34,0.78,2.15c-0.38,0.81-1.33,1.15-2.14,0.78
				l-2.31-1.06c-0.81-0.38-1.17-1.34-0.79-2.15c0.38-0.81,1.34-1.17,2.15-0.79l0.01,0L515.87,291.29z"/>
			<path class="st9" d="M523.49,294.77l2.3,1.01l0.01,0.01c0.81,0.35,1.17,1.29,0.82,2.1c-0.35,0.8-1.29,1.17-2.09,0.82l-2.33-1
				c-0.81-0.35-1.19-1.29-0.84-2.1c0.35-0.81,1.29-1.19,2.1-0.84l0.01,0L523.49,294.77z"/>
			<path class="st9" d="M531.19,298.05l2.33,0.94l0.01,0.01c0.8,0.33,1.19,1.24,0.87,2.04c-0.32,0.8-1.23,1.19-2.04,0.87l-2.36-0.94
				c-0.81-0.32-1.2-1.24-0.88-2.05c0.32-0.81,1.24-1.2,2.05-0.88l0.01,0L531.19,298.05z"/>
			<path class="st9" d="M538.98,301.11l2.35,0.87l0.01,0.01c0.8,0.3,1.21,1.19,0.91,1.99c-0.3,0.8-1.18,1.21-1.98,0.92l-2.39-0.87
				c-0.81-0.29-1.22-1.19-0.93-1.99c0.29-0.81,1.19-1.22,1.99-0.93l0.01,0L538.98,301.11z"/>
			<path class="st9" d="M546.86,303.93l2.38,0.8l0.01,0c0.8,0.27,1.23,1.13,0.96,1.93c-0.27,0.8-1.13,1.23-1.92,0.97l-2.41-0.79
				c-0.8-0.26-1.24-1.13-0.98-1.93c0.26-0.8,1.13-1.24,1.93-0.98l0.01,0L546.86,303.93z"/>
			<path class="st9" d="M554.83,306.48l2.41,0.71l0.02,0c0.8,0.24,1.25,1.07,1.01,1.87c-0.24,0.79-1.07,1.25-1.86,1.02l-2.44-0.71
				c-0.8-0.23-1.26-1.07-1.03-1.87c0.23-0.8,1.07-1.26,1.87-1.03l0.01,0L554.83,306.48z"/>
			<path class="st9" d="M562.88,308.76l2.43,0.63l0.02,0c0.79,0.2,1.27,1.01,1.07,1.8c-0.2,0.79-1.01,1.27-1.79,1.07l-2.47-0.62
				c-0.8-0.2-1.28-1.01-1.08-1.81c0.2-0.8,1.01-1.28,1.81-1.08l0.01,0L562.88,308.76z"/>
			<path class="st9" d="M571,310.74l2.45,0.53l0.02,0c0.79,0.17,1.29,0.95,1.12,1.73c-0.17,0.78-0.94,1.28-1.73,1.12l-2.49-0.53
				c-0.79-0.17-1.3-0.94-1.13-1.74c0.17-0.79,0.94-1.3,1.74-1.13l0.01,0L571,310.74z"/>
			<path class="st9" d="M579.2,312.4l2.47,0.43l0.02,0c0.78,0.14,1.3,0.88,1.16,1.66c-0.14,0.78-0.88,1.3-1.66,1.17l-2.5-0.43
				c-0.79-0.13-1.31-0.88-1.18-1.66c0.13-0.79,0.88-1.31,1.66-1.18l0.01,0L579.2,312.4z"/>
			<path class="st9" d="M587.44,313.72l2.49,0.33l0.02,0c0.77,0.1,1.32,0.81,1.22,1.59c-0.1,0.77-0.81,1.31-1.58,1.22l-2.53-0.32
				c-0.78-0.1-1.33-0.81-1.23-1.59c0.1-0.78,0.81-1.33,1.59-1.23l0.01,0L587.44,313.72z"/>
			<path class="st9" d="M595.75,314.69l2.5,0.22l0.02,0c0.77,0.07,1.33,0.74,1.27,1.51c-0.07,0.76-0.74,1.33-1.5,1.27l-2.54-0.21
				c-0.77-0.06-1.34-0.74-1.28-1.51s0.74-1.34,1.51-1.28l0.01,0L595.75,314.69z"/>
			<path class="st9" d="M604.08,315.28l2.5,0.11l0.02,0c0.76,0.03,1.34,0.67,1.31,1.42c-0.03,0.75-0.67,1.34-1.42,1.31l-2.54-0.09
				c-0.76-0.03-1.35-0.67-1.32-1.42c0.03-0.76,0.67-1.35,1.42-1.32l0.01,0L604.08,315.28z"/>
			<path class="st9" d="M612.44,315.5l2.5,0h0.02c0.74,0,1.35,0.6,1.35,1.34c0,0.74-0.6,1.34-1.34,1.35l-2.54,0.02
				c-0.75,0-1.36-0.6-1.36-1.34c-0.01-0.75,0.6-1.36,1.34-1.36l0.01,0H612.44z"/>
			<path class="st9" d="M620.79,315.36l2.5-0.11l0.02,0c0.73-0.03,1.35,0.53,1.38,1.26c0.03,0.73-0.53,1.34-1.26,1.38l-2.54,0.13
				c-0.73,0.04-1.36-0.53-1.39-1.26c-0.04-0.73,0.53-1.36,1.26-1.39l0.01,0L620.79,315.36z"/>
			<path class="st9" d="M629.14,314.87l2.5-0.22l0.02,0c0.72-0.06,1.35,0.47,1.41,1.18c0.06,0.71-0.47,1.34-1.18,1.41l-2.53,0.23
				c-0.72,0.07-1.36-0.46-1.42-1.18c-0.07-0.72,0.46-1.36,1.18-1.42l0.01,0L629.14,314.87z"/>
			<path class="st9" d="M637.45,314.03l2.49-0.32l0.02,0c0.7-0.09,1.34,0.4,1.43,1.11c0.09,0.7-0.4,1.34-1.1,1.43l-2.52,0.34
				c-0.7,0.09-1.35-0.4-1.45-1.1c-0.09-0.7,0.4-1.35,1.1-1.44l0.01,0L637.45,314.03z"/>
			<path class="st9" d="M645.73,312.84l2.47-0.42l0.02,0c0.68-0.12,1.33,0.34,1.45,1.03c0.12,0.68-0.34,1.33-1.02,1.45l-2.5,0.44
				c-0.69,0.12-1.34-0.34-1.46-1.02c-0.12-0.69,0.34-1.34,1.02-1.46l0.01,0L645.73,312.84z"/>
			<path class="st9" d="M653.95,311.32l2.46-0.52l0.01,0c0.67-0.14,1.32,0.28,1.46,0.95c0.14,0.66-0.28,1.32-0.94,1.46l-2.48,0.54
				c-0.67,0.15-1.33-0.28-1.48-0.95c-0.15-0.67,0.28-1.33,0.95-1.48l0.01,0L653.95,311.32z"/>
			<path class="st9" d="M662.11,309.46l2.43-0.62l0.01,0c0.65-0.17,1.31,0.23,1.47,0.87c0.16,0.65-0.22,1.3-0.87,1.47l-2.46,0.64
				c-0.65,0.17-1.32-0.22-1.49-0.87c-0.17-0.65,0.22-1.32,0.87-1.49l0.01,0L662.11,309.46z"/>
			<path class="st9" d="M670.2,307.28l2.41-0.72l0.01,0c0.63-0.19,1.29,0.17,1.48,0.8c0.19,0.63-0.17,1.29-0.79,1.48l-2.43,0.74
				c-0.63,0.19-1.3-0.16-1.49-0.8c-0.19-0.63,0.16-1.3,0.8-1.49l0.01,0L670.2,307.28z"/>
			<path class="st9" d="M678.19,304.78l2.38-0.81l0.01,0c0.61-0.21,1.27,0.12,1.48,0.73c0.21,0.61-0.11,1.27-0.72,1.48l-2.4,0.84
				c-0.61,0.21-1.28-0.11-1.49-0.72c-0.21-0.61,0.11-1.28,0.72-1.49l0.01,0L678.19,304.78z"/>
			<path class="st9" d="M686.07,301.96l2.35-0.91l0.01,0c0.59-0.23,1.25,0.07,1.48,0.65c0.23,0.59-0.06,1.25-0.65,1.48l-2.37,0.93
				c-0.59,0.23-1.26-0.06-1.49-0.65c-0.23-0.59,0.06-1.26,0.65-1.49l0.01,0L686.07,301.96z"/>
			<path class="st9" d="M693.84,298.83l2.31-1l0.01-0.01c0.57-0.24,1.22,0.02,1.47,0.58c0.24,0.56-0.01,1.21-0.57,1.46l-2.33,1.03
				c-0.57,0.25-1.23-0.01-1.48-0.58c-0.25-0.57,0.01-1.23,0.58-1.48l0.01,0L693.84,298.83z"/>
			<path class="st9" d="M701.49,295.41l2.27-1.09l0.01-0.01c0.54-0.26,1.18-0.03,1.44,0.51c0.26,0.53,0.03,1.17-0.5,1.43l-2.28,1.12
				c-0.54,0.26-1.19,0.04-1.46-0.5c-0.26-0.54-0.04-1.19,0.5-1.46l0.01,0L701.49,295.41z"/>
			<path class="st9" d="M709,291.69l2.23-1.18l0.01-0.01c0.51-0.27,1.14-0.07,1.41,0.44c0.27,0.51,0.08,1.13-0.43,1.4l-2.24,1.21
				c-0.51,0.28-1.15,0.08-1.43-0.43c-0.28-0.51-0.08-1.15,0.43-1.43l0.01,0L709,291.69z"/>
			<path class="st9" d="M716.35,287.67l2.18-1.26l0.01-0.01c0.48-0.28,1.1-0.12,1.38,0.37c0.28,0.48,0.12,1.09-0.36,1.37l-2.19,1.29
				c-0.48,0.29-1.11,0.13-1.39-0.36c-0.29-0.48-0.13-1.11,0.36-1.39l0.01,0L716.35,287.67z"/>
			<path class="st9" d="M723.54,283.37l2.12-1.35l0.01-0.01c0.45-0.29,1.05-0.15,1.34,0.3c0.29,0.45,0.15,1.05-0.29,1.33l-2.13,1.38
				c-0.45,0.29-1.06,0.16-1.36-0.29c-0.29-0.46-0.16-1.06,0.29-1.36l0.01,0L723.54,283.37z"/>
			<path class="st9" d="M730.56,278.78l2.07-1.43l0.01-0.01c0.42-0.29,1.01-0.19,1.3,0.24c0.29,0.42,0.19,1-0.23,1.3l-2.07,1.46
				c-0.43,0.3-1.02,0.2-1.32-0.23c-0.3-0.43-0.2-1.02,0.23-1.32L730.56,278.78L730.56,278.78z"/>
			<path class="st9" d="M737.38,273.91l2.01-1.51l0.01-0.01c0.4-0.3,0.96-0.22,1.26,0.18c0.3,0.39,0.22,0.95-0.17,1.25l-2.01,1.54
				c-0.4,0.31-0.97,0.23-1.27-0.17c-0.31-0.4-0.23-0.97,0.17-1.27L737.38,273.91L737.38,273.91z"/>
			<path class="st9" d="M744,268.77l1.94-1.59l0.01-0.01c0.37-0.3,0.91-0.25,1.21,0.12c0.3,0.37,0.25,0.91-0.11,1.21l-1.95,1.63
				c-0.37,0.31-0.92,0.26-1.23-0.11c-0.31-0.37-0.26-0.92,0.11-1.23L744,268.77L744,268.77z"/>
			<path class="st9" d="M750.4,263.36l1.88-1.67l0.01-0.01c0.34-0.3,0.86-0.27,1.17,0.07c0.3,0.34,0.27,0.86-0.06,1.16l-1.88,1.7
				c-0.34,0.31-0.87,0.29-1.18-0.06c-0.31-0.34-0.29-0.87,0.06-1.18L750.4,263.36L750.4,263.36z"/>
			<path class="st9" d="M756.57,257.69l1.8-1.75l0.01-0.01c0.31-0.3,0.81-0.3,1.12,0.02c0.3,0.31,0.3,0.81-0.01,1.11l-1.8,1.78
				c-0.31,0.31-0.82,0.31-1.13-0.01c-0.31-0.31-0.31-0.82,0.01-1.13L756.57,257.69L756.57,257.69z"/>
			<path class="st9" d="M762.5,251.76l1.73-1.83l0.01-0.01c0.29-0.3,0.76-0.32,1.07-0.03c0.3,0.28,0.32,0.76,0.03,1.06l-1.72,1.86
				c-0.29,0.31-0.77,0.33-1.08,0.04c-0.31-0.29-0.33-0.77-0.04-1.08L762.5,251.76L762.5,251.76z"/>
			<path class="st9" d="M768.16,245.58l1.65-1.9l0.01-0.01c0.26-0.3,0.71-0.33,1.01-0.07c0.3,0.26,0.33,0.71,0.08,1.01l-1.64,1.93
				c-0.26,0.31-0.72,0.34-1.03,0.08c-0.31-0.26-0.34-0.72-0.08-1.03L768.16,245.58L768.16,245.58z"/>
			<path class="st9" d="M773.55,239.16l1.56-1.97l0.01-0.01c0.23-0.29,0.66-0.34,0.96-0.11c0.29,0.23,0.34,0.66,0.11,0.95l-1.56,2
				c-0.23,0.3-0.67,0.36-0.97,0.12c-0.3-0.24-0.36-0.67-0.12-0.97L773.55,239.16L773.55,239.16z"/>
			<path class="st9" d="M778.66,232.51l1.47-2.04l0.01-0.01c0.21-0.29,0.61-0.35,0.9-0.15c0.29,0.21,0.35,0.61,0.15,0.9l-1.47,2.07
				c-0.21,0.3-0.62,0.37-0.91,0.16c-0.3-0.21-0.37-0.62-0.16-0.91L778.66,232.51L778.66,232.51z"/>
			<path class="st9" d="M783.46,225.64l1.37-2.11l0.01-0.01c0.18-0.28,0.56-0.36,0.84-0.18c0.28,0.18,0.36,0.56,0.18,0.84
				l-1.37,2.14c-0.18,0.29-0.57,0.37-0.86,0.19c-0.29-0.18-0.37-0.57-0.19-0.86L783.46,225.64L783.46,225.64z"/>
			<path class="st9" d="M787.87,218.52l1.21-2.2l0.01-0.01c0.15-0.28,0.5-0.38,0.78-0.22c0.28,0.15,0.38,0.5,0.23,0.77l-1.21,2.24
				c-0.15,0.28-0.51,0.39-0.79,0.24c-0.28-0.15-0.39-0.51-0.24-0.79l0,0L787.87,218.52z"/>
			<path class="st9" d="M791.64,211.06l0.96-2.31l0.01-0.02c0.11-0.27,0.43-0.4,0.7-0.29c0.27,0.11,0.4,0.42,0.29,0.7l-0.95,2.36
				c-0.11,0.28-0.43,0.42-0.71,0.3c-0.28-0.11-0.42-0.43-0.3-0.71l0,0L791.64,211.06z"/>
			<path class="st9" d="M794.44,203.21l0.59-2.43l0.01-0.03c0.06-0.27,0.34-0.43,0.6-0.37c0.27,0.06,0.43,0.33,0.37,0.6l-0.58,2.48
				c-0.06,0.28-0.34,0.45-0.61,0.38c-0.28-0.06-0.45-0.34-0.38-0.61l0,0L794.44,203.21z"/>
			<path class="st9" d="M795.83,195.02l0.08-2.49l0-0.03c0.01-0.26,0.22-0.46,0.48-0.45c0.26,0.01,0.46,0.22,0.45,0.48l-0.06,2.55
				c-0.01,0.26-0.22,0.47-0.49,0.46c-0.26-0.01-0.47-0.22-0.46-0.49v0L795.83,195.02z"/>
			<path class="st9" d="M795.36,186.77l-0.59-2.42l-0.01-0.03c-0.06-0.23,0.09-0.46,0.32-0.52c0.23-0.06,0.46,0.08,0.52,0.31
				l0.62,2.48c0.06,0.24-0.08,0.47-0.32,0.53c-0.24,0.06-0.47-0.08-0.53-0.32l0,0L795.36,186.77z"/>
			<path class="st9" d="M792.65,178.94l-1.21-2.18l-0.02-0.03c-0.11-0.19-0.04-0.43,0.15-0.53c0.19-0.1,0.43-0.04,0.53,0.15
				l1.26,2.22c0.11,0.19,0.04,0.44-0.15,0.55c-0.19,0.11-0.44,0.04-0.55-0.15l0,0L792.65,178.94z"/>
			<path class="st9" d="M787.92,172.15l-1.8-1.72l-0.03-0.02c-0.14-0.14-0.15-0.36-0.01-0.5c0.14-0.14,0.36-0.15,0.5-0.01l1.87,1.75
				c0.15,0.14,0.16,0.37,0.02,0.52c-0.14,0.15-0.37,0.15-0.52,0.02l0,0L787.92,172.15z"/>
			<path class="st9" d="M781.29,167.23l-2.3-0.94l-0.04-0.02c-0.16-0.07-0.24-0.25-0.18-0.42c0.07-0.16,0.25-0.24,0.41-0.18
				l2.38,0.95c0.17,0.07,0.25,0.26,0.18,0.43c-0.07,0.17-0.26,0.25-0.43,0.18l0,0L781.29,167.23z"/>
		</g>
		<g>
			<polygon class="st9" points="776.07,143.25 774.18,157.16 765.57,149.9 			"/>
			<path class="st9" d="M714.6,126.75l33.08,38.07c0.63,0.73,1.54,1.17,2.5,1.22c0.96,0.05,1.91-0.3,2.61-0.96l36.97-34.66
				c0.42-0.4,0.56-1.01,0.35-1.55c-0.21-0.54-0.73-0.9-1.31-0.91L714.6,126.75z"/>
			<polygon class="st9" points="776.07,143.25 714.6,126.75 770.12,148.87 769.76,152.75 			"/>
			<polygon class="st9" points="766.56,152.17 774.18,157.16 770.12,148.87 			"/>
		</g>
	</g>
	<g>
		<path class="st0" d="M124.08,594.39c0,0-43.93-175.28,52.46-320.76c0,0,86.52-3.59,186.2,83.21c0,0-87.99,74.58-98.57,241.2
			C264.17,598.03,182.62,601.55,124.08,594.39z"/>
		<path class="st13" d="M298.1,242.73l-43.54,48.14c-4.09,4.53-4.02,11.17,0.16,15.62c7.27,7.73,20.13,17.71,36.96,15.8
			c5.51-0.62,10.34-3.75,13.03-8.28l26.38-44.47L298.1,242.73z"/>
		<path class="st0" d="M362.99,357.13c0,0,20.94,103.62,119.8,134.74l2.08,16.33c0,0-144.89-3.06-191.21-133.03L362.99,357.13z"/>
		<path class="st14" d="M371.65,211.81c0,0-4.42,80.9-39.94,85.19c-35.52,4.29-37.43-75.2-37.43-75.2S328.37,150.53,371.65,211.81z"
			/>
		<path class="st13" d="M309.7,246.77c0,0,1.24-25.03-13.03-20.17c-18.38,6.26,4.74,26.03,4.74,26.03L309.7,246.77z"/>
		<g>
			<path class="st13" d="M467.4,508.19c-2,1.31-7.6-5.74,0.05-12.99c4.26-1.38,21.96-9.2,26.19-7.62
				c22.54,8.42,53.45,28.37,53.45,28.37c-3.16,5.74-8.56,3.27-8.56,3.27l-17.06-9.09c-4.11,4.07-7.29,8.52-12.75,11.72
				c-4.13,2.43-9.1,3.06-13.79,1.95c-4.71-1.11-10.88-2.7-15.85-4.45C469.68,516.04,467.4,508.19,467.4,508.19z"/>
			<path class="st13" d="M511.17,506.94l-13.27-8.93l-10.95-0.89l-8.66,13.75c0,0,20.65-2.03,25.65-0.62
				C508.94,511.67,510.62,509.73,511.17,506.94z"/>
		</g>
		<path d="M306.52,229.88c0,0-5.52,16.62,0,12.85c5.52-3.77,9.94-44.62,34.57-32.11c24.64,12.51,70.66,20.08,60.56-27.41
			c-10.11-47.5-38.67-6.54-79.29-17.55c-40.61-11.01-35.25,27.53-31.05,34.42c-11.97,5.84-11.08,20.62,0,29.75
			C294.57,227.46,301,221.48,306.52,229.88z"/>
		<path class="st7" d="M381.47,216.59c-0.24,0-0.46-0.17-0.51-0.42c-0.05-0.28,0.13-0.55,0.41-0.6c0.08-0.02,8.38-1.62,13.11-9.32
			c3.98-6.47,4.39-15.27,1.2-26.17c-0.08-0.27,0.08-0.56,0.35-0.64c0.27-0.08,0.56,0.08,0.64,0.35c3.28,11.19,2.83,20.28-1.32,27.01
			c-4.99,8.08-13.44,9.71-13.8,9.78C381.53,216.58,381.5,216.59,381.47,216.59z"/>
		<path class="st0" d="M172.16,273.73c0,0-184.49,71.8-167.95,122.83c16.54,51.03,104.94,142.53,104.94,142.53l7.19-26.46
			c0,0-62.51-109.06-45.97-115.07c16.54-6,101.79-39.02,101.79-39.02S205.04,270.47,172.16,273.73z"/>
		<g>
			<path class="st13" d="M109.14,507.92c0,0,4.02-10.98,3.35-17.14c-0.67-6.16,6.29-4.55,7.5,1.47c1.21,6.03-2.01,19.95-2.01,19.95
				S111.02,513.15,109.14,507.92z"/>
			<path class="st13" d="M118.75,544.69c-1.97,1.39-4.51,1.66-6.73,0.71c-2.21-0.95-3.77-2.98-4.12-5.36
				c-1.12-7.61-2.58-19.72-1.45-25.23c1.71-8.36,5.02-19.1,16.06-16.71c11.04,2.39,24.06,8.67,24.06,8.67s-0.66,10.88-9.05,7.37
				l5.2,5.44c0,0-0.74,8.71-7.83,4.06l4.84,7.22c0,0-3.04,7.16-8.26,2.57C127.71,530.11,125.36,540.02,118.75,544.69z"/>
		</g>
	</g>
</g>
</svg>
