<?xml version="1.0" encoding="utf-8"?>
<!-- Generator: Adobe Illustrator 24.0.0, SVG Export Plug-In . SVG Version: 6.00 Build 0)  -->
<svg version="1.1" id="Capa_1" xmlns="http://www.w3.org/2000/svg" xmlns:xlink="http://www.w3.org/1999/xlink" x="0px" y="0px"
	 viewBox="0 0 800 800" style="enable-background:new 0 0 800 800;" xml:space="preserve">
<style type="text/css">
	.st0{fill:#212529;}
	.st1{fill:#333333;}
	.st2{fill:#FFFFFF;}
	.st3{opacity:0.88;}
	.st4{fill:#E4E8F0;}
	.st5{opacity:0.86;}
	.st6{fill:#D4BBA5;}
	.st7{fill:#E2C7B0;}
</style>
<g>
	<g>
		<g>
			<path d="M54.3,175c-1.8,82.4-7.4,366.7-4.7,467.4c0.3,10.7,7.6,19.2,16.7,19.6c45.1,1.7,210.5,6.1,284.3,2.5
				c15.4-0.8,27.6-15.3,27.9-33.3c1.5-86.5,4.9-329.8-3.1-441.3c-1-13.4-9.9-24-21.3-25.3c-49.1-5.8-215.3-19.8-279-15
				C63.6,150.5,54.5,161.5,54.3,175z"/>
			<path class="st0" d="M74.4,200.3c-2.4,66.5-10.1,287.8-7.7,369.6c0.4,12,8.4,21.6,18.6,22.3c42,2.9,185.5,9.2,247.2,3.5
				c11.1-1,19.8-11.5,20.4-24.6c3.1-67.9,12.1-273.9,9.8-354.8c-0.4-12.9-8.9-23.4-19.9-24.6c-45.5-4.8-197.9-16.1-250.3-12.8
				C82.6,179.5,74.8,188.8,74.4,200.3z"/>
			<path class="st1" d="M165.8,164L165.8,164c0,2.5,1.7,4.6,3.8,4.8c10.7,0.6,40.7,2.5,54.1,3.4c2.6,0.2,4.7-2.6,4.2-5.6l-0.1-0.5
				c-0.3-2.1-1.8-3.6-3.6-3.8c-9.1-1-36.4-3.7-54.6-2.9C167.5,159.4,165.8,161.5,165.8,164z"/>
		</g>
		<g>
			<path class="st2" d="M335.8,315.4l0.5-78.1c0.1-9.4-6-17.4-13.8-18L120.2,204c-8.2-0.6-15.3,7-15.7,16.9c0,0-9.6,234.7-9.6,237.5
				l0,0l-3,92.1c-0.4,9.9,6.3,18.2,14.5,18.5l212.4,6.5c8.2,0.3,15.1-8.1,15.1-18l1-145.1h0L335.8,315.4L335.8,315.4L335.8,315.4z"
				/>
		</g>
	</g>
	<g>
		<path class="st0" d="M395.9,128.5c0,67.9,63.4,117.3,141.6,117.3s141.6-49.4,141.6-117.3S615.8-0.1,537.5-0.1
			S395.9,60.6,395.9,128.5z"/>
		<path class="st0" d="M490.2,220.1c0,0-13,41.3-68.2,30.8c-1.9-0.4-2.2-2.9-0.5-3.7c8.9-4.4,23.8-16.4,19.1-46.8L490.2,220.1z"/>
	</g>
	<g>
		<path class="st0" d="M472.8,327.9c-4.5,36.3,26.1,67,67.9,72.2c41.8,5.2,79.1-17,83.6-53.3s-25.3-73-67.2-78.3
			C515.3,263.4,477.4,291.6,472.8,327.9z"/>
		<path class="st0" d="M517.1,383.3c0,0-9.7,21.3-38.6,11.9c-1-0.3-1-1.7,0-2c5-1.8,13.8-7.2,13.3-23.8L517.1,383.3z"/>
		<g class="st3">
			<path class="st2" d="M555.2,295.5c-1-1.3-2.5-1.9-3.9-1.7l-16,2.4c-1.3,0.2-2.5,1.1-3.3,2.5s-1.1,3.1-0.8,4.8l7.2,45.6
				c0.3,1.6,1,3.1,2.1,4c1.1,0.9,2.4,1.2,3.7,0.8l5.9-1.9c2-0.6,3.4-2.8,3.6-5.4l2.9-46.2C556.7,298.6,556.2,296.8,555.2,295.5z"/>
			<path class="st2" d="M555.9,367.3c-0.5-2.9-2.5-4.8-4.7-4.7l-6.2,0.1c-2.6,0-4.6,2.5-4.5,5.9l0.2,7.8c0.1,3.1,1.9,5.7,4.3,6
				l7.5,0.9c1.5,0.2,3-0.6,4-2s1.4-3.4,1.1-5.3L555.9,367.3z"/>
		</g>
	</g>
	<g>
		<path class="st4" d="M592.7,231c-3.3,26.7,19.2,49.2,49.9,53.1s58.1-12.5,61.5-39.2c3.3-26.7-18.6-53.7-49.4-57.5
			C623.9,183.5,596,204.3,592.7,231z"/>
		<path class="st4" d="M625.2,271.6c0,0-7.2,15.6-28.3,8.8c-0.7-0.2-0.7-1.2,0-1.5c3.7-1.3,10.2-5.3,9.8-17.5L625.2,271.6z"/>
		<g class="st5">
			<path class="st1" d="M653.2,207.1c-0.8-0.9-1.8-1.4-2.8-1.3l-11.7,1.8c-1,0.1-1.8,0.8-2.4,1.8c-0.6,1-0.8,2.3-0.6,3.5l5.3,33.5
				c0.2,1.2,0.8,2.3,1.6,2.9s1.8,0.9,2.7,0.6l4.3-1.4c1.5-0.4,2.5-2.1,2.6-4l2.1-33.9C654.3,209.4,653.9,208.1,653.2,207.1z"/>
			<path class="st1" d="M653.7,259.9c-0.4-2.1-1.8-3.5-3.5-3.5l-4.5,0.1c-1.9,0-3.4,1.9-3.3,4.4l0.1,5.7c0,2.3,1.4,4.2,3.2,4.4
				l5.5,0.7c1.1,0.1,2.2-0.4,2.9-1.5c0.7-1.1,1-2.5,0.8-3.9L653.7,259.9z"/>
		</g>
	</g>
	<g class="st3">
		<path class="st2" d="M530.6,205.4v-21.5c-12.4-0.2-25.1-4.1-32.6-9.4l5.1-14.3c7.7,5.1,18.8,9.2,30.7,9.2
			c15.1,0,25.4-8.7,25.4-20.9c0-11.7-8.3-19-24.1-25.4c-21.7-8.5-35.2-18.3-35.2-36.9c0-17.7,12.6-31.1,32.2-34.3V30.4h13.2v20.7
			c12.8,0.4,21.5,3.8,27.7,7.5l-5.3,14.1c-4.5-2.6-13.2-7.3-26.8-7.3c-16.4,0-22.6,9.8-22.6,18.3c0,11.1,7.9,16.6,26.4,24.3
			c22,8.9,33,20,33,39c0,16.8-11.7,32.6-33.7,36.2v22.2L530.6,205.4L530.6,205.4z"/>
	</g>
	<g>
		<g>
			<path class="st6" d="M639.8,671.3c6.2,1.2,41.7,22.3,41.7-1.8c0-2.3,0-27,0-27S638,671,639.8,671.3z"/>
			<path class="st6" d="M662,626c0,0-15.6-26.3-17.5-52.1c-2-25.8,1.2-37.1-1.7-44.6c-2.9-7.5-17.1-36-17.8-27.4
				c-0.7,8.6,4.5,17.5,4.5,17.5s-9,7.2-7.5,15.4c1.5,8.3,4.7,9.1,4.7,9.1s0.5,17.9,1.3,17.9s-14.3,89.7,2.6,91.6
				C647.6,655.3,661.2,667.3,662,626z"/>
			<path class="st6" d="M617.5,528.4c-0.2-1.2-11.1-24.9-9.1-27.6c2-2.7,3.9-5.1,7,2.9c3.1,8,6.7,29.8,5.5,29.9
				C619.7,533.7,618,532.6,617.5,528.4z"/>
			<path d="M515.3,787.2c0,0-8.3-6.8-19.2-5.8c-7.6,1.3-16.6,8.1-22.4,13.1c-1,0.9-1.4,2.3-0.9,3.5s1.7,2,3.1,2
				c14.3-0.3,42.4-1.2,42.4-3.3C518.3,793.8,515.3,787.2,515.3,787.2z"/>
			<path class="st6" d="M520.9,775.2l-6.6,12.4c0,0-14.9,1.2-14.4-4.6c0.5-5.8,4.1-12.9,4.1-12.9L520.9,775.2z"/>
			<path class="st0" d="M688.9,783.6c-10.3-56.3-17.8-92.4-17.8-92.4s-114.2-73.7-125.9-55.7c-11.7,18-45.2,141.1-45.2,141.1
				l22.4,6.1c0,0,42.7-57.9,46.6-107.3c11,36,21.3,122.1,105.9,124.6c4.2,0.1,8.2-1.7,11-4.8C688.5,792,689.7,787.8,688.9,783.6z"/>
			<polygon class="st6" points="442,782.2 428.4,795.1 417.6,784.4 431.8,768.1 			"/>
			<path class="st6" d="M719,520.5l26.7,34.3c1.2,1.6,1.4,3.7,0.5,5.4c-3.5,6-13.5,19.1-34.7,19.3c-2.4,0-4.8-1.5-5.9-3.9
				l-16.6-32.7L719,520.5z"/>
			<g>
				<path class="st7" d="M655.4,475.8c0,0-6.8,39.2,3.9,55.4c10.7,16.2,41.5,16.6,60.1-8.6l-3.2-54.4L655.4,475.8z"/>
				<path d="M703.7,501.8c-1.2,0-2.1-1.1-1.9-2.3c0.6-3.6,1.5-10.9,0.4-16.4c0,0,3-4.5-13.2-1.5c-16.2,3-40.5,7.2-50.6-3.3
					c-9.8-10.2-11.6-46,18-29.9c1.1,0.6,2.5,0,2.8-1.2c1.3-5.4,5.7-17.3,19.2-17.2c12.6,0.1,17.2,7.3,18.8,11.2
					c0.5,1.2,1.9,1.6,2.9,0.9c4.9-3.4,17.2-9.9,29,0.6c9.7,8.6,9.2,16.1,7.6,20.4c-0.5,1.4,0.6,2.8,2.1,2.6c4-0.5,9.8,0.5,12.9,8.9
					c4.4,11.6-8.7,16.2-12.5,17.3c-0.6,0.2-1.1,0.6-1.3,1.3c-1.6,4.8-8.3,26.2-22.6,34.5c-1.2,0.7-3.6-0.8-3.7-2.3l-1.8-21.8
					c-0.1-1-0.9-1.8-2-1.8L703.7,501.8z"/>
				<path class="st6" d="M701.5,504.3c0,0,11.4-18.5,16.8-9.5s-8.7,20.2-18.2,20.2L701.5,504.3z"/>
			</g>
			<path class="st6" d="M675.6,614.8c0,0-52.1,21.9-61.8,10.7c-9.8-11.2-4.4-74.1-4.4-74.1l-21.9-5.9c0,0-27,111,18.8,127.5
				c33.3,12,96.7-27.1,96.7-27.1L675.6,614.8z"/>
			<path class="st4" d="M724.5,539c-8.4,1.8-17.6,9.9-24.8,17.5c-8.2,8.8-13.7,19.8-15.8,31.6c-0.1,0.4-0.1,0.8-0.2,1.2
				c-18.1,19.9-34.1,32.7-44.8,37.5c18.8,26.8,29,36.9,29,36.9s2.2-0.5,5.8-1.4c-3.5,31.9-5.5,56.7-5.5,56.7s36.8,36.5,81.4,46.9
				c40.6-29.9,46.8-115.4,46.8-115.4C799.7,549.1,752.9,532.7,724.5,539z"/>
			<path class="st0" d="M749.7,765.9c0,0-18.3,54.3-108.5,23.9c-43.7-14.8-105-100.4-105-100.4s-15.1,41.4-94,97l-17.5-15.8
				c0,0,79.9-137.8,120.9-123.5C586.5,661.4,762.3,730.6,749.7,765.9z"/>
			<path d="M435,788.8c-3.3,0-17.4-6.1-17.4-6.1l-13.1,3.5c-11.4-1.8-21.2,2.1-27.8,6.1c-1.4,0.9-2.1,2.6-1.7,4.2s1.9,2.8,3.6,2.8
				c12.9,0.2,34.1,0.4,44.8-0.2C439.5,798.1,442,798.5,435,788.8z"/>
			<path class="st0" d="M691.8,657.5c-0.3,0-0.5-0.2-0.6-0.4c-0.1-0.3,0.1-0.6,0.4-0.7c0.1,0,14-3.5,28.8-12
				c13.7-7.8,31-21.6,36.2-43c0.1-0.3,0.4-0.5,0.7-0.4s0.5,0.4,0.4,0.7c-5.2,21.8-22.9,35.8-36.8,43.7c-15,8.6-29,12.1-29.1,12.1
				C691.9,657.5,691.9,657.5,691.8,657.5z"/>
			<g>
				<g>
					<path d="M575.9,494.8c-0.4-1-0.3-2,0.2-3c0.5-0.9,1.4-1.5,2.4-1.7l25.4-4.9c1-0.2,2,0.4,2.3,1.4l19.5,63
						c0.1,0.3,0.1,0.6-0.1,0.8c-0.1,0.3-0.4,0.4-0.6,0.5l-21.2,6.4c-1.7,0.5-3.6-0.4-4.3-2.1L575.9,494.8z"/>
					<path class="st2" d="M583.9,495.5c-0.2-0.5-0.2-1.2,0.1-1.7c0.3-0.5,0.8-0.9,1.4-1l16.9-2.9c1-0.2,1.9,0.4,2.2,1.4l16.6,53.7
						c0.1,0.3,0,0.6-0.1,0.8c-0.2,0.3-0.4,0.4-0.7,0.5l-15.1,3.6c-0.5,0.1-1.1-0.2-1.3-0.7L583.9,495.5z"/>
					<path class="st1" d="M592,490.3c0,0.2,0.4,0.3,0.8,0.2l5.5-1.2c0.4-0.1,0.7-0.3,0.6-0.5l0-0.2c0-0.2-0.4-0.3-0.8-0.2l-5.5,1.2
						c-0.4,0.1-0.7,0.3-0.6,0.5L592,490.3z"/>
				</g>
			</g>
			<path class="st6" d="M587.2,546.8c-0.3-2.8-9.7-20.6-6-27.4c3.7-6.8,5.1-18.5,8.7-15.2c3.5,3.3-0.8,14.7,0.7,18.1
				c1.6,3.4,7.7,12.1,8.5,18.8c0.8,6.8,5.3,16.4-4.2,17.7C585.3,560.2,587.2,546.8,587.2,546.8z"/>
			<path class="st0" d="M687.6,587.1c-0.1,0-0.2,0-0.3-0.1c-0.3-0.2-0.3-0.5-0.2-0.8c1.1-1.6,26.5-38.3,41.2-32.1
				c0.3,0.1,0.4,0.5,0.3,0.8c-0.1,0.3-0.5,0.4-0.8,0.3c-13.8-5.8-39.5,31.3-39.8,31.7C688,587,687.8,587.1,687.6,587.1z"/>
			<path class="st6" d="M630.5,552.8c-0.2,0-0.4-0.1-0.5-0.2c-4.5-6.2-1.6-13.2-0.4-16.2c0.2-0.4,0.3-0.8,0.4-1
				c-0.5-1.2-2.7-7.5-2-11.3c0.2-0.9,0.6-1.2,1-1.2c2-0.4,6.3,6.2,8.1,9.1c0.2,0.3,0.1,0.6-0.2,0.8c-0.3,0.2-0.6,0.1-0.8-0.2
				c-2.9-4.7-6-8.5-6.9-8.5h0c0,0,0,0.1-0.1,0.3c-0.6,3.7,1.6,10.2,2,10.8c0.2,0.4,0.1,0.7-0.4,1.8c-1.1,2.8-3.8,9.5,0.3,15.1
				c0.2,0.3,0.1,0.6-0.1,0.8C630.7,552.7,630.6,552.8,630.5,552.8z M630,535.5L630,535.5L630,535.5z"/>
		</g>
		<path class="st4" d="M642,475.9c-0.3,0-0.6-0.1-0.7-0.4c-4.5-7.7-5.9-14.2-4.2-19.4c1.7-5.1,5.7-6.9,5.9-7c0.4-0.2,0.9,0,1.1,0.4
			s0,0.9-0.4,1.1c0,0-3.5,1.6-5,6c-1.5,4.7-0.1,10.8,4.1,18c0.2,0.4,0.1,0.9-0.3,1.2C642.2,475.9,642.1,475.9,642,475.9z"/>
	</g>
	<g>
		<g>
			<path class="st1" d="M112.5,436.5l-2.2-1.3c-0.4-0.3-0.6-0.9-0.3-1.3c0.3-0.5,0.9-0.6,1.3-0.3c0,0,0,0,0,0l0,0l2.1,1.3l0,0
				c0.4,0.3,0.6,0.9,0.3,1.3C113.5,436.6,112.9,436.7,112.5,436.5z"/>
			<path class="st1" d="M105.3,431.9l-2.1-1.4c-0.5-0.3-0.6-1-0.3-1.4c0.3-0.5,1-0.6,1.4-0.3l0,0l0,0l2.1,1.5l0,0
				c0.5,0.3,0.6,1,0.2,1.4C106.4,432.1,105.8,432.3,105.3,431.9z"/>
			<path class="st1" d="M98.4,427l-2-1.5c-0.5-0.4-0.6-1.1-0.2-1.6c0.4-0.5,1.1-0.6,1.6-0.2l0,0l0,0l2,1.6l0,0
				c0.5,0.4,0.6,1.1,0.2,1.5C99.6,427.3,98.9,427.4,98.4,427z"/>
			<path class="st1" d="M91.8,421.8l-1.9-1.6c-0.5-0.4-0.6-1.2-0.1-1.7c0.4-0.5,1.2-0.6,1.7-0.1c0,0,0,0,0,0l0,0l1.9,1.6l0,0
				c0.5,0.4,0.5,1.2,0.1,1.6C93,422.1,92.3,422.2,91.8,421.8z"/>
			<path class="st1" d="M85.4,416.2l-1.8-1.8c-0.5-0.5-0.5-1.3-0.1-1.8c0.5-0.5,1.3-0.5,1.8,0c0,0,0,0,0,0l0,0l1.8,1.8l0,0
				c0.5,0.5,0.5,1.3,0,1.7C86.7,416.6,85.9,416.6,85.4,416.2z"/>
			<path class="st1" d="M79.3,410.2l-1.8-1.8c-0.5-0.5-0.5-1.3,0-1.8c0.5-0.5,1.3-0.5,1.8,0l0,0l0,0l1.7,1.8l0,0
				c0.5,0.5,0.4,1.3-0.1,1.8C80.6,410.8,79.8,410.7,79.3,410.2z"/>
			<path class="st1" d="M73.6,404l-1.7-1.9c-0.5-0.6-0.4-1.4,0.1-1.9c0.6-0.5,1.4-0.4,1.9,0.1l0,0l0,0l1.6,1.9l0,0
				c0.5,0.6,0.4,1.4-0.2,1.9C74.9,404.6,74.1,404.5,73.6,404z"/>
			<path class="st1" d="M68.2,397.5l-1.6-2c-0.5-0.6-0.4-1.5,0.3-2c0.6-0.5,1.5-0.4,2,0.3c0,0,0,0,0,0l0,0l1.5,2l0,0
				c0.5,0.6,0.3,1.5-0.3,2C69.5,398.2,68.6,398.1,68.2,397.5z"/>
			<path class="st1" d="M63.1,390.7l-1.5-2.1c-0.5-0.7-0.3-1.6,0.4-2s1.6-0.3,2,0.4c0,0,0,0,0,0l0,0l1.4,2.1l0,0
				c0.4,0.7,0.3,1.6-0.4,2C64.4,391.5,63.5,391.3,63.1,390.7z"/>
			<path class="st1" d="M58.4,383.6l-1.3-2.2c-0.4-0.7-0.2-1.7,0.5-2.1c0.7-0.4,1.7-0.2,2.1,0.5c0,0,0,0,0,0l0,0L61,382l0,0
				c0.4,0.7,0.2,1.6-0.5,2.1C59.7,384.5,58.8,384.3,58.4,383.6z"/>
			<path class="st1" d="M54.1,376.3l-1.2-2.3c-0.4-0.8-0.1-1.7,0.7-2.2c0.8-0.4,1.7-0.1,2.2,0.6c0,0,0,0,0,0l0,0l1.2,2.2l0,0
				c0.4,0.8,0.1,1.7-0.7,2.1C55.4,377.3,54.5,377,54.1,376.3z"/>
			<path class="st1" d="M50.2,368.7l-1.1-2.3c-0.4-0.8,0-1.8,0.8-2.2s1.8,0,2.2,0.8v0l0,0l1,2.3l0,0c0.4,0.8,0,1.8-0.8,2.1
				C51.5,369.8,50.6,369.5,50.2,368.7z"/>
			<path class="st1" d="M46.8,360.9l-0.9-2.4c-0.3-0.9,0.1-1.8,1-2.2c0.9-0.3,1.8,0.1,2.2,1v0l0,0l0.9,2.3l0,0
				c0.3,0.9-0.1,1.8-1,2.1C48.1,362.1,47.1,361.7,46.8,360.9z"/>
			<path class="st1" d="M43.9,352.9l-0.8-2.4c-0.3-0.9,0.2-1.9,1.1-2.1c0.9-0.3,1.8,0.2,2.1,1.1v0l0,0l0.7,2.4l0,0
				c0.3,0.9-0.2,1.8-1.1,2.1C45.1,354.2,44.2,353.7,43.9,352.9z"/>
			<path class="st1" d="M41.5,344.7l-0.6-2.5c-0.2-0.9,0.3-1.9,1.3-2.1s1.9,0.3,2.1,1.3v0l0,0l0.6,2.4l0,0c0.2,0.9-0.3,1.9-1.3,2.1
				C42.6,346.1,41.7,345.6,41.5,344.7z"/>
			<path class="st1" d="M39.7,336.3l-0.4-2.5c-0.2-1,0.5-1.9,1.4-2s1.9,0.5,2,1.4v0l0,0l0.4,2.5l0,0c0.2,1-0.5,1.9-1.5,2
				C40.7,337.9,39.8,337.3,39.7,336.3z"/>
			<path class="st1" d="M38.4,327.9l-0.3-2.5c-0.1-1,0.6-1.9,1.6-2c1-0.1,1.9,0.6,2,1.6v0v0l0.2,2.5v0c0.1,1-0.6,1.9-1.6,1.9
				C39.4,329.6,38.5,328.9,38.4,327.9z"/>
			<path class="st1" d="M37.8,319.3l0-2.6c0-1,0.8-1.9,1.8-1.9c1,0,1.8,0.8,1.9,1.8v0v0l0,2.5v0c0,1-0.8,1.8-1.8,1.9
				C38.7,321.1,37.8,320.3,37.8,319.3z"/>
			<path class="st1" d="M37.9,310.8l0.2-2.6c0.1-1,1-1.8,2-1.8c1,0.1,1.8,1,1.8,2v0v0l-0.2,2.5v0c-0.1,1-1,1.8-2,1.7
				C38.6,312.7,37.8,311.8,37.9,310.8z"/>
			<path class="st1" d="M38.6,302.2l0.4-2.5c0.2-1,1.1-1.8,2.2-1.6c1,0.1,1.8,1.1,1.6,2.1v0l0,0l-0.4,2.5l0,0
				c-0.2,1-1.1,1.8-2.2,1.6C39.2,304.2,38.5,303.3,38.6,302.2z"/>
			<path class="st1" d="M40.1,293.8l0.6-2.5c0.2-1,1.3-1.7,2.3-1.5c1,0.2,1.7,1.3,1.5,2.3v0l0,0l-0.6,2.4l0,0
				c-0.2,1-1.3,1.7-2.3,1.4C40.5,295.9,39.8,294.8,40.1,293.8z"/>
			<path class="st1" d="M42.2,285.5L43,283c0.3-1,1.4-1.6,2.5-1.3c1,0.3,1.6,1.4,1.3,2.5v0l0,0l-0.8,2.4l0,0c-0.3,1-1.4,1.6-2.5,1.3
				C42.5,287.6,41.9,286.5,42.2,285.5z"/>
			<path class="st1" d="M45,277.4l1-2.4c0.4-1,1.6-1.5,2.6-1.1s1.5,1.6,1.1,2.6l0,0l0,0l-0.9,2.3l0,0c-0.4,1-1.6,1.5-2.6,1.1
				C45.1,279.5,44.6,278.4,45,277.4z"/>
			<path class="st1" d="M48.4,269.5l1.1-2.3c0.5-1,1.7-1.4,2.7-0.9c1,0.5,1.4,1.7,0.9,2.7v0l0,0l-1.1,2.2l0,0
				c-0.5,1-1.7,1.4-2.7,0.9C48.3,271.7,47.9,270.5,48.4,269.5z"/>
			<path class="st1" d="M52.3,261.9l1.3-2.2c0.6-1,1.8-1.3,2.8-0.7s1.3,1.8,0.7,2.8l0,0l0,0l-1.3,2.1l0,0c-0.6,1-1.8,1.3-2.8,0.7
				C52.1,264.1,51.7,262.9,52.3,261.9z"/>
			<path class="st1" d="M56.8,254.6l1.4-2.1c0.6-0.9,1.9-1.2,2.8-0.6s1.2,1.9,0.6,2.9l0,0l0,0l-1.4,2.1l0,0
				c-0.6,0.9-1.9,1.2-2.8,0.5C56.4,256.8,56.1,255.6,56.8,254.6z"/>
			<path class="st1" d="M61.7,247.6l1.6-2c0.7-0.9,2-1.1,2.9-0.4c0.9,0.7,1.1,2,0.4,2.9l0,0l0,0l-1.5,2l0,0c-0.7,0.9-2,1.1-2.9,0.4
				C61.2,249.8,61,248.5,61.7,247.6z"/>
			<path class="st1" d="M67,241l1.7-1.9c0.8-0.9,2.1-1,2.9-0.2c0.9,0.8,1,2.1,0.2,2.9l0,0l0,0l-1.6,1.9l0,0c-0.8,0.9-2.1,1-2.9,0.2
				C66.4,243.1,66.3,241.8,67,241z"/>
			<path class="st1" d="M72.7,234.6l1.8-1.8c0.8-0.8,2.1-0.9,2.9-0.1c0.8,0.8,0.8,2.1,0.1,2.9l0,0l0,0l-1.7,1.8l0,0
				c-0.8,0.8-2.1,0.9-2.9,0.1C71.9,236.8,71.9,235.4,72.7,234.6z"/>
			<path class="st1" d="M78.7,228.6l1.9-1.8c0.8-0.8,2.2-0.8,2.9,0.1c0.8,0.8,0.8,2.2-0.1,2.9l0,0l0,0l-1.8,1.7l0,0
				c-0.8,0.8-2.2,0.7-2.9-0.1C77.8,230.7,77.9,229.4,78.7,228.6z"/>
			<path class="st1" d="M85,222.9l1.9-1.7c0.9-0.8,2.2-0.6,2.9,0.2c0.8,0.9,0.7,2.2-0.2,2.9l0,0l0,0l-1.9,1.6l0,0
				c-0.9,0.8-2.2,0.6-2.9-0.2C84.1,224.9,84.2,223.6,85,222.9z"/>
			<path class="st1" d="M91.6,217.4l2-1.6c0.9-0.7,2.2-0.6,2.9,0.4s0.6,2.2-0.4,2.9l0,0l0,0l-2,1.5l0,0c-0.9,0.7-2.2,0.5-2.9-0.4
				C90.5,219.5,90.7,218.1,91.6,217.4z"/>
			<path class="st1" d="M98.4,212.3l2.1-1.5c0.9-0.7,2.3-0.4,2.9,0.5c0.7,0.9,0.4,2.3-0.5,2.9l0,0l0,0l-2,1.4l0,0
				c-0.9,0.7-2.3,0.4-2.9-0.5C97.2,214.3,97.5,213,98.4,212.3z"/>
			<path class="st1" d="M105.4,207.5l2.1-1.4c1-0.6,2.3-0.4,2.9,0.6s0.4,2.3-0.6,2.9l0,0l0,0l-2.1,1.4l0,0c-1,0.6-2.3,0.4-2.9-0.6
				C104.2,209.4,104.4,208.1,105.4,207.5z"/>
			<path class="st1" d="M112.6,203l2.2-1.3c1-0.6,2.3-0.3,2.9,0.7c0.6,1,0.3,2.3-0.7,2.9l0,0l0,0l-2.2,1.3l0,0
				c-1,0.6-2.3,0.3-2.9-0.8C111.3,204.9,111.6,203.6,112.6,203z"/>
			<path class="st1" d="M120,198.7l2.2-1.2c1-0.6,2.3-0.2,2.9,0.9s0.2,2.3-0.8,2.9l0,0l0,0l-2.2,1.2l0,0c-1,0.6-2.3,0.2-2.9-0.9
				C118.6,200.6,118.9,199.3,120,198.7z"/>
			<path class="st1" d="M127.5,194.8l2.3-1.1c1.1-0.5,2.3-0.1,2.9,1c0.5,1.1,0.1,2.3-1,2.9l0,0l0,0l-2.2,1.1l0,0
				c-1.1,0.5-2.3,0.1-2.9-1C126,196.6,126.4,195.3,127.5,194.8z"/>
			<path class="st1" d="M135.1,191.1l2.3-1.1c1.1-0.5,2.4,0,2.9,1.1c0.5,1.1,0,2.4-1.1,2.9l0,0l0,0l-2.3,1l0,0
				c-1.1,0.5-2.4,0-2.8-1.1C133.6,192.8,134.1,191.6,135.1,191.1z"/>
			<path class="st1" d="M142.9,187.6l2.4-1c1.1-0.4,2.4,0.1,2.8,1.2c0.4,1.1-0.1,2.4-1.2,2.8l0,0l0,0l-2.3,0.9l0,0
				c-1.1,0.4-2.4-0.1-2.8-1.2C141.3,189.4,141.8,188.1,142.9,187.6z"/>
			<path class="st1" d="M150.8,184.5l2.4-0.9c1.1-0.4,2.4,0.1,2.8,1.3c0.4,1.1-0.1,2.4-1.3,2.8l0,0l0,0l-2.4,0.9l0,0
				c-1.1,0.4-2.4-0.2-2.8-1.3C149.1,186.2,149.7,184.9,150.8,184.5z"/>
			<path class="st1" d="M158.8,181.6l2.4-0.8c1.1-0.4,2.4,0.2,2.8,1.4s-0.2,2.4-1.4,2.8l0,0l0,0l-2.4,0.8l0,0
				c-1.1,0.4-2.4-0.2-2.7-1.4C157,183.2,157.6,182,158.8,181.6z"/>
			<path class="st1" d="M166.9,179l2.4-0.7c1.1-0.3,2.4,0.3,2.7,1.5s-0.3,2.4-1.5,2.7h0l-2.4,0.7l0,0c-1.1,0.3-2.4-0.3-2.7-1.5
				C165.1,180.6,165.7,179.4,166.9,179L166.9,179z"/>
			<path class="st1" d="M175.1,176.7l2.5-0.6c1.2-0.3,2.3,0.4,2.6,1.6c0.3,1.2-0.4,2.3-1.6,2.6h0l-2.4,0.6l0,0
				c-1.2,0.3-2.3-0.4-2.6-1.6C173.2,178.2,173.9,177,175.1,176.7L175.1,176.7z"/>
			<path class="st1" d="M183.3,174.7l2.5-0.6c1.2-0.3,2.3,0.5,2.6,1.6c0.3,1.2-0.5,2.3-1.6,2.6h0l-2.4,0.6h0
				c-1.2,0.3-2.3-0.5-2.6-1.6C181.4,176.1,182.1,175,183.3,174.7L183.3,174.7z"/>
			<path class="st1" d="M191.6,173l2.5-0.5c1.2-0.2,2.3,0.6,2.5,1.7s-0.6,2.3-1.7,2.5h0l-2.5,0.5h0c-1.2,0.2-2.3-0.5-2.5-1.7
				C189.7,174.3,190.4,173.2,191.6,173L191.6,173z"/>
			<path class="st1" d="M200,171.5l2.5-0.4c1.2-0.2,2.3,0.6,2.4,1.8c0.2,1.2-0.6,2.3-1.8,2.4h0l-2.5,0.4h0c-1.2,0.2-2.3-0.6-2.4-1.8
				C198,172.8,198.8,171.7,200,171.5L200,171.5z"/>
			<path class="st1" d="M208.4,170.3l2.5-0.3c1.2-0.1,2.2,0.7,2.4,1.9c0.1,1.2-0.7,2.2-1.9,2.4h0l-2.5,0.3h0
				c-1.2,0.1-2.2-0.7-2.4-1.9C206.4,171.5,207.2,170.5,208.4,170.3L208.4,170.3z"/>
			<path class="st1" d="M216.8,169.4l2.5-0.2c1.2-0.1,2.2,0.8,2.3,1.9c0.1,1.2-0.8,2.2-1.9,2.3h0l-2.5,0.2h0
				c-1.2,0.1-2.2-0.8-2.3-1.9C214.8,170.6,215.7,169.5,216.8,169.4L216.8,169.4z"/>
			<path class="st1" d="M225.3,168.8l2.5-0.1c1.2-0.1,2.1,0.8,2.2,2s-0.8,2.1-2,2.2h0l-2.5,0.1h0c-1.2,0.1-2.1-0.8-2.2-2
				C223.3,169.9,224.1,168.9,225.3,168.8L225.3,168.8z"/>
			<path class="st1" d="M233.8,168.5l2.6,0c1.1,0,2.1,0.9,2.1,2.1c0,1.1-0.9,2.1-2.1,2.1h0l-2.5,0.1h0c-1.1,0-2.1-0.9-2.1-2.1
				C231.7,169.5,232.6,168.5,233.8,168.5L233.8,168.5z"/>
			<path class="st1" d="M242.3,168.5l2.6,0c1.1,0,2.1,1,2,2.1c0,1.1-1,2.1-2.1,2h0l-2.5,0h0c-1.1,0-2.1-1-2.1-2.1
				C240.2,169.4,241.1,168.4,242.3,168.5L242.3,168.5z"/>
			<path class="st1" d="M250.8,168.7l2.5,0.1c1.1,0.1,2,1,2,2.2s-1,2-2.2,2h0l-2.5-0.1h0c-1.1-0.1-2-1-2-2.2
				C248.6,169.5,249.6,168.7,250.8,168.7L250.8,168.7z"/>
			<path class="st1" d="M259.2,169.3l2.5,0.2c1.1,0.1,2,1.1,1.9,2.2s-1.1,2-2.2,1.9h0l-2.5-0.2h0c-1.1-0.1-2-1.1-1.9-2.2
				C257.1,170,258.1,169.2,259.2,169.3L259.2,169.3z"/>
			<path class="st1" d="M267.7,170.1l2.5,0.3c1.1,0.1,1.9,1.1,1.8,2.3c-0.1,1.1-1.1,1.9-2.3,1.8h0l-2.5-0.3h0
				c-1.1-0.1-1.9-1.1-1.8-2.3C265.5,170.8,266.5,169.9,267.7,170.1L267.7,170.1z"/>
			<path class="st1" d="M276.1,171.2l2.5,0.4c1.1,0.2,1.9,1.2,1.7,2.3c-0.2,1.1-1.2,1.9-2.3,1.7h0l-2.5-0.4h0
				c-1.1-0.2-1.9-1.2-1.7-2.3C273.9,171.8,275,171,276.1,171.2L276.1,171.2z"/>
			<path class="st1" d="M284.5,172.6l2.5,0.5c1.1,0.2,1.8,1.3,1.6,2.4c-0.2,1.1-1.3,1.8-2.4,1.6h0l-2.5-0.5h0
				c-1.1-0.2-1.8-1.3-1.6-2.4C282.3,173.1,283.4,172.4,284.5,172.6L284.5,172.6z"/>
			<path class="st1" d="M292.8,174.3l2.5,0.6c1.1,0.3,1.8,1.3,1.5,2.4s-1.3,1.8-2.4,1.5h0l-2.4-0.6h0c-1.1-0.3-1.8-1.3-1.5-2.4
				C290.6,174.8,291.7,174.1,292.8,174.3L292.8,174.3z"/>
			<path class="st1" d="M301,176.3l2.5,0.7c1.1,0.3,1.7,1.4,1.4,2.4c-0.3,1.1-1.4,1.7-2.5,1.4h0l-2.4-0.6l0,0
				c-1.1-0.3-1.7-1.4-1.4-2.4C298.9,176.7,300,176,301,176.3L301,176.3z"/>
			<path class="st1" d="M309.2,178.6l2.4,0.7c1,0.3,1.6,1.4,1.3,2.5s-1.4,1.6-2.5,1.3h0l-2.4-0.7l0,0c-1-0.3-1.6-1.4-1.3-2.5
				C307,178.9,308.1,178.3,309.2,178.6L309.2,178.6z"/>
			<path class="st1" d="M317.3,181.2l2.4,0.8c1,0.4,1.6,1.5,1.2,2.5c-0.4,1-1.5,1.6-2.5,1.2h0L316,185l0,0c-1-0.4-1.6-1.5-1.2-2.5
				C315.1,181.4,316.2,180.8,317.3,181.2L317.3,181.2z"/>
			<path class="st1" d="M325.3,184l2.4,0.9c1,0.4,1.5,1.5,1.1,2.5c-0.4,1-1.5,1.5-2.5,1.1h0l-2.4-0.9l0,0c-1-0.4-1.5-1.5-1.2-2.5
				C323.1,184.2,324.3,183.6,325.3,184L325.3,184z"/>
			<path class="st1" d="M333.2,187.1l2.4,1c1,0.4,1.5,1.6,1.1,2.6s-1.6,1.5-2.6,1.1h0l-2.3-0.9l0,0c-1-0.4-1.5-1.6-1.1-2.6
				C331,187.2,332.2,186.7,333.2,187.1L333.2,187.1z"/>
			<path class="st1" d="M341,190.4l2.3,1c1,0.4,1.4,1.6,1,2.6c-0.4,1-1.6,1.4-2.6,1h0l-2.3-1l0,0c-1-0.4-1.4-1.6-1-2.6
				C338.8,190.4,340,189.9,341,190.4L341,190.4z"/>
			<path class="st1" d="M348.7,193.9l2.3,1.1c1,0.5,1.4,1.6,0.9,2.6c-0.5,1-1.6,1.4-2.6,0.9h0l-2.3-1.1l0,0c-1-0.4-1.4-1.6-0.9-2.6
				C346.6,193.8,347.7,193.4,348.7,193.9L348.7,193.9z"/>
			<path class="st1" d="M356.3,197.5l2.3,1.1c1,0.5,1.3,1.6,0.9,2.6c-0.5,0.9-1.6,1.3-2.6,0.9h0l-2.3-1.1l0,0
				c-1-0.5-1.4-1.6-0.9-2.6C354.2,197.4,355.4,197.1,356.3,197.5L356.3,197.5z"/>
			<path class="st1" d="M363.9,201.4l2.3,1.2c0.9,0.5,1.3,1.6,0.8,2.6s-1.6,1.3-2.6,0.8h0l-2.2-1.2l0,0c-0.9-0.5-1.3-1.6-0.8-2.6
				C361.8,201.2,362.9,200.9,363.9,201.4L363.9,201.4z"/>
			<path class="st1" d="M371.3,205.3l2.2,1.2c0.9,0.5,1.3,1.7,0.8,2.6c-0.5,0.9-1.7,1.3-2.6,0.8l0,0l-2.2-1.2h0
				c-0.9-0.5-1.3-1.7-0.8-2.6C369.2,205.1,370.4,204.8,371.3,205.3L371.3,205.3z"/>
			<path class="st1" d="M378.7,209.4l2.2,1.3c0.9,0.5,1.2,1.7,0.7,2.6c-0.5,0.9-1.7,1.2-2.6,0.7l0,0l-2.2-1.2h0
				c-0.9-0.5-1.2-1.7-0.7-2.6C376.6,209.2,377.8,208.9,378.7,209.4L378.7,209.4z"/>
			<path class="st1" d="M386,213.6l2.2,1.3c0.9,0.5,1.2,1.7,0.7,2.6c-0.5,0.9-1.7,1.2-2.6,0.7l0,0l-2.2-1.3h0
				c-0.9-0.5-1.2-1.7-0.7-2.6C384,213.4,385.1,213.1,386,213.6L386,213.6z"/>
			<path class="st1" d="M393.3,217.9l2.2,1.3c0.9,0.5,1.2,1.7,0.6,2.6c-0.5,0.9-1.7,1.2-2.6,0.6l0,0l-2.2-1.3h0
				c-0.9-0.5-1.2-1.7-0.6-2.6C391.3,217.7,392.4,217.4,393.3,217.9L393.3,217.9z"/>
			<path class="st1" d="M400.5,222.3l2.1,1.3c0.9,0.5,1.1,1.7,0.6,2.6c-0.5,0.9-1.7,1.1-2.6,0.6l0,0l-2.1-1.3l0,0
				c-0.9-0.5-1.2-1.7-0.6-2.6C398.5,222,399.6,221.8,400.5,222.3L400.5,222.3z"/>
			<path class="st1" d="M407.7,226.7l2.1,1.3c0.9,0.5,1.1,1.7,0.6,2.6c-0.5,0.9-1.7,1.1-2.5,0.6l-2.1-1.3c-0.9-0.5-1.1-1.7-0.6-2.6
				C405.7,226.4,406.8,226.2,407.7,226.7L407.7,226.7z"/>
			<path class="st1" d="M414.8,231.2l2.1,1.4c0.9,0.5,1.1,1.7,0.6,2.5c-0.5,0.9-1.7,1.1-2.5,0.6l-2.1-1.4c-0.9-0.5-1.1-1.7-0.6-2.6
				C412.8,230.9,414,230.7,414.8,231.2L414.8,231.2z"/>
			<path class="st1" d="M421.9,235.7l2.1,1.4c0.9,0.6,1.1,1.7,0.6,2.5s-1.7,1.1-2.5,0.6l-2.1-1.4c-0.9-0.5-1.1-1.7-0.6-2.5
				C419.9,235.4,421.1,235.2,421.9,235.7L421.9,235.7z"/>
			<path class="st1" d="M429,240.3l2.1,1.4c0.9,0.5,1.1,1.7,0.5,2.5s-1.7,1.1-2.5,0.6l-2.1-1.4c-0.9-0.5-1.1-1.7-0.6-2.5
				C427,240,428.2,239.7,429,240.3L429,240.3z"/>
			<path class="st1" d="M436.1,244.8l2.1,1.4c0.8,0.5,1.1,1.7,0.5,2.5s-1.7,1.1-2.5,0.6l-2.1-1.4c-0.8-0.5-1.1-1.7-0.5-2.5
				C434.1,244.5,435.3,244.3,436.1,244.8L436.1,244.8z"/>
			<path class="st1" d="M443.2,249.4l2.1,1.4c0.8,0.5,1.1,1.6,0.5,2.5c-0.5,0.8-1.6,1.1-2.5,0.6l-2.1-1.4c-0.8-0.5-1.1-1.6-0.5-2.5
				C441.2,249.1,442.3,248.8,443.2,249.4L443.2,249.4z"/>
			<path class="st1" d="M450.3,253.9l2.1,1.4c0.8,0.5,1.1,1.6,0.6,2.5s-1.6,1.1-2.5,0.6l-2.1-1.4c-0.8-0.5-1.1-1.6-0.6-2.5
				C448.3,253.6,449.4,253.4,450.3,253.9L450.3,253.9z"/>
			<path class="st1" d="M457.4,258.4l2.1,1.3c0.8,0.5,1.1,1.6,0.6,2.5c-0.5,0.8-1.6,1.1-2.5,0.6l-2.1-1.3c-0.8-0.5-1.1-1.6-0.6-2.5
				C455.5,258.1,456.5,257.9,457.4,258.4L457.4,258.4z"/>
			<path class="st1" d="M464.5,262.8l2.1,1.3l0,0c0.8,0.5,1.1,1.6,0.6,2.4s-1.6,1.1-2.4,0.6l-2.2-1.3c-0.8-0.5-1.1-1.6-0.6-2.4
				C462.6,262.6,463.7,262.3,464.5,262.8L464.5,262.8L464.5,262.8z"/>
			<path class="st1" d="M471.7,267.2l2.2,1.3l0,0c0.8,0.5,1.1,1.6,0.6,2.4c-0.5,0.8-1.6,1.1-2.4,0.6l-2.2-1.3
				c-0.8-0.5-1.1-1.6-0.6-2.4C469.8,267,470.9,266.7,471.7,267.2L471.7,267.2L471.7,267.2z"/>
			<path class="st1" d="M478.9,271.5l2.2,1.3h0c0.8,0.5,1.1,1.5,0.6,2.4c-0.5,0.8-1.5,1.1-2.4,0.6l-2.2-1.3
				c-0.8-0.5-1.1-1.5-0.6-2.4C477,271.3,478.1,271,478.9,271.5L478.9,271.5L478.9,271.5z"/>
			<path class="st1" d="M486.2,275.7l2.2,1.2h0c0.8,0.5,1.1,1.5,0.6,2.3c-0.5,0.8-1.5,1.1-2.3,0.6l-2.2-1.2
				c-0.8-0.5-1.1-1.5-0.7-2.3C484.3,275.5,485.3,275.2,486.2,275.7L486.2,275.7L486.2,275.7z"/>
			<path class="st1" d="M493.5,279.8l2.2,1.2h0c0.8,0.5,1.1,1.5,0.7,2.3c-0.4,0.8-1.5,1.1-2.3,0.7l-2.2-1.2
				c-0.8-0.4-1.1-1.5-0.7-2.3C491.6,279.7,492.7,279.4,493.5,279.8L493.5,279.8L493.5,279.8z"/>
			<path class="st1" d="M500.9,283.8l2.2,1.2h0c0.8,0.4,1.1,1.4,0.7,2.2c-0.4,0.8-1.4,1.1-2.2,0.7l-2.3-1.2
				c-0.8-0.4-1.1-1.4-0.7-2.3S500,283.3,500.9,283.8L500.9,283.8L500.9,283.8z"/>
			<path class="st1" d="M508.3,287.6l2.3,1.1h0c0.8,0.4,1.1,1.4,0.7,2.2c-0.4,0.8-1.4,1.1-2.2,0.7l-2.3-1.1
				c-0.8-0.4-1.1-1.4-0.8-2.2S507.5,287.2,508.3,287.6L508.3,287.6L508.3,287.6z"/>
			<path class="st1" d="M515.9,291.3l2.3,1.1l0,0c0.8,0.4,1.2,1.3,0.8,2.1c-0.4,0.8-1.3,1.1-2.1,0.8l-2.3-1.1
				c-0.8-0.4-1.2-1.3-0.8-2.1S515,290.9,515.9,291.3L515.9,291.3L515.9,291.3z"/>
			<path class="st1" d="M523.5,294.8l2.3,1l0,0c0.8,0.4,1.2,1.3,0.8,2.1c-0.3,0.8-1.3,1.2-2.1,0.8l-2.3-1c-0.8-0.4-1.2-1.3-0.8-2.1
				S522.6,294.4,523.5,294.8L523.5,294.8L523.5,294.8z"/>
			<path class="st1" d="M531.2,298l2.3,0.9l0,0c0.8,0.3,1.2,1.2,0.9,2c-0.3,0.8-1.2,1.2-2,0.9L530,301c-0.8-0.3-1.2-1.2-0.9-2
				S530.4,297.7,531.2,298L531.2,298L531.2,298z"/>
			<path class="st1" d="M539,301.1l2.3,0.9l0,0c0.8,0.3,1.2,1.2,0.9,2c-0.3,0.8-1.2,1.2-2,0.9l-2.4-0.9c-0.8-0.3-1.2-1.2-0.9-2
				C537.2,301.2,538.1,300.8,539,301.1L539,301.1L539,301.1z"/>
			<path class="st1" d="M546.9,303.9l2.4,0.8h0c0.8,0.3,1.2,1.1,1,1.9c-0.3,0.8-1.1,1.2-1.9,1l-2.4-0.8c-0.8-0.3-1.2-1.1-1-1.9
				S546,303.7,546.9,303.9L546.9,303.9L546.9,303.9z"/>
			<path class="st1" d="M554.8,306.5l2.4,0.7h0c0.8,0.2,1.3,1.1,1,1.9c-0.2,0.8-1.1,1.3-1.9,1l-2.4-0.7c-0.8-0.2-1.3-1.1-1-1.9
				S554,306.2,554.8,306.5L554.8,306.5L554.8,306.5z"/>
			<path class="st1" d="M562.9,308.8l2.4,0.6h0c0.8,0.2,1.3,1,1.1,1.8c-0.2,0.8-1,1.3-1.8,1.1l-2.5-0.6c-0.8-0.2-1.3-1-1.1-1.8
				S562.1,308.6,562.9,308.8L562.9,308.8L562.9,308.8z"/>
			<path class="st1" d="M571,310.7l2.5,0.5h0c0.8,0.2,1.3,1,1.1,1.7s-0.9,1.3-1.7,1.1l-2.5-0.5c-0.8-0.2-1.3-0.9-1.1-1.7
				C569.4,311.1,570.2,310.6,571,310.7L571,310.7L571,310.7z"/>
			<path class="st1" d="M579.2,312.4l2.5,0.4h0c0.8,0.1,1.3,0.9,1.2,1.7s-0.9,1.3-1.7,1.2l-2.5-0.4c-0.8-0.1-1.3-0.9-1.2-1.7
				C577.6,312.8,578.4,312.3,579.2,312.4L579.2,312.4L579.2,312.4z"/>
			<path class="st1" d="M587.4,313.7l2.5,0.3h0c0.8,0.1,1.3,0.8,1.2,1.6c-0.1,0.8-0.8,1.3-1.6,1.2l-2.5-0.3
				c-0.8-0.1-1.3-0.8-1.2-1.6C585.9,314.2,586.6,313.6,587.4,313.7L587.4,313.7L587.4,313.7z"/>
			<path class="st1" d="M595.8,314.7l2.5,0.2h0c0.8,0.1,1.3,0.7,1.3,1.5c-0.1,0.8-0.7,1.3-1.5,1.3l-2.5-0.2
				c-0.8-0.1-1.3-0.7-1.3-1.5S595,314.6,595.8,314.7L595.8,314.7L595.8,314.7z"/>
			<path class="st1" d="M604.1,315.3l2.5,0.1h0c0.8,0,1.3,0.7,1.3,1.4s-0.7,1.3-1.4,1.3L604,318c-0.8,0-1.3-0.7-1.3-1.4
				C602.7,315.8,603.3,315.3,604.1,315.3L604.1,315.3L604.1,315.3z"/>
			<path class="st1" d="M612.4,315.5h2.5h0c0.7,0,1.3,0.6,1.3,1.3s-0.6,1.3-1.3,1.4l-2.5,0c-0.8,0-1.4-0.6-1.4-1.3
				C611.1,316.1,611.7,315.5,612.4,315.5L612.4,315.5L612.4,315.5L612.4,315.5z"/>
			<path class="st1" d="M620.8,315.4l2.5-0.1h0c0.7,0,1.3,0.5,1.4,1.3s-0.5,1.3-1.3,1.4l-2.5,0.1c-0.7,0-1.4-0.5-1.4-1.3
				C619.5,316,620,315.4,620.8,315.4L620.8,315.4L620.8,315.4z"/>
			<path class="st1" d="M629.1,314.9l2.5-0.2h0c0.7-0.1,1.3,0.5,1.4,1.2s-0.5,1.3-1.2,1.4l-2.5,0.2c-0.7,0.1-1.4-0.5-1.4-1.2
				C627.9,315.6,628.4,314.9,629.1,314.9L629.1,314.9L629.1,314.9z"/>
			<path class="st1" d="M637.5,314l2.5-0.3h0c0.7-0.1,1.3,0.4,1.4,1.1c0.1,0.7-0.4,1.3-1.1,1.4l-2.5,0.3c-0.7,0.1-1.3-0.4-1.5-1.1
				C636.2,314.8,636.7,314.1,637.5,314L637.5,314L637.5,314z"/>
			<path class="st1" d="M645.7,312.8l2.5-0.4h0c0.7-0.1,1.3,0.3,1.5,1c0.1,0.7-0.3,1.3-1,1.5l-2.5,0.4c-0.7,0.1-1.3-0.3-1.5-1
				C644.6,313.6,645,313,645.7,312.8L645.7,312.8L645.7,312.8z"/>
			<path class="st1" d="M654,311.3l2.5-0.5h0c0.7-0.1,1.3,0.3,1.5,1c0.1,0.7-0.3,1.3-0.9,1.5l-2.5,0.5c-0.7,0.1-1.3-0.3-1.5-1
				C652.8,312.1,653.3,311.5,654,311.3L654,311.3L654,311.3z"/>
			<path class="st1" d="M662.1,309.5l2.4-0.6h0c0.7-0.2,1.3,0.2,1.5,0.9c0.2,0.6-0.2,1.3-0.9,1.5l-2.5,0.6c-0.7,0.2-1.3-0.2-1.5-0.9
				S661.4,309.6,662.1,309.5L662.1,309.5L662.1,309.5z"/>
			<path class="st1" d="M670.2,307.3l2.4-0.7h0c0.6-0.2,1.3,0.2,1.5,0.8c0.2,0.6-0.2,1.3-0.8,1.5l-2.4,0.7c-0.6,0.2-1.3-0.2-1.5-0.8
				C669.2,308.1,669.5,307.5,670.2,307.3L670.2,307.3L670.2,307.3z"/>
			<path class="st1" d="M678.2,304.8l2.4-0.8h0c0.6-0.2,1.3,0.1,1.5,0.7c0.2,0.6-0.1,1.3-0.7,1.5l-2.4,0.8c-0.6,0.2-1.3-0.1-1.5-0.7
				C677.2,305.7,677.6,305,678.2,304.8L678.2,304.8L678.2,304.8z"/>
			<path class="st1" d="M686.1,302l2.3-0.9h0c0.6-0.2,1.3,0.1,1.5,0.6c0.2,0.6-0.1,1.3-0.7,1.5l-2.4,0.9c-0.6,0.2-1.3-0.1-1.5-0.6
				S685.5,302.2,686.1,302L686.1,302L686.1,302z"/>
			<path class="st1" d="M693.8,298.8l2.3-1l0,0c0.6-0.2,1.2,0,1.5,0.6c0.2,0.6,0,1.2-0.6,1.5l-2.3,1c-0.6,0.3-1.2,0-1.5-0.6
				C693,299.7,693.3,299.1,693.8,298.8L693.8,298.8L693.8,298.8z"/>
			<path class="st1" d="M701.5,295.4l2.3-1.1l0,0c0.5-0.3,1.2,0,1.4,0.5c0.3,0.5,0,1.2-0.5,1.4l-2.3,1.1c-0.5,0.3-1.2,0-1.5-0.5
				C700.7,296.3,700.9,295.7,701.5,295.4L701.5,295.4L701.5,295.4z"/>
			<path class="st1" d="M709,291.7l2.2-1.2l0,0c0.5-0.3,1.1-0.1,1.4,0.4c0.3,0.5,0.1,1.1-0.4,1.4l-2.2,1.2c-0.5,0.3-1.2,0.1-1.4-0.4
				C708.3,292.6,708.5,292,709,291.7L709,291.7L709,291.7z"/>
			<path class="st1" d="M716.3,287.7l2.2-1.3l0,0c0.5-0.3,1.1-0.1,1.4,0.4c0.3,0.5,0.1,1.1-0.4,1.4l-2.2,1.3
				c-0.5,0.3-1.1,0.1-1.4-0.4C715.7,288.6,715.8,288,716.3,287.7L716.3,287.7L716.3,287.7z"/>
			<path class="st1" d="M723.5,283.4l2.1-1.4l0,0c0.5-0.3,1-0.1,1.3,0.3c0.3,0.5,0.2,1-0.3,1.3l-2.1,1.4c-0.5,0.3-1.1,0.2-1.4-0.3
				C722.9,284.3,723.1,283.7,723.5,283.4L723.5,283.4L723.5,283.4z"/>
			<path class="st1" d="M730.6,278.8l2.1-1.4l0,0c0.4-0.3,1-0.2,1.3,0.2c0.3,0.4,0.2,1-0.2,1.3l-2.1,1.5c-0.4,0.3-1,0.2-1.3-0.2
				C730,279.7,730.1,279.1,730.6,278.8L730.6,278.8L730.6,278.8z"/>
			<path class="st1" d="M737.4,273.9l2-1.5l0,0c0.4-0.3,1-0.2,1.3,0.2c0.3,0.4,0.2,1-0.2,1.3l-2,1.5c-0.4,0.3-1,0.2-1.3-0.2
				C736.9,274.8,737,274.2,737.4,273.9L737.4,273.9L737.4,273.9z"/>
			<path class="st1" d="M744,268.8l1.9-1.6l0,0c0.4-0.3,0.9-0.3,1.2,0.1c0.3,0.4,0.3,0.9-0.1,1.2l-2,1.6c-0.4,0.3-0.9,0.3-1.2-0.1
				S743.6,269.1,744,268.8L744,268.8L744,268.8z"/>
			<path class="st1" d="M750.4,263.4l1.9-1.7l0,0c0.3-0.3,0.9-0.3,1.2,0.1c0.3,0.3,0.3,0.9-0.1,1.2l-1.9,1.7
				c-0.3,0.3-0.9,0.3-1.2-0.1C750,264.2,750.1,263.7,750.4,263.4L750.4,263.4L750.4,263.4z"/>
			<path class="st1" d="M756.6,257.7l1.8-1.8l0,0c0.3-0.3,0.8-0.3,1.1,0c0.3,0.3,0.3,0.8,0,1.1l-1.8,1.8c-0.3,0.3-0.8,0.3-1.1,0
				C756.3,258.5,756.3,258,756.6,257.7L756.6,257.7L756.6,257.7z"/>
			<path class="st1" d="M762.5,251.8l1.7-1.8l0,0c0.3-0.3,0.8-0.3,1.1,0c0.3,0.3,0.3,0.8,0,1.1l-1.7,1.9c-0.3,0.3-0.8,0.3-1.1,0
				C762.2,252.6,762.2,252.1,762.5,251.8L762.5,251.8L762.5,251.8z"/>
			<path class="st1" d="M768.2,245.6l1.7-1.9l0,0c0.3-0.3,0.7-0.3,1-0.1s0.3,0.7,0.1,1l-1.6,1.9c-0.3,0.3-0.7,0.3-1,0.1
				C767.9,246.4,767.9,245.9,768.2,245.6L768.2,245.6L768.2,245.6z"/>
			<path class="st1" d="M773.5,239.2l1.6-2l0,0c0.2-0.3,0.7-0.3,1-0.1c0.3,0.2,0.3,0.7,0.1,0.9l-1.6,2c-0.2,0.3-0.7,0.4-1,0.1
				S773.3,239.5,773.5,239.2L773.5,239.2L773.5,239.2z"/>
			<path class="st1" d="M778.7,232.5l1.5-2l0,0c0.2-0.3,0.6-0.4,0.9-0.1c0.3,0.2,0.3,0.6,0.2,0.9l-1.5,2.1c-0.2,0.3-0.6,0.4-0.9,0.2
				C778.5,233.2,778.4,232.8,778.7,232.5L778.7,232.5L778.7,232.5z"/>
			<path class="st1" d="M783.5,225.6l1.4-2.1l0,0c0.2-0.3,0.6-0.4,0.8-0.2c0.3,0.2,0.4,0.6,0.2,0.8l-1.4,2.1
				c-0.2,0.3-0.6,0.4-0.9,0.2S783.3,225.9,783.5,225.6L783.5,225.6L783.5,225.6z"/>
			<path class="st1" d="M787.9,218.5l1.2-2.2l0,0c0.2-0.3,0.5-0.4,0.8-0.2c0.3,0.1,0.4,0.5,0.2,0.8l-1.2,2.2
				c-0.2,0.3-0.5,0.4-0.8,0.2C787.8,219.2,787.7,218.8,787.9,218.5L787.9,218.5L787.9,218.5z"/>
			<path class="st1" d="M791.6,211.1l1-2.3l0,0c0.1-0.3,0.4-0.4,0.7-0.3s0.4,0.4,0.3,0.7l-1,2.4c-0.1,0.3-0.4,0.4-0.7,0.3
				C791.7,211.7,791.5,211.4,791.6,211.1L791.6,211.1L791.6,211.1z"/>
			<path class="st1" d="M794.4,203.2l0.6-2.4l0,0c0.1-0.3,0.3-0.4,0.6-0.4c0.3,0.1,0.4,0.3,0.4,0.6l-0.6,2.5
				c-0.1,0.3-0.3,0.4-0.6,0.4C794.5,203.8,794.4,203.5,794.4,203.2L794.4,203.2L794.4,203.2z"/>
			<path class="st1" d="M795.8,195l0.1-2.5v0c0-0.3,0.2-0.5,0.5-0.4c0.3,0,0.5,0.2,0.5,0.5l-0.1,2.6c0,0.3-0.2,0.5-0.5,0.5
				C796,195.5,795.8,195.3,795.8,195L795.8,195L795.8,195z"/>
			<path class="st1" d="M795.4,186.8l-0.6-2.4l0,0c-0.1-0.2,0.1-0.5,0.3-0.5s0.5,0.1,0.5,0.3l0.6,2.5c0.1,0.2-0.1,0.5-0.3,0.5
				S795.4,187,795.4,186.8L795.4,186.8L795.4,186.8z"/>
			<path class="st1" d="M792.7,178.9l-1.2-2.2l0,0c-0.1-0.2,0-0.4,0.2-0.5s0.4,0,0.5,0.1l1.3,2.2c0.1,0.2,0,0.4-0.2,0.6
				S792.8,179.2,792.7,178.9L792.7,178.9L792.7,178.9z"/>
			<path class="st1" d="M787.9,172.1l-1.8-1.7l0,0c-0.1-0.1-0.2-0.4,0-0.5s0.4-0.1,0.5,0l1.9,1.8c0.2,0.1,0.2,0.4,0,0.5
				C788.3,172.3,788.1,172.3,787.9,172.1L787.9,172.1L787.9,172.1z"/>
			<path class="st1" d="M781.3,167.2l-2.3-0.9l0,0c-0.2-0.1-0.2-0.3-0.2-0.4c0.1-0.2,0.3-0.2,0.4-0.2l2.4,0.9
				c0.2,0.1,0.3,0.3,0.2,0.4S781.5,167.3,781.3,167.2L781.3,167.2L781.3,167.2z"/>
		</g>
		<g>
			<polygon class="st1" points="776.1,143.3 774.2,157.2 765.6,149.9 			"/>
			<path class="st1" d="M714.6,126.8l33.1,38.1c0.6,0.7,1.5,1.2,2.5,1.2s1.9-0.3,2.6-1l37-34.7c0.4-0.4,0.6-1,0.3-1.6
				c-0.2-0.5-0.7-0.9-1.3-0.9L714.6,126.8z"/>
			<polygon class="st1" points="776.1,143.3 714.6,126.8 770.1,148.9 769.8,152.8 			"/>
			<polygon class="st1" points="766.6,152.2 774.2,157.2 770.1,148.9 			"/>
		</g>
	</g>
	<g>
		<path class="st4" d="M124.1,594.4c0,0-43.9-175.3,52.5-320.8c0,0,86.5-3.6,186.2,83.2c0,0-88,74.6-98.6,241.2
			C264.2,598,182.6,601.5,124.1,594.4z"/>
		<path class="st6" d="M298.1,242.7l-43.5,48.1c-4.1,4.5-4,11.2,0.2,15.6c7.3,7.7,20.1,17.7,37,15.8c5.5-0.6,10.3-3.8,13-8.3
			l26.4-44.5L298.1,242.7z"/>
		<path class="st4" d="M363,357.1c0,0,20.9,103.6,119.8,134.7l2.1,16.3c0,0-144.9-3.1-191.2-133L363,357.1z"/>
		<path class="st7" d="M371.6,211.8c0,0-4.4,80.9-39.9,85.2s-37.4-75.2-37.4-75.2S328.4,150.5,371.6,211.8z"/>
		<path class="st6" d="M309.7,246.8c0,0,1.2-25-13-20.2c-18.4,6.3,4.7,26,4.7,26L309.7,246.8z"/>
		<g>
			<path class="st6" d="M467.4,508.2c-2,1.3-7.6-5.7,0-13c4.3-1.4,22-9.2,26.2-7.6c22.5,8.4,53.4,28.4,53.4,28.4
				c-3.2,5.7-8.6,3.3-8.6,3.3l-17.1-9.1c-4.1,4.1-7.3,8.5-12.8,11.7c-4.1,2.4-9.1,3.1-13.8,2c-4.7-1.1-10.9-2.7-15.9-4.5
				C469.7,516,467.4,508.2,467.4,508.2z"/>
			<path class="st6" d="M511.2,506.9l-13.3-8.9l-11-0.9l-8.7,13.8c0,0,20.6-2,25.6-0.6C508.9,511.7,510.6,509.7,511.2,506.9z"/>
		</g>
		<path d="M306.5,229.9c0,0-5.5,16.6,0,12.9c5.5-3.8,9.9-44.6,34.6-32.1c24.6,12.5,70.7,20.1,60.6-27.4
			c-10.1-47.5-38.7-6.5-79.3-17.6c-40.6-11-35.3,27.5-31,34.4c-12,5.8-11.1,20.6,0,29.8C294.6,227.5,301,221.5,306.5,229.9z"/>
		<path class="st4" d="M381.5,216.6c-0.2,0-0.5-0.2-0.5-0.4c0-0.3,0.1-0.6,0.4-0.6c0.1,0,8.4-1.6,13.1-9.3c4-6.5,4.4-15.3,1.2-26.2
			c-0.1-0.3,0.1-0.6,0.4-0.6c0.3-0.1,0.6,0.1,0.6,0.4c3.3,11.2,2.8,20.3-1.3,27C390.4,214.9,381.9,216.5,381.5,216.6
			C381.5,216.6,381.5,216.6,381.5,216.6z"/>
		<path class="st4" d="M172.2,273.7c0,0-184.5,71.8-167.9,122.8s104.9,142.5,104.9,142.5l7.2-26.5c0,0-62.5-109.1-46-115.1
			c16.5-6,101.8-39,101.8-39S205,270.5,172.2,273.7z"/>
		<g>
			<path class="st6" d="M109.1,507.9c0,0,4-11,3.3-17.1c-0.7-6.2,6.3-4.5,7.5,1.5c1.2,6-2,19.9-2,19.9S111,513.2,109.1,507.9z"/>
			<path class="st6" d="M118.8,544.7c-2,1.4-4.5,1.7-6.7,0.7c-2.2-1-3.8-3-4.1-5.4c-1.1-7.6-2.6-19.7-1.4-25.2
				c1.7-8.4,5-19.1,16.1-16.7s24.1,8.7,24.1,8.7s-0.7,10.9-9.1,7.4l5.2,5.4c0,0-0.7,8.7-7.8,4.1l4.8,7.2c0,0-3,7.2-8.3,2.6
				C127.7,530.1,125.4,540,118.8,544.7z"/>
		</g>
	</g>
</g>
</svg>
